<svg width="513" height="506" viewBox="0 0 513 506" fill="none" xmlns="http://www.w3.org/2000/svg">
<path fill-rule="evenodd" clip-rule="evenodd" d="M249.922 3.99887C243.481 10.4409 247.888 21.0759 256.999 21.0759C262.846 21.0759 266.999 16.9229 266.999 11.0759C266.999 1.96487 256.364 -2.44213 249.922 3.99887ZM130.387 30.0559C126.939 31.4489 123.999 35.9999 123.999 39.9459C123.999 43.3489 126.045 45.5919 161.264 80.8109L198.529 118.076H202.809C209.63 118.076 214.199 112.092 212.543 105.326C211.799 102.288 143.504 32.9959 138.799 30.5049C135.786 28.9109 133.521 28.7899 130.387 30.0559ZM374.499 30.9209C368.7 34.6729 302.158 102.455 301.455 105.326C299.799 112.091 304.368 118.076 311.189 118.076H315.469L352.734 80.8109C388.395 45.1499 389.999 43.3859 389.999 39.8269C389.999 31.9429 380.953 26.7459 374.499 30.9209ZM252.499 42.2369C247.009 45.2559 247.045 45.0059 247.021 79.9029L246.999 112.23L249.922 115.153C254.038 119.269 259.96 119.269 264.076 115.153L266.999 112.23L266.977 79.9029C266.957 50.7839 266.783 47.3639 265.227 45.4429C261.861 41.2879 256.623 39.9689 252.499 42.2369ZM101.218 100.749C100.084 101.204 6.99155 215.827 2.70255 222.049C-0.0404505 226.028 0.51955 230.587 4.24855 234.627C6.03555 236.564 18.0465 247.245 30.9375 258.362L54.3776 278.576L74.7856 306.076C86.0106 321.201 95.8455 334.541 96.6415 335.72C97.9605 337.673 97.8156 338.295 95.0086 342.72C81.9076 363.374 91.7736 389.924 114.999 396.516L120.499 398.077L120.604 403.881C120.901 420.391 132.095 433.883 148.737 437.789L155.828 439.453L156.461 444.015C157.41 450.848 162.38 460.251 167.574 465.038C173.734 470.716 181.145 473.944 190.077 474.84L197.413 475.576L198.193 479.342C200.088 488.478 206.96 497.175 216.173 502.095C221.614 505.001 223.688 505.529 230.999 505.871C242.268 506.397 248.773 504.031 257.002 496.413C260.881 492.822 263.38 491.191 264.217 491.704C264.922 492.135 267.389 493.927 269.698 495.685C276.125 500.577 282.757 502.392 292.366 501.887C299.206 501.528 301.505 500.924 306.825 498.088C317.12 492.601 324.165 482.602 325.55 471.512L326.197 466.335L331.566 465.781C338.425 465.073 348.018 460.018 352.695 454.646C357.335 449.317 360.746 441.945 361.55 435.512L362.197 430.335L367.566 429.781C374.425 429.073 384.018 424.018 388.695 418.646C393.335 413.317 396.746 405.945 397.55 399.512L398.197 394.335L403.566 393.781C410.423 393.074 420.015 388.02 424.7 382.646C432.812 373.341 435.782 360.792 432.543 349.504C431.608 346.244 430.265 342.675 429.56 341.574C428.423 339.798 430.103 335.731 444.388 305.661L460.499 271.75L485.202 250.4C498.788 238.657 510.6 228.055 511.452 226.84C513.247 224.277 513.464 219.813 511.932 216.95C509.628 212.645 423.793 102.036 422.019 101.087C419.509 99.7439 415.379 99.8059 412.683 101.229C411.482 101.862 398.222 110.187 383.217 119.729L355.935 137.076H318.914H281.894L253.864 145.168L225.835 153.26L197.167 145.5L168.499 137.74L140.499 120.049C125.099 110.318 111.516 101.844 110.315 101.216C108.089 100.054 103.53 99.8199 101.218 100.749ZM129.029 137.147C142.102 145.481 147.796 149.644 147.196 150.431C144.648 153.77 63.4286 252.869 61.9216 254.477C60.1876 256.329 59.6875 255.99 43.0126 241.647C33.5936 233.544 26.0486 226.425 26.2486 225.826C27.2026 222.964 107.653 124.249 108.743 124.604C109.427 124.826 118.556 130.471 129.029 137.147ZM453.249 173.791C472.362 198.639 487.999 219.402 487.999 219.932C487.999 220.956 454.062 250.505 453.558 249.921C444.61 239.549 375.15 149.541 375.699 149.028C376.139 148.617 385.049 142.837 395.499 136.184L414.499 124.089L416.499 126.35C417.599 127.594 434.136 148.943 453.249 173.791ZM396.999 211.128C420.374 240.855 439.636 265.566 439.804 266.042C439.972 266.519 434.122 279.523 426.804 294.939L413.499 322.97L356.462 266.023C325.091 234.702 299.216 209.032 298.962 208.979C298.707 208.925 284.999 207.854 268.499 206.598C240.508 204.468 238.268 204.424 235.056 205.945C232.062 207.364 229.624 211.094 216.347 234.576C206.503 251.987 199.991 262.428 198.012 263.975C193.907 267.186 186.704 267.821 182.07 265.381C176.624 262.514 174.499 258.828 174.499 252.253C174.499 246.718 174.982 245.727 193.843 212.576C204.483 193.876 213.272 178.487 213.375 178.378C213.478 178.269 229.748 173.467 249.531 167.708L285.499 157.237L319.999 157.159L354.499 157.08L396.999 211.128ZM182.385 162.699C189.598 164.692 195.653 166.459 195.842 166.625C196.03 166.792 187.174 182.829 176.162 202.264C153.277 242.651 151.901 246.046 153.835 257.323C156.063 270.318 164.24 280.692 175.797 285.186C183.718 288.265 194.38 288.225 202.468 285.086C212.154 281.326 216.678 275.815 230.999 250.338C237.874 238.107 243.803 227.56 244.174 226.9C244.698 225.97 249.935 226.031 267.454 227.171L290.059 228.642L350.033 288.609C383.019 321.591 410.68 349.994 411.503 351.727C415.411 359.959 412.055 369.035 403.848 372.437C394.571 376.281 395.687 377.098 355.454 337L319.409 301.076H315.127C309.098 301.076 304.999 305.163 304.999 311.176V315.43L339.933 350.503C359.147 369.793 375.347 386.843 375.933 388.391C379.125 396.82 375.763 405.156 367.848 408.437C358.878 412.154 358.541 411.935 330.499 384.069C313.903 367.577 304.539 358.988 302.643 358.516C296.111 356.892 289.021 364.157 290.622 370.834C291.045 372.596 299.793 382.177 315.09 397.63C328.185 410.86 339.372 422.926 339.949 424.445C343.129 432.809 339.743 441.165 331.848 444.437C323.463 447.912 321.579 446.925 304.509 430.108C288.241 414.082 285.756 412.599 280.089 415.53C276.131 417.576 273.614 422.402 274.416 426.409C274.849 428.578 279.077 433.575 288.985 443.631C296.662 451.423 303.405 459.015 303.971 460.502C309.946 476.217 292.714 488.362 279.63 477.658L276.76 475.311L278.435 470.268C280.243 464.825 280.731 455.695 279.513 450.076C277.05 438.707 265.921 427.19 254.499 424.188L250.499 423.137L250.835 417.159C251.874 398.688 238.296 382.201 220.537 380.368L215.225 379.82L214.8 374.698C213.903 363.886 206.046 352.71 195.545 347.306C191.487 345.218 188.685 344.624 181.238 344.273C172.208 343.847 171.962 343.771 171.361 341.206C171.022 339.76 169.371 335.954 167.692 332.75C162.672 323.169 153.955 317.062 142.17 314.871C134.708 313.483 125.021 315.543 117.712 320.073L112.926 323.039L93.8306 297.377C80.3356 279.239 74.9946 271.323 75.6176 270.379C79.6156 264.319 166.818 159.181 167.885 159.135C168.647 159.103 175.172 160.706 182.385 162.699ZM143.716 336.746C149.989 339.723 153.229 347.794 150.948 354.761C149.594 358.899 136.454 373.247 131.799 375.67C125.468 378.966 115.626 376.444 112.015 370.602C109.619 366.726 109.332 359.239 111.426 355.276C113.382 351.576 127.92 337.396 130.999 336.186C134.829 334.68 139.826 334.9 143.716 336.746ZM186.623 366.136C189.713 367.632 191.443 369.362 192.939 372.452C197.301 381.462 195.145 385.725 177.367 403.238C162.536 417.849 160.349 419.115 152.484 417.639C147.902 416.78 142.295 411.173 141.436 406.591C139.977 398.813 141.233 396.646 155.83 381.759C173.323 363.917 177.579 361.758 186.623 366.136ZM220.167 401.106C228.103 403.31 232.722 412.98 229.527 420.699C227.79 424.894 203.487 450.16 198.799 452.645C197.313 453.432 194.118 454.076 191.697 454.076C181.05 454.076 174.032 442.847 178.396 432.794C180.57 427.785 205.851 403.245 210.568 401.564C215.378 399.851 215.608 399.84 220.167 401.106ZM252.999 445.97C259.063 450.312 261.381 457.246 258.947 463.761C257.407 467.883 241.186 483.859 237.208 485.172C230.682 487.326 222.552 483.981 219.374 477.834C218.271 475.701 217.917 473.08 218.227 469.344C218.666 464.048 218.865 463.748 228.087 454.477C233.422 449.113 238.798 444.621 240.499 444.105C244.419 442.915 249.868 443.728 252.999 445.97Z" fill="#6989AD"/>
</svg>
