<svg width="428" height="407" viewBox="0 0 428 407" fill="none" xmlns="http://www.w3.org/2000/svg">
<path fill-rule="evenodd" clip-rule="evenodd" d="M105.251 1.59181C88.8005 5.16581 78.9585 15.8658 75.9305 33.4688C72.9025 51.0658 79.5055 66.2698 96.2135 80.1748L102.104 85.0758L72.8015 85.0958C56.6855 85.1068 40.6615 85.5268 37.1935 86.0278C18.4215 88.7428 3.6665 103.498 0.951499 122.27C0.450499 125.738 0.0304994 147.828 0.0194994 171.358C-0.0025006 217.937 0.129501 219.149 5.5865 222.725C7.6285 224.063 11.1095 224.672 19.0425 225.078C28.6975 225.573 30.1435 225.904 33.8385 228.464C44.5635 235.897 45.9225 251.213 36.6745 260.447C31.5255 265.589 26.8345 267.076 15.7685 267.076C5.8625 267.076 2.7465 268.725 1.0395 274.871C-0.3405 279.839 -0.326501 361.474 1.0555 369.99C3.7355 386.506 14.8235 399.119 31.1245 404.192C36.9575 406.007 43.6155 406.076 213.999 406.076C384.383 406.076 391.042 406.007 396.875 404.192C413.419 399.043 424.548 386.18 426.973 369.402C428.307 360.178 428.296 279.68 426.96 274.871C425.253 268.725 422.136 267.076 412.23 267.076C402.051 267.076 397.349 265.813 392.427 261.755C382.789 253.811 382.651 239.348 392.128 230.387C396.792 225.977 399.789 225.077 409.815 225.072C416.761 225.069 419.163 224.665 421.81 223.05C427.921 219.325 428.001 218.659 427.992 171.358C427.988 147.233 427.54 125.741 426.965 122.076C424.778 108.141 415.944 96.1288 403.303 89.9028L396.549 86.5758L360.607 86.0758L324.665 85.5758L328.868 82.6648C336.052 77.6898 345.021 67.2408 348.626 59.6448C352.665 51.1348 353.724 43.0868 352.069 33.4688C347.809 8.70581 329.877 -2.24718 298.695 0.866816C278.894 2.84482 263.639 8.14582 248.794 18.2078C236.905 26.2658 224.455 40.6528 216.68 55.3178L214.165 60.0608L209.622 52.1838C199.981 35.4688 187.557 22.6538 172.218 13.6038C154.079 2.90082 124.034 -2.48819 105.251 1.59181ZM142.174 24.9498C162.833 30.3478 179.764 43.6118 190.719 62.9778C194.232 69.1878 199.999 82.3628 199.999 84.1798C199.999 85.6088 175.498 85.1808 164.029 83.5508C125.698 78.1038 97.0345 60.1498 97.0145 41.5758C97.0055 32.2788 100.608 26.0678 107.499 23.5068C112.988 21.4678 131.85 22.2518 142.174 24.9498ZM322.971 24.6278C327.755 27.4208 330.144 31.9998 330.749 39.5368C331.167 44.7488 330.862 46.7298 329.069 50.4338C325.845 57.0928 315.812 65.9398 305.41 71.2958C288.494 80.0058 270.627 84.0118 245.137 84.8108L227.777 85.3548L228.499 82.9658C233.596 66.1398 245.481 48.2048 257.829 38.7088C263.774 34.1368 274.806 28.2258 281.359 26.0998C294.821 21.7338 316.691 20.9598 322.971 24.6278ZM181.999 110.093C170.064 116.437 160.738 118.085 136.826 118.077C133.971 118.076 129.109 122.971 128.445 126.515C127.685 130.561 129.907 135.315 133.727 137.817C137.878 140.535 162.554 140.175 173.499 137.236C184.637 134.245 196.057 128.346 205.692 120.607L213.886 114.026L221.854 120.458C236.053 131.921 252.244 138.268 270.88 139.674C284.28 140.686 292.286 139.545 295.977 136.098C298.507 133.734 299 132.512 299 128.598C299 124.763 298.474 123.396 296.077 120.999C294.469 119.391 292.557 118.068 291.827 118.058C269.845 117.761 264.115 117.22 256.5 114.725C252.1 113.284 246.699 110.987 244.499 109.621L240.499 107.138L275.25 107.107L310 107.076V119.676V132.276L313.4 135.676C317.476 139.752 322.537 140.254 327.061 137.033C330.855 134.331 331.987 129.807 331.993 117.326L332 107.076H359.057C376.369 107.076 387.784 107.497 390.751 108.244C397.028 109.824 403.252 116.048 404.832 122.325C405.621 125.456 406 139.321 406 165.019V203.076H402.467C398.051 203.076 388.02 206.404 383.171 209.477C381.152 210.757 377.331 214.13 374.68 216.972C359.112 233.663 359.54 259.236 375.665 275.781C381.431 281.697 390.751 286.655 397.932 287.626C407.03 288.857 406.142 284.143 405.802 329.41C405.472 373.361 405.61 372.317 399.339 378.273C393.541 383.781 391.573 384.076 360.635 384.076H332.206L331.826 371.826C331.405 358.218 330.625 356.076 325.161 353.483C320.589 351.313 315.796 352.342 312.56 356.187C310.114 359.094 310 359.782 310 371.653V384.076L174.249 384.054C45.1065 384.033 38.3045 383.943 34.4905 382.211C29.4495 379.921 24.4245 374.269 23.0595 369.353C22.4125 367.023 22.0085 350.952 22.0055 327.393C21.9985 284.475 21.1145 288.837 30.0675 287.626C37.2485 286.655 46.5675 281.697 52.3335 275.781C68.4585 259.236 68.8875 233.663 53.3195 216.972C50.6685 214.13 46.8475 210.757 44.8285 209.477C39.9795 206.404 29.9475 203.076 25.5315 203.076H21.9995V165.019C21.9995 139.321 22.3785 125.456 23.1675 122.325C24.6445 116.459 31.0385 109.784 36.5845 108.318C39.1035 107.652 66.7175 107.263 113.999 107.227L187.499 107.17L181.999 110.093ZM317.312 150.189C315.559 150.69 313.197 152.281 312.062 153.723C310.135 156.173 310 157.657 310 176.311V196.276L313.4 199.676C316.04 202.316 317.626 203.076 320.496 203.076C325.433 203.076 329.672 199.919 330.959 195.283C332.571 189.481 332.291 160.709 330.584 156.622C328.314 151.191 322.931 148.581 317.312 150.189ZM133.343 182.118C123.685 184.028 114.652 191.001 110.292 199.911C106.56 207.54 106.349 219.026 109.804 226.576C112.799 233.12 120.041 240.393 126.408 243.252C134.104 246.708 145.553 246.507 153.164 242.784C173.026 233.066 177.544 206.621 161.999 191.076C154.709 183.786 143.161 180.176 133.343 182.118ZM220.499 193.055C219.399 193.524 195.886 216.568 168.249 244.265C118.077 294.544 117.999 294.629 117.999 298.772C117.999 307.088 126.43 312.453 133.508 308.641C135.263 307.696 158.817 284.776 185.85 257.706C235.385 208.104 235.656 207.796 235.156 201.576C234.607 194.752 226.956 190.304 220.499 193.055ZM143.567 204.54C147.716 206.273 150.466 211.673 149.482 216.153C148.587 220.229 143.654 224.076 139.322 224.076C134.396 224.076 128.999 218.71 128.999 213.811C128.999 208.627 133.804 203.385 138.781 203.139C139.486 203.105 141.64 203.735 143.567 204.54ZM317.312 214.189C315.559 214.69 313.197 216.281 312.062 217.723C310.102 220.215 310 221.603 310 245.634V270.923L312.56 273.965C317.103 279.364 326.066 278.779 330.009 272.826C332.237 269.463 332.772 225.862 330.648 220.778C328.315 215.194 322.992 212.564 317.312 214.189ZM206.332 256.976C196.385 259.531 186.653 268.638 183.38 278.455C181.054 285.429 181.887 296.005 185.288 302.684C188.715 309.415 196.651 316.467 203.279 318.671C214.551 322.418 226.476 320.049 235.025 312.363C241.906 306.176 245.185 299.495 245.778 290.455C246.353 281.698 244.521 275.596 239.209 268.576C232.314 259.465 217.285 254.163 206.332 256.976ZM219.019 279.586C222.706 281.493 223.999 283.904 223.999 288.874C223.999 295.568 216.948 300.528 210.77 298.179C206.484 296.549 203.999 293.116 203.999 288.822C203.999 283.991 205.276 281.533 208.774 279.635C212.298 277.723 215.387 277.708 219.019 279.586ZM316.388 289.056C315.227 289.525 313.314 291.133 312.138 292.628C310.118 295.196 310 296.434 310 315.134C310 334.907 310.002 334.925 312.56 337.965C315.823 341.842 320.588 342.84 325.258 340.624C331.031 337.884 331.5 335.966 331.5 315.076C331.5 294.31 331.013 292.259 325.454 289.621C321.858 287.915 319.567 287.772 316.388 289.056Z" fill="#6989AD"/>
</svg>
