<svg width="462" height="513" viewBox="0 0 462 513" fill="none" xmlns="http://www.w3.org/2000/svg">
<path fill-rule="evenodd" clip-rule="evenodd" d="M188.502 1.18457C148.425 4.19457 115.084 11.4076 93.0408 21.8376C83.8928 26.1666 75.9818 33.7486 72.2048 41.8086C69.8058 46.9286 69.5018 48.7556 69.5018 58.0766C69.5018 67.3976 69.8058 69.2246 72.2048 74.3446C76.9238 84.4156 83.2068 89.5516 103.002 99.5196C112.627 104.367 120.656 108.467 120.845 108.631C121.86 109.515 127.978 136.49 127.303 137.105C126.862 137.507 124.847 138.364 122.824 139.01C117.282 140.78 107.807 147.27 104.34 151.671C96.3948 161.757 92.8408 174.697 94.8628 186.176C97.5988 201.713 108.551 214.638 123.214 219.633L127.705 221.164L128.303 230.977C129.374 248.557 133.874 256.387 151.848 271.944L163.75 282.245L164.253 289.911C164.96 300.666 163.386 316.862 160.547 328.063C156.616 343.573 159.134 341.47 135.428 349.04C86.9918 364.507 53.7398 379.83 38.3178 393.79C27.8298 403.283 15.2858 419.927 9.94584 431.434C3.36884 445.607 -0.00415559 463.936 0.00784441 485.433C0.0138444 497.229 1.05784 501.802 4.74384 506.182C10.0618 512.503 -6.28415 512.077 231.002 512.077C468.288 512.077 451.942 512.503 457.26 506.182C460.946 501.802 461.99 497.229 461.996 485.433C462.008 463.936 458.635 445.607 452.058 431.434C446.718 419.927 434.174 403.283 423.686 393.79C413.826 384.864 394.907 374.483 370.199 364.44C357.107 359.118 315.981 345.06 309.336 343.634C306.892 343.11 305.837 342.115 304.709 339.266C299.98 327.328 296.747 303.614 297.914 289.422L298.502 282.266L311.002 271.261C328.554 255.808 332.61 248.59 333.701 230.87L334.299 221.164L338.79 219.633C353.567 214.599 364.117 202.036 367.082 185.948C370.308 168.438 360.093 148.766 343.762 141.04C340.319 139.411 336.966 138.078 336.311 138.078C335.656 138.077 334.856 137.651 334.534 137.129C334.02 136.297 340.272 109.403 341.159 108.631C341.348 108.467 349.377 104.367 359.002 99.5196C378.797 89.5516 385.08 84.4156 389.799 74.3446C392.198 69.2246 392.502 67.3976 392.502 58.0766C392.502 48.7556 392.198 46.9286 389.799 41.8086C385.952 33.5996 378.132 26.1786 368.521 21.6176C346.2 11.0256 313.057 4.05657 271.002 1.11157C254.196 -0.0654304 204.557 -0.0214303 188.502 1.18457ZM278.002 19.1706C320.77 22.6496 360.167 33.1486 370.213 43.7456C373.194 46.8896 376.002 53.8156 376.002 58.0246C376.002 63.1916 372.931 69.9076 368.906 73.5446C366.74 75.5016 358.563 80.2896 350.735 84.1846L336.502 91.2666L329.888 86.8156C321.633 81.2596 308.926 76.5516 294.002 73.5216C277.677 70.2056 266.531 69.1106 242.002 68.4106C190.407 66.9396 149.789 73.9846 130.668 87.7216L125.615 91.3516L111.326 84.2266C103.467 80.3086 95.2638 75.5016 93.0978 73.5446C89.0728 69.9076 86.0018 63.1916 86.0018 58.0246C86.0018 53.8156 88.8098 46.8886 91.7908 43.7466C100.924 34.1166 135.908 24.0736 174.487 20.0076C201.762 17.1326 248.318 16.7556 278.002 19.1706ZM279.002 88.5176C299.07 91.6806 317.788 97.8676 322.268 102.819C323.808 104.52 323.704 105.473 320.71 117.109L317.502 129.577L308.002 131.243C284.6 135.348 267.402 136.287 223.986 135.83C182.641 135.395 173.489 134.755 151.002 130.726L144.502 129.562L141.294 117.102C137.561 102.6 137.39 103.13 147.385 98.2086C155.277 94.3236 169.282 90.6106 183.502 88.6346C200.089 86.3286 201.064 86.2906 236.002 86.5866C260.209 86.7916 271.181 87.2846 279.002 88.5176ZM165.002 150.573C204.888 155.838 279.08 154.781 312.732 148.468L316.002 147.854V160.031C316.002 175.595 317.617 178.979 325.078 179.045C327.654 179.068 329.331 178.356 331.078 176.498C333.197 174.243 333.546 172.796 333.851 164.998C334.044 160.091 334.571 156.077 335.024 156.077C335.476 156.077 337.794 157.543 340.174 159.334C348.403 165.526 351.891 176.733 348.921 187.432C346.761 195.207 335.906 204.002 328.401 204.055C323.796 204.088 319.121 206.005 317.731 208.432C316.991 209.723 316.303 216.351 316.001 225.077C315.535 238.565 315.312 239.898 312.798 244.175C309.379 249.993 261.113 292.535 254.211 295.814C249.862 297.88 248.086 298.051 231.002 298.051C213.918 298.051 212.142 297.88 207.793 295.814C200.891 292.535 152.625 249.993 149.206 244.175C146.692 239.898 146.469 238.565 146.003 225.077C145.701 216.351 145.013 209.723 144.273 208.432C142.883 206.005 138.208 204.088 133.603 204.055C126.098 204.002 115.243 195.207 113.083 187.432C110.113 176.733 113.601 165.526 121.83 159.334C124.21 157.543 126.528 156.077 126.98 156.077C127.433 156.077 127.96 160.091 128.153 164.998C128.458 172.796 128.807 174.243 130.926 176.498C132.673 178.356 134.35 179.068 136.926 179.045C144.389 178.979 146.002 175.596 146.002 160.015V147.821L150.252 148.504C152.59 148.879 159.227 149.81 165.002 150.573ZM173.591 165.154C172.167 166.846 171.002 169.118 171.002 170.203C171.002 173.888 173.953 178.117 176.941 178.715C179.078 179.142 179.937 180.001 180.364 182.138C180.972 185.175 185.206 188.077 189.029 188.077C191.505 188.077 197.002 182.959 197.002 180.654C197.002 179.787 197.824 179.077 198.828 179.077C201.889 179.077 205.402 174.451 205.402 170.42C205.402 167.729 204.705 166.218 202.646 164.447C200.082 162.242 199.066 162.077 188.035 162.077H176.18L173.591 165.154ZM259.358 164.447C257.299 166.218 256.602 167.729 256.602 170.42C256.602 174.451 260.115 179.077 263.176 179.077C264.18 179.077 265.002 179.787 265.002 180.654C265.002 182.959 270.499 188.077 272.975 188.077C276.798 188.077 281.032 185.175 281.64 182.138C282.067 180.001 282.926 179.142 285.063 178.715C288.051 178.117 291.002 173.888 291.002 170.203C291.002 169.118 289.837 166.846 288.413 165.154L285.824 162.077H273.969C262.938 162.077 261.922 162.242 259.358 164.447ZM220.272 204.728C215.294 205.806 212.199 214.145 215.284 218.164C217.669 221.27 220.906 222.077 230.986 222.077C241.487 222.077 246.131 220.79 247.381 217.532C248.651 214.223 247.932 210.107 245.614 207.412C243.314 204.739 242.842 204.629 232.864 204.44C227.165 204.333 221.498 204.462 220.272 204.728ZM208.915 240.359C204.328 243.881 203.92 249.149 207.925 253.154L210.848 256.077H231.002H251.156L254.079 253.154C257.199 250.034 257.714 247.283 255.839 243.761C253.477 239.328 252.472 239.141 231.002 239.141C216.422 239.141 210.044 239.492 208.915 240.359ZM217.079 266.666C214.631 268.725 214.002 270.037 214.002 273.077C214.002 276.117 214.631 277.429 217.079 279.488C219.975 281.925 220.792 282.077 231.002 282.077C241.212 282.077 242.029 281.925 244.925 279.488C247.373 277.429 248.002 276.117 248.002 273.077C248.002 270.037 247.373 268.725 244.925 266.666C242.029 264.229 241.212 264.077 231.002 264.077C220.792 264.077 219.975 264.229 217.079 266.666ZM190.154 305.243C195.843 310.039 203.557 313.855 210.053 315.087C216.774 316.361 245.18 316.371 251.878 315.101C259.199 313.712 266.566 309.955 273.502 304.071L279.502 298.982L279.747 302.279C280.818 316.668 284.285 335.01 287.477 343.18C287.992 344.498 283.035 346.685 259.608 355.476L231.113 366.169L202.807 355.528C187.239 349.675 174.425 344.815 174.331 344.728C174.237 344.64 175.272 340.745 176.632 336.073C179.421 326.488 181.987 311.004 181.996 303.705C182.003 298.18 181.712 298.126 190.154 305.243ZM178.858 365.27C193.99 370.956 195.102 371.539 192.422 372.38C190.816 372.884 185.507 374.867 180.624 376.788L171.746 380.28L162.874 371.45C157.994 366.593 154.002 362.317 154.002 361.947C154.002 361.413 157.149 360.316 161.938 359.18C162.177 359.124 169.791 361.864 178.858 365.27ZM303.559 360.196C306.003 360.811 308.002 361.608 308.002 361.967C308.002 362.325 304.01 366.593 299.13 371.45L290.258 380.28L281.38 376.788C276.497 374.867 271.212 372.892 269.636 372.398C267.019 371.578 268.145 370.97 282.636 365.385C291.362 362.022 298.64 359.227 298.809 359.174C298.978 359.121 301.116 359.58 303.559 360.196ZM147.128 380.702L155.793 389.327L148.031 395.176C138.538 402.329 126.112 415.301 119.545 424.912C116.852 428.853 114.391 432.057 114.075 432.033C110.379 431.752 101.502 429.265 101.502 428.511C101.502 427.392 137.243 372.117 137.982 372.093C138.246 372.084 142.362 375.958 147.128 380.702ZM342.502 399.817C352.402 415.057 360.502 427.967 360.502 428.506C360.502 429.046 357.577 430.084 354.002 430.814C347.652 432.11 347.467 432.088 346.002 429.874C337.042 416.337 321.977 400.386 311.247 393.077L306.109 389.577L314.784 380.827C319.556 376.015 323.695 372.084 323.981 372.093C324.268 372.101 332.602 384.577 342.502 399.817ZM373.002 384.572C402.093 396.827 416.023 407.432 429.512 427.593C439.984 443.245 444.002 458.251 444.002 481.708V495.077H405.502H367.002L366.999 491.827C366.992 485.302 363.809 470.304 360.103 459.344L356.305 448.111L359.904 447.51C372.661 445.379 379.002 439.424 379.002 429.577C379.002 423.833 378.985 423.8 362.21 397.941C354.588 386.191 348.04 376.046 347.66 375.396C347.012 374.288 358.24 378.353 373.002 384.572ZM114.002 375.678C114.002 376.008 107.531 386.246 99.6208 398.428C91.7118 410.61 84.6869 421.654 84.0089 422.97C83.2799 424.389 82.9598 427.563 83.2258 430.762C83.9658 439.688 89.3598 444.904 100.02 447.001C105.201 448.02 106.046 448.474 105.408 449.893C100.606 460.578 95.0018 483.095 95.0018 491.708V495.077H56.5018H18.0018V481.708C18.0018 458.251 22.0198 443.245 32.4918 427.593C47.1508 405.684 60.8838 395.903 98.0018 380.941C112.65 375.036 114.002 374.592 114.002 375.678ZM255.753 386.978C279.648 392.217 299.854 403.457 316.832 420.954C334.936 439.612 345.501 462.251 349.44 490.827L350.026 495.077H341.651H333.277L332.658 489.827C328.463 454.259 303.032 421.794 268.675 408.146C257.092 403.544 249.985 404.157 244.3 410.246C239.366 415.53 239.002 418.09 239.002 447.498C239.002 466.377 239.369 475.788 240.174 477.555C240.818 478.969 242.886 481.078 244.769 482.242C248.395 484.483 254.002 491.458 254.002 493.727C254.002 494.821 249.644 495.077 231.002 495.077C212.36 495.077 208.002 494.821 208.002 493.727C208.002 491.458 213.609 484.483 217.235 482.242C219.118 481.078 221.186 478.969 221.83 477.555C223.335 474.251 223.445 423.211 221.958 417.858C220.728 413.429 216.85 408.567 212.933 406.541C203.085 401.449 178.918 411.805 160.966 428.812C143.528 445.33 131.962 467.65 129.346 489.827L128.727 495.077H120.353H111.978L112.564 490.827C116.502 462.26 127.046 439.66 145.172 420.937C164.933 400.525 191.076 387.782 219.502 384.706C227.375 383.854 247.16 385.094 255.753 386.978ZM205.002 446.542C205.002 468.789 204.901 470.061 203.05 471.051C199.997 472.685 193.196 482.839 190.857 489.256L188.734 495.077H167.868H147.002V491.807C147.002 487.281 150.466 475.215 154.008 467.404C161.225 451.487 175.732 436.516 191.949 428.25C197.531 425.405 202.751 423.077 203.55 423.077C204.778 423.077 205.002 426.695 205.002 446.542ZM269.851 428.098C285.923 436.144 300.749 451.422 307.996 467.404C311.538 475.215 315.002 487.281 315.002 491.807V495.077H294.136H273.27L271.147 489.256C268.808 482.839 262.007 472.685 258.954 471.051C257.103 470.061 257.002 468.789 257.002 446.542C257.002 427.021 257.239 423.077 258.411 423.077C259.187 423.077 264.335 425.337 269.851 428.098Z" fill="#6989AD"/>
</svg>
