<svg width="512" height="513" viewBox="0 0 512 513" fill="none" xmlns="http://www.w3.org/2000/svg">
<path fill-rule="evenodd" clip-rule="evenodd" d="M255.113 1.62171C224.011 8.36871 197.914 29.7937 186.459 57.9857C177.097 81.0257 177.267 109.271 186.895 130.505L189.847 137.015L186.173 137.582C184.153 137.893 180.062 138.582 177.083 139.112C174.104 139.643 171.119 140.077 170.45 140.077C169.782 140.077 167.044 137.085 164.367 133.427C151.274 115.539 127.96 103.248 106.171 102.746C99.285 102.587 98.696 102.747 96.421 105.383L94 108.189V142.733V177.277L85.594 185.626C63.298 207.772 47.827 234.472 39.993 264.327L37.697 273.077H21.772H5.846L2.923 276L0 278.923V314.953C0 340.757 0.339 351.727 1.195 353.605C3.382 358.406 6.326 359.077 25.204 359.077H42.507L44.842 365.827C50.208 381.334 61.347 400.689 73.851 416.232C84.239 429.145 102.241 444.86 115.642 452.713L120 455.267V481.217V507.168L122.455 509.622L124.909 512.077H166.866H208.822L211.411 509C213.925 506.013 214 505.52 214 492V478.077H273.5H333V492.431C333 506.281 333.086 506.878 335.452 509.431L337.905 512.077H379.998H422.091L424.545 509.622L427 507.168L427.002 481.372L427.003 455.577L436.252 449.443C473.267 424.894 499.311 386.117 509.201 340.826C511.168 331.815 511.436 327.738 511.419 307.077C511.396 280.846 510.37 273.902 503.47 253.281C490.335 214.026 463.265 180.838 427.083 159.626C407.828 148.337 389.063 142.122 360.399 137.538L357.297 137.042L360.578 128.81C368.756 108.292 369.304 83.5737 362.046 62.6577C351.476 32.2027 324.368 8.53771 292.518 1.96471C281.769 -0.25429 264.489 -0.41229 255.113 1.62171ZM420.923 2.99971C419.315 4.60771 418 6.87171 418 8.03171C418 10.8647 415.487 16.7377 412.299 21.3547C408.559 26.7687 402.512 30.8567 394.745 33.2197C386.568 35.7067 383.536 38.8307 384.361 43.9157C385.14 48.7117 386.344 49.7297 394.162 52.1967C405.62 55.8137 412.858 62.5057 416.554 72.9027C417.468 75.4737 418.689 78.8557 419.268 80.4187C419.871 82.0487 421.713 83.9257 423.588 84.8197C426.347 86.1357 427.342 86.1777 429.967 85.0907C433.585 83.5917 434.369 82.3307 437.024 73.7347C440.387 62.8467 448.789 55.1847 461.237 51.6547C465.814 50.3577 467.292 49.4127 468.55 46.9797C471.649 40.9877 467.98 35.0457 460.293 33.6037C448.881 31.4627 439.158 21.5557 435.95 8.80071C433.78 0.16971 426.546 -2.62229 420.923 2.99971ZM293 20.0627C319.51 27.2087 340.158 48.0277 347.619 75.1347C350.067 84.0307 350.067 104.123 347.619 113.019C340.047 140.53 319.272 161.214 292.249 168.147C282.658 170.608 266.099 170.839 256.636 168.645C229.506 162.353 208.39 142.436 199.843 115.077C197.872 108.767 197.5 105.435 197.5 94.0767C197.5 78.4927 199.243 71.2777 206.316 57.5767C211.503 47.5297 224.256 34.2757 234.5 28.2857C251.369 18.4217 274.729 15.1377 293 20.0627ZM432.806 37.4607L438.113 42.8337L432.556 48.3897L427 53.9467L421.424 48.3697L415.848 42.7937L421.14 37.4357C424.05 34.4877 426.672 32.0797 426.966 32.0827C427.26 32.0857 429.888 34.5057 432.806 37.4607ZM260 44.5107C247.051 48.1237 234.376 58.1807 228.275 69.6827C225.047 75.7677 222.043 86.1567 222.015 91.3267L222 94.0767H231H240V90.6147C240 85.2767 243.642 76.7647 248.086 71.7167C252.702 66.4717 262.074 61.5097 269.25 60.5107L274 59.8497V51.4627V43.0767L269.25 43.1657C266.637 43.2157 262.475 43.8207 260 44.5107ZM306.683 99.1047C306.356 101.87 304.635 106.858 302.86 110.189C297.832 119.622 288.616 126.015 277.75 127.608L273 128.304V136.691V145.077H277.395C282.897 145.077 293.017 141.959 299.268 138.339C305.52 134.717 313.695 126.543 317.732 119.877C320.833 114.755 325 101.306 325 96.4167C325 94.1397 324.763 94.0767 316.139 94.0767H307.279L306.683 99.1047ZM124.653 124.22C136.685 128.722 147.966 138.764 155.028 151.258C159.614 159.373 161.208 159.954 172.771 157.729C177.642 156.792 185.75 155.538 190.789 154.942L199.952 153.859L208.142 161.468C212.647 165.653 216.708 169.077 217.166 169.077C217.625 169.077 218 169.527 218 170.077C218 170.699 212.333 171.077 203 171.077H188V179.577V188.077H273.5H359V179.577V171.077H343.272H327.544L331.522 167.897C333.71 166.148 337.906 162.288 340.846 159.319L346.192 153.921L356.846 155.049C393.343 158.911 424.596 173.867 450.251 199.749C475.512 225.232 490.372 256.679 494.032 292.4C496.926 320.643 493.257 330.728 479.679 331.854C468.689 332.765 462.353 326.679 461.308 314.206L460.71 307.077H452.236H443.761L444.198 316.327C444.705 327.088 447.337 333.414 454.136 340.213C461.855 347.932 475.626 351.931 485.295 349.261C487.333 348.699 489 348.616 489 349.078C489 351.289 482.297 368.514 478.476 376.124C465.905 401.158 445.096 423.777 421.5 438.056C408.974 445.637 410 442.719 410 470.751V495.077H380H350V480.532C350 466.422 349.927 465.913 347.545 463.532L345.091 461.077H273.22H201.349L198.924 463.655C196.627 466.097 196.483 466.988 196.176 480.655L195.852 495.077H166.426H137V471.013V446.949L134.25 444.404C132.738 443.003 126.55 438.685 120.5 434.807C106.187 425.633 88.349 408.006 78.749 393.549C71.135 382.083 63.41 366.355 59.469 354.291C55.136 341.029 56.241 341.632 35.59 341.263L18 340.948V315.513V290.077H33.389C52.796 290.077 52.177 290.483 55.531 275.577C62.896 242.845 75.624 220.106 99.943 196.233L111.5 184.888L111.802 152.881L112.105 120.874L115.72 121.552C117.709 121.925 121.728 123.126 124.653 124.22ZM129.734 239.115C120.105 241.513 110.86 248.758 106.177 257.577C103.817 262.021 103.52 263.688 103.511 272.577C103.502 280.948 103.867 283.322 105.755 287.153C109.419 294.589 114.498 299.705 121.771 303.285C127.747 306.227 129.364 306.577 136.979 306.577C144.106 306.577 146.424 306.144 151.148 303.929C163.043 298.352 170.06 287.854 170.768 274.577C171.306 264.477 168.864 257.366 162.381 250.156C154.396 241.274 140.26 236.493 129.734 239.115ZM143.298 257.428C147.702 259.268 152.59 265.077 153.409 269.445C154.713 276.392 150.936 284.508 144.961 287.597C140.503 289.902 131.951 289.512 127.898 286.819C123.955 284.199 120 277.04 120 272.522C120 270.8 121.046 267.408 122.325 264.984C126.355 257.345 135.346 254.106 143.298 257.428Z" fill="#6989AD"/>
</svg>
