<svg width="511" height="410" viewBox="0 0 511 410" fill="none" xmlns="http://www.w3.org/2000/svg">
<path fill-rule="evenodd" clip-rule="evenodd" d="M2.189 2.11516L0 4.15416V183.576V362.998L2.189 365.037C4.26 366.967 5.612 367.076 27.481 367.076H50.585L51.844 371.784C58.479 396.59 84.837 413.597 109.67 409.094C118.146 407.557 129.013 402.448 135.178 397.1C141.563 391.563 147.602 382.198 150.108 373.946L152.195 367.076H254.967H357.74L359.013 371.826C365.67 396.671 391.609 413.359 416.932 409.087C436.019 405.868 453.455 390.065 458.043 371.826L459.237 367.076H482.482H505.727L508.364 364.44L511 361.803V298.962V236.121L472.051 158.191C447.344 108.756 432.271 79.6792 430.829 78.6692C428.825 77.2652 422.82 77.0762 380.277 77.0762H332V42.0102C332 6.23416 331.805 4.21316 328.087 1.35816C326.855 0.41216 290.47 0.13216 165.439 0.10816C4.71199 0.0761604 4.373 0.0801601 2.189 2.11516ZM314 136.576V256.076H165H16V136.576V17.0762H165H314V136.576ZM212.5 33.4782C193.937 39.3642 182 55.9932 182 75.9682V80.5862L146.14 116.436L110.281 152.285L102.736 152.561C81.587 153.335 65.08 168.328 62.084 189.484C60.899 197.854 62.264 206.603 65.258 209.826C66.741 211.422 68.489 212.076 71.272 212.076C74.743 212.076 75.97 211.327 81.933 205.571C88.583 199.15 88.716 199.08 92.086 200.202C96.357 201.624 97.451 202.714 98.863 206.96C99.97 210.285 99.877 210.463 93.495 217.229C88.106 222.941 87 224.697 87 227.539C87 235.5 96.186 239.269 110.327 237.111C119.694 235.682 127.194 231.881 134.064 225.082C142.572 216.663 147 205.744 147 193.184V188.566L182.755 152.821L218.51 117.076H224.045C241.097 117.076 256.096 107.642 263.208 92.4452C269.188 79.6672 268.575 61.5952 262.043 58.0992C257.471 55.6522 254.298 56.8312 247.048 63.6692L240.059 70.2622L235.842 68.8572C232.219 67.6492 231.427 66.8572 230.219 63.2342L228.814 59.0172L235.407 52.0282C240.752 46.3612 242 44.4222 242 41.7802C242 34.6942 237.044 32.0422 224 32.1482C219.875 32.1822 214.7 32.7812 212.5 33.4782ZM214.442 70.9952C215.847 75.0752 217.723 79.2181 218.613 80.2001C220.039 81.7771 238.241 88.4192 243.468 89.2702C245.258 89.5622 245.167 89.8492 242.468 92.4392C237.331 97.3682 231.794 99.2662 223.167 99.0562C218.95 98.9532 214.624 98.9162 213.552 98.9732C211.405 99.0872 131.734 177.906 129.506 182.121C128.551 183.927 128.319 186.973 128.705 192.621C129.169 199.415 128.933 201.247 127.084 205.178C125.893 207.708 123.587 211.055 121.96 212.615C119.344 215.121 119 215.225 119 213.516C119 210.943 113.065 193.153 111.297 190.429C109.637 187.869 103.284 185.009 92.061 181.769L83.833 179.394L87.167 176.577C93.323 171.374 98.014 169.955 107.985 170.282L116.981 170.576L157.091 130.576C179.152 108.576 198.004 89.3052 198.986 87.7512C200.455 85.4252 200.679 83.4772 200.257 76.7122C199.812 69.5752 200.038 67.9122 201.982 64.0372C203.213 61.5832 205.384 58.3342 206.807 56.8152L209.394 54.0552L210.642 58.8152C211.327 61.4342 213.038 66.9152 214.442 70.9952ZM456.999 168.073L494 242.071V253V263.928L479.578 264.252C465.911 264.559 465.02 264.703 462.578 267C460.721 268.747 460 270.446 460 273.076C460 275.706 460.721 277.405 462.578 279.152C465.02 281.449 465.911 281.593 479.578 281.9L494 282.224V298.65V315.076H465.092C436.298 315.076 436.166 315.066 431.342 312.599C417.252 305.391 400.142 305.41 385.855 312.65L381.066 315.076H255H128.934L124.145 312.65C109.858 305.41 92.748 305.391 78.658 312.599C73.834 315.066 73.702 315.076 44.908 315.076H16V294.076V273.076L171.25 273.044C291.713 273.02 326.856 272.739 328.087 271.794C332 268.79 332 268.784 332 180.142V94.0762H375.999H419.997L456.999 168.073ZM345.02 103.338C339.966 105.941 339.984 105.709 340.251 163.413L340.5 217.25L343.306 219.663L346.112 222.076H401.419H456.727L459.364 219.44C461.027 217.776 462 215.709 462 213.838C462 210.447 413.953 107.746 410.884 104.576C409.041 102.673 407.454 102.563 378.224 102.319C354.838 102.123 346.908 102.366 345.02 103.338ZM419.36 161.672C430.162 184.55 439 203.675 439 204.172C439 204.696 421.962 205.076 398.5 205.076H358V162.576V120.076H378.86H399.72L419.36 161.672ZM344.888 248.576C343.451 249.356 341.709 251.363 341.017 253.036C339.375 256.998 341.138 261.579 345.091 263.623C348.518 265.395 364.187 265.604 368.958 263.941C375.97 261.496 376.258 251.335 369.397 248.468C364.9 246.589 348.41 246.662 344.888 248.576ZM113.712 327.214C121.732 330.176 129.926 338.424 132.949 346.576C139.057 363.042 131.593 381.233 115.5 389.1C108.275 392.633 97.557 393.014 89.5 390.025C81.264 386.971 73.113 378.824 70.041 370.576C66.98 362.359 67.487 350.855 71.23 343.576C75.462 335.345 83.392 328.639 92 326.011C97.17 324.433 107.774 325.02 113.712 327.214ZM423.5 328.299C434.809 334.129 441.09 343.851 441.768 356.576C442.358 367.66 439.767 374.533 432.112 382.188C418.65 395.65 398.401 395.637 384.92 382.156C367.974 365.21 373.489 336.727 395.5 327.516C403.719 324.076 415.974 324.419 423.5 328.299ZM55.069 336.942C53.984 339.068 52.571 342.893 51.93 345.442L50.763 350.076H33.381H16V341.576V333.076H36.52H57.041L55.069 336.942ZM362.008 337.326C360.926 339.663 359.564 343.489 358.982 345.826L357.923 350.076H255H152.077L151.018 345.826C150.436 343.489 149.074 339.663 147.992 337.326L146.026 333.076H255H363.974L362.008 337.326ZM494 341.576V350.076H476.619H459.237L458.07 345.442C457.429 342.893 456.016 339.068 454.931 336.942L452.959 333.076H473.48H494V341.576ZM87.913 351.358C83.326 354.88 82.918 360.148 86.923 364.153C89.816 367.045 89.967 367.076 101.367 367.076C112.047 367.076 113.09 366.903 115.644 364.706C119.266 361.591 119.435 356.232 116.026 352.603C113.737 350.167 113.218 350.077 101.576 350.108C93.664 350.129 88.953 350.56 87.913 351.358ZM393.974 352.603C390.565 356.232 390.734 361.591 394.356 364.706C396.91 366.903 397.953 367.076 408.633 367.076C420.033 367.076 420.184 367.045 423.077 364.153C426.197 361.033 426.712 358.282 424.837 354.76C422.623 350.604 420.989 350.141 408.424 350.108C396.782 350.077 396.263 350.167 393.974 352.603Z" fill="#6989AD"/>
</svg>
