<svg width="480" height="483" viewBox="0 0 480 483" fill="none" xmlns="http://www.w3.org/2000/svg">
<path fill-rule="evenodd" clip-rule="evenodd" d="M254 1.08224C249.893 2.22824 241.652 6.70124 236.412 10.6282C212.973 28.1942 200 53.6502 200 82.0772C200 106.817 209.345 128.349 227.992 146.577C239.344 157.674 239.442 157.966 239.823 181.734L240.145 201.891L225.323 202.255C204.003 202.778 204.481 202.5 174.985 231.633C153.212 253.14 151.07 254.979 146.054 256.468C143.075 257.353 137.794 258.077 134.318 258.077H128V248.532C128 239.73 127.809 238.795 125.545 236.532L123.091 234.077H64H4.909L2.455 236.532L0 238.986V358.077V477.168L2.455 479.622L4.909 482.077H64H123.091L125.545 479.622C127.813 477.355 128 476.431 128 467.506V457.844L137.75 458.267C149.142 458.76 150.538 459.35 163.874 469.304C169.03 473.153 175.78 477.488 178.874 478.939L184.5 481.577L271.155 481.848L357.811 482.12L363.624 479.945C379.986 473.823 388.368 454.311 381.651 437.983L379.35 432.388L383.745 430.056C399.349 421.778 404.976 399.087 394.925 384.972L392.808 381.998L397.188 378.143C403.89 372.243 407.268 365.215 407.775 356.115C408.347 345.855 405.708 338.829 398.619 331.74L393.442 326.563L396.46 320.663C404.45 305.04 398.51 286.214 382.855 277.543L377.5 274.577L356.718 274.254L335.937 273.931L336.218 217.754C336.545 152.698 335.54 158.765 348.008 146.577C356.23 138.54 362.409 130.28 366.893 121.334C370.228 114.68 374.46 100.654 375.495 92.8272C375.84 90.2142 376.439 88.0772 376.825 88.0772C377.212 88.0772 381.198 95.4322 385.683 104.422C392.629 118.345 394.294 120.956 396.919 122.043C399.418 123.078 400.582 123.078 403.081 122.043C405.702 120.958 407.363 118.362 414.196 104.672L422.231 88.5772L440.865 81.0802C451.114 76.9562 460.512 72.5892 461.75 71.3752C464.35 68.8252 464.681 64.4952 462.514 61.4012C461.56 60.0392 454.089 56.5112 441.646 51.5462L422.264 43.8132L414.531 24.4312C406.583 4.51124 405.001 2.07724 400 2.07724C394.996 2.07724 393.418 4.50824 385.432 24.5242C378.779 41.1992 377.291 44.1342 375.081 44.9362C373.661 45.4512 371.739 46.1812 370.809 46.5592C369.492 47.0942 368.529 46.0702 366.44 41.9112C358.522 26.1462 344.032 11.6662 328.145 3.64224C321.39 0.230245 317.687 0.0832438 314.477 3.09824L312 5.42624V45.6292V85.8322L300.521 94.4552C294.207 99.1972 288.573 103.077 288 103.077C287.427 103.077 281.793 99.1972 275.479 94.4552L264 85.8322V45.6292V5.42624L261.75 3.40024C258.815 0.758244 257.051 0.230244 254 1.08224ZM248.782 94.8312C248.902 94.9712 257.119 101.158 267.042 108.581C280.569 118.7 285.813 122.077 288 122.077C290.185 122.077 295.401 118.722 308.806 108.695C318.645 101.335 326.989 94.5483 327.348 93.6133C327.707 92.6783 328 76.4252 328 57.4952C328 34.8932 328.348 23.0772 329.014 23.0772C331.286 23.0772 346.635 39.8382 349.75 45.7202C351.537 49.0952 353 52.2852 353 52.8092C353 53.3332 349.847 54.9982 345.993 56.5102C338.586 59.4162 336 61.8922 336 66.0772C336 70.5732 338.626 72.7072 349.572 77.1062L360.201 81.3783L359.503 87.8903C358.426 97.9503 356.39 104.759 351.442 114.845C347.586 122.704 345.363 125.668 336.818 134.345C329.371 141.906 325.927 146.274 323.621 151.077L320.5 157.577L320.219 215.827L319.938 274.077H307.969H296V232.532V190.986L293.545 188.532C290.298 185.284 285.702 185.284 282.455 188.532L280 190.986V232.532V274.077H271.056C263.044 274.077 261.819 273.826 259.306 271.664L256.5 269.252L256 213.414L255.5 157.577L252.379 151.077C250.073 146.274 246.629 141.906 239.182 134.345C230.642 125.674 228.411 122.699 224.554 114.845C218.408 102.331 216.614 94.9262 216.614 82.0772C216.614 69.2662 218.416 61.7882 224.448 49.5772C229.213 39.9282 235.412 32.1452 242.863 26.4552L247.5 22.9132L248.032 58.7452C248.324 78.4532 248.662 94.6912 248.782 94.8312ZM404.483 43.3272C406.671 48.9652 409.371 54.4862 410.481 55.5962C411.591 56.7062 417.113 59.4062 422.75 61.5942C428.387 63.7832 432.994 65.7992 432.986 66.0752C432.979 66.3512 427.916 68.6022 421.736 71.0772L410.5 75.5772L405.5 85.3252C402.75 90.6862 400.275 95.0723 400 95.0723C399.725 95.0723 397.25 90.6862 394.5 85.3252L389.5 75.5772L382.5 72.7292C378.65 71.1622 373.475 68.9912 371 67.9032L366.5 65.9272L377.343 61.5472C383.306 59.1392 388.79 56.6662 389.53 56.0522C390.269 55.4392 392.815 50.0212 395.187 44.0132C397.559 38.0052 399.726 33.0872 400.002 33.0832C400.278 33.0802 402.294 37.6892 404.483 43.3272ZM154.702 108.327C153.488 109.564 149.121 118.973 144.997 129.235L137.5 147.892L118.236 155.586C98.439 163.492 96 165.082 96 170.077C96 175.079 98.433 176.66 118.375 184.616L137.778 192.358L145.777 208.55C152.638 222.437 154.22 224.925 156.888 226.031C159.43 227.084 160.573 227.082 163.128 226.024C165.821 224.909 167.351 222.499 174.101 208.748L181.944 192.768L201.222 184.93C212.238 180.45 221.25 176.184 222.25 174.973C224.689 172.021 224.465 167.442 221.75 164.779C220.512 163.565 211.104 159.198 200.842 155.074L182.185 147.577L174.491 128.313C169.559 115.964 166.036 108.515 164.676 107.563C161.582 105.396 157.252 105.727 154.702 108.327ZM164.483 147.327C166.671 152.964 169.371 158.486 170.481 159.596C171.591 160.706 177.113 163.406 182.75 165.594C188.387 167.783 192.994 169.799 192.986 170.075C192.979 170.351 187.916 172.602 181.736 175.077L170.5 179.577L165.5 189.325C162.75 194.686 160.264 199.073 159.976 199.075C159.687 199.076 157.337 194.82 154.752 189.616C149.584 179.213 149.664 179.279 136.25 174.111C131.713 172.362 128 170.564 128 170.114C128 169.665 132.738 167.393 138.528 165.066C144.319 162.738 149.656 159.979 150.388 158.933C151.12 157.888 153.469 152.543 155.608 147.055C157.747 141.567 159.723 137.077 160 137.077C160.277 137.077 162.294 141.69 164.483 147.327ZM411.324 147.563C409.962 148.517 406.434 155.988 401.469 168.431L393.736 187.813L374.354 195.546C354.434 203.494 352 205.076 352 210.077C352 215.081 354.431 216.659 374.436 224.64L393.9 232.406L401.815 248.564C408.643 262.503 410.161 264.901 412.865 266.021C415.433 267.085 416.566 267.085 419.128 266.024C421.821 264.909 423.351 262.499 430.101 248.748L437.944 232.768L457.222 224.93C468.238 220.45 477.25 216.184 478.25 214.973C480.689 212.021 480.465 207.442 477.75 204.779C476.512 203.565 467.104 199.198 456.842 195.074L438.185 187.577L430.491 168.313C422.585 148.516 420.995 146.077 416 146.077C414.595 146.077 412.49 146.746 411.324 147.563ZM420.483 187.327C422.671 192.964 425.371 198.486 426.481 199.596C427.591 200.706 433.113 203.406 438.75 205.594C444.387 207.783 448.994 209.799 448.986 210.075C448.979 210.351 443.916 212.602 437.736 215.077L426.5 219.577L421.5 229.325C418.75 234.686 416.264 239.073 415.976 239.075C415.687 239.076 413.337 234.82 410.752 229.616C405.584 219.213 405.664 219.279 392.25 214.111C387.712 212.362 384 210.564 384 210.114C384 209.665 388.738 207.393 394.528 205.066C400.319 202.738 405.656 199.979 406.388 198.933C407.12 197.888 409.469 192.543 411.608 187.055C413.747 181.567 415.723 177.077 416 177.077C416.277 177.077 418.294 181.69 420.483 187.327ZM240.205 245.908L240.5 273.739L243.526 278.632C245.4 281.66 248.417 284.677 251.446 286.551L256.34 289.577L315.098 290.077C372.754 290.568 373.909 290.616 376.678 292.669C386.494 299.946 386.495 312.207 376.679 319.485C373.967 321.496 372.424 321.596 336.839 322.077L299.82 322.577L297.91 324.938C295.25 328.225 295.475 332.643 298.455 335.622L300.909 338.077H339.743C378.026 338.077 378.639 338.109 383.038 340.327C387.841 342.749 392 349.13 392 354.077C392 359.024 387.841 365.405 383.038 367.827C378.639 370.045 378.026 370.077 339.743 370.077H300.909L298.455 372.532C295.207 375.779 295.207 380.375 298.455 383.622L300.909 386.077H335.743C369.895 386.077 370.662 386.121 374.98 388.327C381.403 391.609 383.5 394.993 383.5 402.077C383.5 408.4 381.863 411.595 376.617 415.515C373.977 417.488 372.255 417.599 336.839 418.077L299.821 418.577L297.91 420.938C295.25 424.225 295.475 428.643 298.455 431.622L300.909 434.077H327.243C352.58 434.077 353.743 434.162 357.98 436.327C364.403 439.609 366.5 442.993 366.5 450.077C366.5 457.171 364.404 460.544 357.941 463.848L353.5 466.118L271 465.848C176.595 465.538 188.17 466.825 172.126 454.85C157.94 444.261 153.937 442.703 139.75 442.245L128 441.866V357.972V274.077H136.843C146.389 274.077 154.416 271.982 160.289 267.958C162.055 266.747 173.625 255.748 186 243.515C211.968 217.846 211.257 218.263 229.205 218.147L239.911 218.077L240.205 245.908ZM112 358.077V466.077H64H16V358.077V250.077H64H112V358.077ZM53.158 404.645C44.115 409.219 39.441 417.678 40.196 428.106C40.751 435.786 44.817 442.451 51.448 446.551C55.781 449.229 57.223 449.577 64 449.577C70.777 449.577 72.219 449.229 76.552 446.551C79.586 444.675 82.598 441.663 84.474 438.629C87.152 434.296 87.5 432.854 87.5 426.077C87.5 419.3 87.152 417.858 84.474 413.525C77.893 402.882 64.278 399.021 53.158 404.645ZM69.077 421C70.685 422.608 72 424.892 72 426.077C72 428.861 66.784 434.077 64 434.077C61.216 434.077 56 428.861 56 426.077C56 423.293 61.216 418.077 64 418.077C65.185 418.077 67.469 419.392 69.077 421Z" fill="#6989AD"/>
</svg>
