<svg width="513" height="494" viewBox="0 0 513 494" fill="none" xmlns="http://www.w3.org/2000/svg">
<path fill-rule="evenodd" clip-rule="evenodd" d="M70 2.15391C67.525 3.27291 63.982 5.62491 62.128 7.38191C58.262 11.0419 54.024 19.3199 54.01 23.2389L54 25.9029L37.75 26.2389C22.208 26.5599 21.245 26.6999 15.639 29.4529C9.57203 32.4319 4.73403 37.8599 2.32603 44.3909C0.713034 48.7659 0.472034 425.22 2.08003 428.225C4.05703 431.919 9.02003 433.075 22.896 433.075H35.856L36.178 448.164L36.5 463.253L39.306 465.664L42.112 468.075H160.036H277.961L283.231 471.442C297.049 480.271 316.368 488.003 334 491.763C346.125 494.348 379.875 494.348 392 491.763C422.19 485.326 447.606 471.583 469.018 450.12C490.458 428.629 503.46 404.709 510.255 374.258C513.422 360.067 513.394 329.074 510.202 314.387C500.458 269.56 471.888 231.683 432.549 211.436L425.046 207.575L424.773 126.575L424.5 45.5749L422.289 41.4409C419.294 35.8409 414.441 31.1749 409.011 28.6719C405.16 26.8979 402.122 26.5429 388.25 26.2479C373.624 25.9369 372 25.7289 372 24.1669C372 20.4489 368.723 13.1109 365.251 9.05591C357.738 0.276909 344.773 -2.47409 334.5 2.52991C328.247 5.57591 327.105 6.52691 323.192 11.9499C321.171 14.7529 319.803 18.0789 319.389 21.1999L318.742 26.0749H301.39H284.038L283.45 23.3249C281.396 13.7279 276.32 6.46991 268.803 2.38691C264.161 -0.135092 249.839 -0.135092 245.197 2.38691C237.68 6.46991 232.604 13.7279 230.55 23.3249L229.962 26.0749H212.61H195.258L194.611 21.1999C194.197 18.0789 192.829 14.7529 190.808 11.9499C186.895 6.52691 185.753 5.57591 179.5 2.52991C169.227 -2.47409 156.262 0.276909 148.749 9.05591C145.245 13.1489 142 20.4559 142 24.2529C142 25.9459 140.767 26.0749 124.628 26.0749H107.256L106.601 21.9829C104.589 9.39991 93.51 0.118908 80.5 0.118908C76.607 0.118908 72.92 0.832909 70 2.15391ZM85.087 19.3569C88.405 21.9039 89 24.8939 89 39.0089V53.0749H80.5H72V38.2109C72 23.4849 72.024 23.3229 74.636 20.7109C77.502 17.8459 82.307 17.2229 85.087 19.3569ZM174.545 20.5299C176.934 22.9179 177 23.3889 177 38.0299V53.0749H168.428H159.856L160.178 37.9859L160.5 22.8969L163.306 20.4859C166.973 17.3349 171.368 17.3519 174.545 20.5299ZM262.694 20.4869L265.5 22.8989V37.7369V52.5749H257H248.5V37.7369V22.8989L251.306 20.4869C252.87 19.1419 255.389 18.0749 257 18.0749C258.611 18.0749 261.13 19.1419 262.694 20.4869ZM350.694 20.4859L353.5 22.8969L353.822 37.9859L354.144 53.0749H345.572H337V38.0299C337 23.3889 337.066 22.9179 339.455 20.5299C342.632 17.3519 347.027 17.3349 350.694 20.4859ZM54 54.5189C54 64.1149 54.196 65.1909 56.411 67.7689L58.823 70.5749L78.557 70.8859C106.339 71.3229 107 70.9389 107 54.3519V44.0749H124.5H142V53.6249C142 70.6599 143.221 71.3829 171.172 70.8989C189.277 70.5849 189.921 70.5019 192.39 68.1809C194.763 65.9489 194.954 65.0709 195.218 55.1809L195.5 44.5749L212.75 44.3009L230 44.0279V53.1499C230 64.0079 231.623 68.3989 236.23 70.0049C240.249 71.4059 273.751 71.4059 277.77 70.0049C282.377 68.3989 284 64.0079 284 53.1499V44.0279L301.25 44.3009L318.5 44.5749L318.782 55.1809C319.046 65.0709 319.237 65.9489 321.61 68.1809C324.079 70.5019 324.723 70.5849 342.828 70.8989C370.779 71.3829 372 70.6599 372 53.6249V44.0749H384.851C391.919 44.0749 399.132 44.5739 400.881 45.1829C406.526 47.1509 407 49.4229 407 74.5249V97.0749H213H19V73.7099C19 42.7029 17.713 44.4479 40.75 44.2109L54 44.0749V54.5189ZM407 157.692V200.308L404.75 199.775C384.306 194.935 382.577 194.725 363 194.705C346.61 194.689 341.875 195.037 333.312 196.887C273.03 209.908 228.637 254.394 215.37 315.075C212.711 327.237 212.706 360.877 215.362 373.075C217.977 385.087 221.615 396.205 226.119 405.955C228.254 410.575 230 414.517 230 414.715C230 414.913 182.525 415.075 124.5 415.075H19V265.075V115.075H213H407V157.692ZM70 152.154C52.293 160.16 48.443 183.342 62.689 196.184C68.458 201.384 74.575 203.463 82.282 202.845C92.27 202.043 99.701 197.063 104.717 187.812C107.374 182.912 107.151 169.853 104.32 164.575C99.474 155.538 90.545 150.119 80.5 150.119C76.607 150.119 72.92 150.833 70 152.154ZM159.748 151.502C140.827 158.254 136.117 183.603 151.358 196.65C168.509 211.33 194.922 199.171 194.968 176.575C195.005 158.432 176.748 145.435 159.748 151.502ZM248.453 151.401C235.587 156.358 228.375 168.931 231.038 181.759C233.553 193.874 244.76 203.075 257 203.075C261.624 203.075 264.114 202.405 269.073 199.825C290.002 188.939 287.551 158.974 265.101 151.245C260.84 149.778 252.461 149.857 248.453 151.401ZM84.343 169.185C86.752 170.283 89 173.85 89 176.575C89 179.495 86.638 182.982 83.89 184.121C73.972 188.229 67.194 174.62 76.5 169.283C79.053 167.819 81.282 167.791 84.343 169.185ZM174.354 170.527C178.617 174.478 177.902 181.04 172.928 183.612C168.951 185.669 166.536 185.44 163.356 182.705C161.257 180.899 160.6 179.438 160.6 176.575C160.6 169.213 168.967 165.534 174.354 170.527ZM261.674 169.559C269.384 174.959 263.115 187.582 254.25 184.507C250.408 183.175 247.84 177.832 249.186 173.971C250.42 170.431 253.543 168.075 257 168.075C258.405 168.075 260.509 168.743 261.674 169.559ZM377.5 213.153C447.22 221.461 498.234 281.221 494.719 350.469C491.629 411.352 449.169 460.868 389 473.754C377.08 476.308 348.96 476.312 337 473.763C293.116 464.41 257.484 435.083 241.029 394.776C226.493 359.167 227.699 320.901 244.439 286.575C269.039 236.131 322.548 206.605 377.5 213.153ZM75.326 221.135C69.696 222.227 65.772 224.379 61.627 228.647C56.941 233.472 54.71 238.461 54.198 245.262C52.367 269.545 81.923 283.085 99.153 265.856C103.951 261.057 106.316 255.667 106.806 248.408C107.943 231.579 92.126 217.876 75.326 221.135ZM163.184 221.159C150.634 223.584 140.963 236.74 142.289 249.584C143.735 263.6 154.846 273.544 169 273.491C179.789 273.451 188.542 267.696 193.11 257.64C195.385 252.63 195.59 242.422 193.514 237.455C188.575 225.633 175.734 218.734 163.184 221.159ZM350 230.184C316.053 234.03 285.114 253.248 266.464 282.075C260.666 291.037 257.759 297.063 254.164 307.575C231.533 373.743 274.27 445.466 343.5 457.504C380.972 464.019 420.153 450.89 446.501 422.989C469.147 399.008 480.764 365.027 477.18 333.25C475.72 320.305 474.029 313.433 469.338 301.382C459.451 275.981 439.012 253.868 413.993 241.504C400.42 234.796 390.127 231.811 374.789 230.136C363.951 228.952 360.824 228.958 350 230.184ZM86.545 241.53C91.754 246.738 87.999 255.275 80.5 255.275C77.485 255.275 76.036 254.656 74.284 252.619C69.475 247.029 73.125 239.075 80.5 239.075C82.979 239.075 84.851 239.835 86.545 241.53ZM174.927 241.71C180.297 248.536 174.077 257.741 165.998 254.924C162.368 253.659 159.578 248.894 160.444 245.442C162.092 238.876 170.911 236.604 174.927 241.71ZM354 257.852C354 268.703 354.883 270.955 359.96 273.059C362.405 274.071 363.597 274.071 366.047 273.055C370.66 271.145 372 267.534 372 257.011V247.848L376.75 248.516C415.577 253.976 448.093 283.889 456.921 322.268C457.972 326.837 459.131 333.613 459.496 337.325L460.159 344.075H450.53C444.015 344.075 439.982 344.55 438.059 345.545C434.453 347.409 432.729 351.999 434.127 356.009C435.816 360.855 438.805 362.075 448.984 362.075H458.038L457.431 364.825C453.293 383.562 443.69 400.426 429.371 414.101C414.44 428.361 397.457 436.752 376.975 439.99L372 440.776V431.36C372 418.801 369.968 415.139 363 415.139C356.032 415.139 354 418.801 354 431.358V440.772L348.25 439.907C311.403 434.36 279.91 406.486 269.939 370.595C268.873 366.756 268 363.269 268 362.845C268 362.422 272.209 362.075 277.354 362.075C285.897 362.075 286.937 361.862 289.354 359.623C291.338 357.784 291.992 356.22 291.968 353.373C291.907 346.046 288.429 344.075 275.566 344.075C264.492 344.075 265.182 345.102 267.082 331.439C272.715 290.944 303.119 258.18 343 249.628C354.7 247.119 354 246.596 354 257.852ZM71.463 292.614C53.893 299.081 48.357 321.48 60.891 335.386C71.074 346.682 89.279 346.946 99.693 335.947C111.865 323.093 108.186 302.045 92.379 294.109C86.42 291.117 77.3 290.465 71.463 292.614ZM161.365 292.164C155.587 293.839 148.814 299.313 145.767 304.772C140.042 315.031 141.265 326.551 149.016 335.356C154.659 341.767 161.408 344.442 170.46 343.854C178.392 343.34 182.386 341.622 187.467 336.542C192.479 331.529 194.235 327.519 194.785 319.83C195.386 311.432 193.334 305.478 187.751 299.421C181.377 292.505 170.504 289.515 161.365 292.164ZM412.249 300.738C411.561 301.015 400.782 309.755 388.295 320.159C375.808 330.563 365.293 339.075 364.928 339.075C364.563 339.075 361.429 334.775 357.964 329.52C354.499 324.265 350.869 319.54 349.897 319.02C348.926 318.5 346.567 318.075 344.655 318.075C342 318.075 340.566 318.802 338.589 321.152C337.165 322.844 336 325.288 336 326.583C336 329.373 354.767 358.098 358.128 360.452C361.122 362.549 364.917 362.516 368.027 360.365C369.387 359.425 382.474 348.667 397.109 336.459C413.629 322.679 423.955 313.375 424.345 311.919C425.478 307.688 425.039 305.96 422.077 302.998C419.292 300.213 415.634 299.372 412.249 300.738ZM86.75 312.668C93.726 320.476 81.871 331.037 74.455 323.62C71.602 320.768 71.26 316.576 73.607 313.226C76.919 308.497 82.8 308.248 86.75 312.668ZM171.603 310.114C175.275 311.51 176.93 313.903 176.968 317.87C177.011 322.314 173.239 326.086 168.795 326.043C164.695 326.004 162.306 324.251 160.916 320.264C159.582 316.438 161.319 312.231 165 310.369C168.052 308.826 168.199 308.82 171.603 310.114ZM245.545 437.825C247.627 440.438 250.923 444.263 252.868 446.325L256.406 450.075H155.203H54V441.575V433.075H147.88H241.759L245.545 437.825Z" fill="#6989AD"/>
</svg>
