<svg width="504" height="445" viewBox="0 0 504 445" fill="none" xmlns="http://www.w3.org/2000/svg">
<path fill-rule="evenodd" clip-rule="evenodd" d="M241.5 1.01186C239.85 1.42386 232.65 4.69385 225.5 8.27785L212.5 14.7949L204.546 10.9349C200.172 8.81286 195.18 7.07586 193.454 7.07586C186.038 7.07586 177.114 15.2039 176.986 22.0759C176.961 23.4509 179.935 35.1529 183.596 48.0799L190.252 71.5839L175.128 101.82C142.819 166.411 121.778 213.281 107.563 252.328C106.235 255.976 105.214 257.231 103.167 257.73C101.7 258.087 96.563 260.078 91.75 262.153L83 265.926V261.713C83 255.652 79.367 249.074 74.5 246.324C70.56 244.097 70.047 244.067 40.321 244.319C11.479 244.565 10.018 244.669 7.321 246.668C5.77 247.819 3.488 250.248 2.25 252.066L0 255.372V344.576V433.78L2.253 437.124C3.493 438.963 6.08 441.392 8.003 442.522C11.321 444.471 13.038 444.576 41.5 444.576C69.82 444.576 71.696 444.462 75 442.548C79.582 439.893 82.171 434.412 82.766 426.108L83.246 419.391L93.103 416.14C108.725 410.989 110.283 411.044 144.5 417.957C198.458 428.857 253.194 437.159 271 437.143C288.794 437.126 291.965 436.118 323.073 420.582C351.283 406.493 386.646 386.392 400.5 376.571C412.091 368.354 420.795 357.016 422.503 347.909C423.109 344.68 422.42 340.519 420.501 335.826C419.828 334.178 421.988 334.076 457.744 334.076C496.857 334.076 501.06 333.701 503.021 330.037C503.644 328.872 504 284.373 504 207.642C504 88.4088 503.978 87.0539 502 85.0759C500.032 83.1079 498.667 83.0759 417.691 83.0759C348.233 83.0759 335.079 83.2969 333.441 84.4939C331.645 85.8049 331.463 87.6159 331 108.744L330.5 131.576L315.415 101.329L300.33 71.0818L306.755 46.9639C313.746 20.7169 313.915 18.5049 309.341 13.0699C303.27 5.85385 296.242 5.25885 285.007 11.0099L277.514 14.8459L264.007 8.08786C249.602 0.880857 246.243 -0.175144 241.5 1.01186ZM259 24.0759C276.14 32.6619 278.41 32.8999 288.266 27.1409C291.97 24.9759 294.997 23.7389 294.992 24.3909C294.988 25.0429 292.738 34.0629 289.992 44.4369C287.247 54.8099 285 63.4719 285 63.6869C285 63.9009 267.019 64.0759 245.042 64.0759H205.085L203.101 57.3259C196.988 36.5279 193.871 24.8719 194.305 24.4379C194.574 24.1679 197.98 25.5519 201.873 27.5119C212.074 32.6489 214.082 32.4139 230.629 24.1429C238.258 20.3289 244.618 17.1789 244.763 17.1429C244.908 17.1059 251.315 20.2259 259 24.0759ZM216 126.126C216 174.623 216.188 176.783 220.545 178.455C222.945 179.376 226.884 179.208 228.961 178.097C232.699 176.097 233 172.167 233 125.427V80.0759H244.5H256V103.621V127.167L258.573 129.74C260.718 131.884 261.76 132.216 264.823 131.725C271.789 130.61 272 129.778 272 103.465V80.0759H278.856H285.713L307.856 124.669L330 169.263L330.044 245.919C330.068 288.08 330.464 324.525 330.924 326.906C331.384 329.288 332.286 331.763 332.928 332.406C333.65 333.131 339.311 333.766 347.797 334.076L361.5 334.576L350.812 338.831C336.155 344.667 319.069 349.434 303 352.173C291.534 354.127 285.959 354.473 266 354.469C231.616 354.463 225.545 352.887 225.545 343.965C225.545 340.688 226.123 339.367 228.419 337.392C231.187 335.011 231.607 334.951 239.896 335.748C244.628 336.204 256.63 336.532 266.566 336.479C282.04 336.396 285.653 336.072 291.749 334.221C300.549 331.548 306.663 327.02 310.227 320.537C316.846 308.495 311.454 291.48 299 285.111C292.038 281.55 269.081 274.2 249.5 269.262C196.547 255.908 164.667 251.175 137.236 252.596L123.971 253.282L124.88 250.929C125.38 249.635 127.63 243.751 129.88 237.854C140.566 209.851 158.726 169.889 185.561 115.326L202.898 80.0759H209.449H216V126.126ZM488 114.576V130.076H417.5H347V114.576V99.0759H417.5H488V114.576ZM488 160.576V176.076H417.5H347V160.576V145.076H417.5H488V160.576ZM488 208.576V224.076H417.5H347V208.576V193.076H417.5H488V208.576ZM190 220.534V229.076H198.04H206.081L205.79 220.826L205.5 212.576L197.75 212.284L190 211.992V220.534ZM237.706 212.703C237.318 213.091 237 216.934 237 221.243V229.076H245.04H253.081L252.79 220.826L252.5 212.576L245.456 212.286C241.582 212.127 238.095 212.315 237.706 212.703ZM284.667 212.743C284.3 213.109 284 216.934 284 221.243V229.076H292H300V220.576V212.076H292.667C288.633 212.076 285.033 212.376 284.667 212.743ZM488 255.576V271.076H417.5H347V255.576V240.076H417.5H488V255.576ZM67 344.076V428.076H41.5H16V344.076V260.076H41.5H67V344.076ZM181.426 271.076C209.711 275.341 255.799 285.94 274.765 292.543C291.189 298.261 293.821 299.634 295.631 303.429C297.581 307.517 296.878 312.972 294.074 315.509C289.148 319.967 269.002 321.831 245.847 319.971C228.768 318.599 225.333 319.029 218.94 323.337C217.082 324.589 214.204 327.811 212.543 330.497C210.059 334.515 209.458 336.687 209.152 342.744C208.828 349.149 209.129 350.82 211.468 355.599C216.137 365.142 222.186 368.242 239.555 369.99C287.218 374.787 335.749 365.713 379.5 343.825C392.684 337.23 396.637 336.517 402.174 339.738C411.025 344.888 403.411 355.672 381 369.731C356.155 385.317 311.678 409.159 293.552 416.609C280.965 421.782 271.958 422.173 246 418.669C216.7 414.715 174.539 407.595 146.5 401.868C116.914 395.824 106.514 395.215 94 398.794C89.875 399.974 85.713 401.243 84.75 401.615C83.095 402.253 83.002 399.064 83.045 342.933L83.089 283.576L92.295 279.317C104.018 273.893 110.796 271.624 119.526 270.201C123.362 269.576 127.625 268.871 129 268.635C135.244 267.563 168.349 269.104 181.426 271.076ZM488 301.576V317.076H417.5H347V301.576V286.076H417.5H488V301.576Z" fill="#6989AD"/>
</svg>
