<svg width="461" height="514" viewBox="0 0 461 514" fill="none" xmlns="http://www.w3.org/2000/svg">
<path fill-rule="evenodd" clip-rule="evenodd" d="M224.499 2.9169C219.362 6.0549 219.012 7.7689 218.745 31.0759L218.499 52.5759L214.999 52.8469C197.414 54.2059 173.831 59.1789 155.999 65.2879C92.9076 86.9039 39.9776 137.643 16.2086 199.291C5.38559 227.361 0.963591 251.685 0.976591 283.076C1.02759 400.819 89.3356 499.33 206.21 512.021C218.663 513.374 242.335 513.374 254.788 512.021C307.068 506.344 357.032 482.339 394.001 445.138C431.375 407.53 454.065 360.15 460.065 307.189C461.602 293.62 460.747 258.766 458.566 246.076C452.834 212.736 441.163 182.998 423.33 156.293C413.415 141.447 409.432 136.517 397.112 123.839C386.534 112.953 383.796 111.655 377.612 114.589C373.513 116.535 369.999 121.567 369.999 125.494C369.999 129.032 372.092 132.891 376.01 136.576C389.217 148.999 406.887 173.669 415.982 192.386C449.849 262.078 442.04 343.987 395.613 406.046C363.075 449.538 315.237 478.069 260.465 486.647C245.318 489.02 216.284 489.036 201.499 486.681C157.097 479.607 120.33 461.58 89.1676 431.604C70.2406 413.397 57.4726 396.071 46.4076 373.576C24.4896 329.016 19.3336 277.893 31.9796 230.494C47.3336 172.94 87.3496 124.085 140.403 98.1249C163.596 86.7749 185.902 80.5079 213.249 77.6579L218.999 77.0589V99.1989V121.34L222.57 124.708C225.553 127.521 226.895 128.076 230.717 128.076C235.091 128.076 237.038 126.853 274.775 100.389C299.345 83.1579 314.983 71.5449 316.18 69.6389C318.642 65.7199 318.041 59.8189 314.831 56.3839C312.819 54.2309 295.252 42.0249 246.238 8.7259C233.881 0.331903 230.297 -0.626098 224.499 2.9169ZM282.999 64.0669C282.999 64.8469 244.59 92.0759 243.49 92.0759C243.22 92.0759 242.999 79.5199 242.999 64.1749V36.2729L262.999 49.7479C273.999 57.1599 282.999 63.6029 282.999 64.0669ZM205.541 142.805C199.266 144.399 195.999 150.438 195.999 160.443C195.999 163.922 195.707 170.876 195.351 175.895L194.703 185.021L185.586 189.457C180.572 191.896 173.734 195.905 170.391 198.366L164.312 202.841L148.958 194.959C140.514 190.623 132.41 187.076 130.95 187.076C125.179 187.076 122.013 190.807 109.292 212.605C92.1686 241.945 92.1706 241.955 114.323 256.032L128.683 265.158L127.745 270.867C127.228 274.007 127.078 282.022 127.41 288.679L128.015 300.782L114.515 309.511C107.09 314.312 100.112 319.389 99.0066 320.793C94.8206 326.115 95.9366 329.749 108.305 351.079C122.416 375.413 122.489 375.523 125.56 376.922C130.847 379.331 134.608 378.317 149.785 370.395L164.499 362.715L169.999 366.919C173.024 369.232 179.876 373.25 185.226 375.85L194.953 380.576L195.029 384.576C195.271 397.296 196.831 414.896 197.893 416.88C198.572 418.146 200.56 420.057 202.313 421.126C205.248 422.916 207.514 423.069 231.101 423.072C256.111 423.076 256.782 423.023 260.101 420.791C264.588 417.774 265.874 413.632 265.943 401.973C265.974 396.691 266.277 389.713 266.616 386.467L267.233 380.564L276.115 376.24C280.999 373.862 287.809 369.844 291.248 367.312L297.499 362.708L312.213 370.392C327.399 378.322 331.149 379.332 336.45 376.916C339.405 375.57 341.229 372.793 354.888 348.859C365.913 329.54 366.977 325.86 363 320.804C361.901 319.407 354.923 314.311 347.494 309.481L333.987 300.699L334.59 288.638C334.921 282.004 334.77 274.007 334.253 270.867L333.315 265.158L347.675 256.032C369.673 242.053 369.627 242.446 352.749 213.008C339.982 190.74 336.916 187.076 331.048 187.076C329.588 187.076 321.496 190.617 313.066 194.945L297.738 202.814L288.592 196.613C283.562 193.203 276.645 189.327 273.222 187.999C268.55 186.187 266.978 185.087 266.915 183.581C265.6 152.252 265.498 151.222 263.421 148.391C259.096 142.493 256.869 142.068 230.999 142.194C218.074 142.257 206.618 142.532 205.541 142.805ZM242.07 175.326C242.109 179.863 242.457 187.044 242.843 191.284C243.796 201.746 245.414 203.743 256.099 207.64C267.486 211.794 271.515 214.005 280.137 220.829C290.799 229.267 292.13 230.076 295.355 230.076C297.01 230.076 304.244 226.983 312.127 222.904C319.751 218.959 326.154 215.922 326.358 216.154C327.495 217.454 335.998 232.918 335.99 233.674C335.985 234.17 330.36 238.142 323.49 242.501C306.895 253.031 306.19 254.216 308.685 267.412C310.203 275.444 310.156 281.168 308.383 304.135L307.8 311.694L311.154 314.635C312.998 316.253 319.503 320.679 325.609 324.472L336.71 331.369L331.644 340.222C328.858 345.092 326.217 349.076 325.774 349.076C325.332 349.076 319.133 346.151 311.999 342.576C294.367 333.741 292.865 333.798 281.676 343.731C275.749 348.993 268.417 353.255 259.557 356.59C249.396 360.415 245.511 362.657 244.25 365.426C243.621 366.806 242.79 374.717 242.404 383.006L241.702 398.076H230.851H219.999L219.936 390.326C219.901 386.064 219.516 378.843 219.08 374.281C218.119 364.217 215.964 361.371 207.232 358.632C198.31 355.833 191.044 351.789 180.238 343.611C167.447 333.929 167.101 333.917 150.073 342.576C143.043 346.151 136.869 349.076 136.355 349.076C135.84 349.076 133.137 345.087 130.348 340.212L125.276 331.348L137.686 323.558C144.511 319.274 151.022 314.6 152.154 313.172C154.374 310.373 154.36 307.848 152.034 291.093C151.312 285.891 151.316 281.165 152.048 275.593C154.182 259.341 154.281 257.172 153.029 254.15C152.116 251.944 148.381 248.961 138.896 242.864C131.806 238.305 126.004 234.186 126.002 233.71C125.997 232.283 135.436 216.09 136.277 216.083C136.705 216.079 143.042 219.226 150.361 223.076C157.679 226.926 164.889 230.076 166.383 230.076C169.703 230.076 173.83 228.03 176.501 225.06C180.85 220.224 191.643 213.609 202.748 208.972C209.169 206.291 215.291 203.229 216.352 202.167C218.491 200.029 219.824 190.044 219.936 175.326L219.999 167.076H230.999H241.999L242.07 175.326ZM218.999 228.643C208.459 230.925 200.433 235.471 191.904 243.99C180.403 255.476 175.673 267.085 175.75 283.639C175.818 298.526 181.215 311.292 191.999 322.076C202.63 332.707 215.49 338.042 230.539 338.064C249.446 338.092 266.026 329.506 276.409 314.311C283.145 304.452 286.188 294.932 286.226 283.593C286.281 267.409 281.058 254.823 269.62 243.573C255.644 229.828 237.812 224.569 218.999 228.643ZM242.432 254.137C257.58 259.804 265.802 278.031 260.065 293.223C251.791 315.132 223.957 320.773 208.243 303.724C196.889 291.408 197.549 272.242 209.734 260.4C217.943 252.421 231.108 249.9 242.432 254.137ZM49.7616 272.641C43.9696 275.784 43.0426 281.396 45.0436 301.22C51.5356 365.544 91.2196 422.304 149.499 450.623C163.616 457.482 178.154 462.454 193.941 465.82C205.485 468.281 208.396 468.501 229.999 468.537C248.823 468.568 255.489 468.205 263.499 466.71C346.254 451.268 407.805 384.742 416.941 300.865C418.4 287.47 418.266 280.493 416.482 277.043C413.274 270.839 403.57 269.042 398.105 273.64C394.429 276.733 393.012 281.35 393.005 290.254C392.992 305.576 387.885 328.528 380.737 345.394C354.136 408.157 290.929 448.082 223.464 444.736C140.176 440.606 74.2606 375.614 69.1126 292.547C68.6686 285.381 67.7896 278.553 67.1586 277.375C64.0156 271.502 55.9206 269.299 49.7616 272.641Z" fill="black"/>
</svg>
