<svg width="512" height="439" viewBox="0 0 512 439" fill="none" xmlns="http://www.w3.org/2000/svg">
<path fill-rule="evenodd" clip-rule="evenodd" d="M353.306 2.49112L350.5 4.90413L350.227 87.4911L349.955 170.078H330.977H312V139.064C312 116.202 311.676 107.532 310.766 106.075C309.287 103.706 181.802 46.7411 178.002 46.7511C174.263 46.7601 46.138 103.952 44.971 106.133C44.403 107.194 44 120.839 44 139.012V170.078H24.455C5.036 170.078 4.893 170.094 2.455 172.533L0 174.987V304.078V433.169L2.455 435.623L4.909 438.078H256H507.091L509.545 435.623L512 433.169V304.078V174.987L509.545 172.533L507.091 170.078H485.045H463V87.5331V4.98713L460.545 2.53313L458.091 0.078125H407.101H356.112L353.306 2.49112ZM446.786 26.3281L447.072 36.0781H425.671C405.534 36.0781 404.114 36.2001 401.635 38.1511C398.127 40.9101 397.957 46.7491 401.293 49.8831C403.472 51.9311 404.645 52.0501 425.043 52.3081L446.5 52.5781L446.758 111.328L447.016 170.078H407.008H367V93.0671V16.0551L406.75 16.3171L446.5 16.5781L446.786 26.3281ZM237.118 89.9761L295.5 115.874L295.763 148.814L296.027 181.754L298.594 184.166L301.161 186.578L398.58 186.843L496 187.107V304.593V422.078H375.018H254.035L253.768 342.658L253.5 263.239L251.076 260.658L248.651 258.078H177.5H106.349L103.924 260.658L101.5 263.239L101.232 342.658L100.965 422.078H58.482H16V304.637V187.197L35.475 186.887C54.199 186.59 55.037 186.49 57.225 184.302C59.478 182.047 59.505 181.706 60 148.995L60.5 115.965L118.5 90.0981C150.4 75.8711 177.003 64.1961 177.618 64.1541C178.233 64.1121 205.008 75.7321 237.118 89.9761ZM237 286.578V299.078H177.5H118V286.578V274.078H177.5H237V286.578ZM307.455 291.533L305 293.987V331.396V368.805L307.636 371.442L310.273 374.078H332.682H355.091L357.545 371.623L360 369.169V331.298V293.427L357.686 291.252C355.449 289.152 354.602 289.078 332.64 289.078H309.909L307.455 291.533ZM395.455 291.533L393 293.987V331.578V369.169L395.455 371.623L397.909 374.078H420.5H443.091L445.545 371.623L448 369.169V331.578V293.987L445.545 291.533L443.091 289.078H420.5H397.909L395.455 291.533ZM344 331.078V357.078H332.5H321V331.078V305.078H332.5H344V331.078ZM432 331.078V357.078H420.5H409V331.078V305.078H420.5H432V331.078ZM237 327.578V340.078H177.5H118V327.578V315.078H177.5H237V327.578ZM237 368.578V381.078H177.5H118V368.578V356.078H177.5H237V368.578ZM237 409.078V421.078H177.5H118V409.078V397.078H177.5H237V409.078Z" fill="black"/>
</svg>
