<svg width="440" height="513" viewBox="0 0 440 513" fill="none" xmlns="http://www.w3.org/2000/svg">
<path fill-rule="evenodd" clip-rule="evenodd" d="M6.76231 1.64187C0.551309 5.01187 0.999308 -14.7521 0.999308 256.077C0.999308 474.99 1.17231 503.511 2.51631 506.11C5.84031 512.538 -10.9447 512.077 219.999 512.077C450.943 512.077 434.158 512.538 437.482 506.11C439.79 501.646 439.79 10.5079 437.482 6.04387C434.157 -0.385129 450.977 0.0728709 219.799 0.116871C35.7373 0.151871 9.15731 0.341871 6.76231 1.64187ZM415.999 256.077V489.077H219.999H23.9993V256.077V23.0769H219.999H415.999V256.077ZM87.2573 91.7819C86.0253 92.0189 83.6623 93.5679 82.0073 95.2219C79.5503 97.6799 78.9993 99.0589 78.9993 102.754C78.9993 106.564 79.5353 107.813 82.3993 110.677L85.7993 114.077H219.999H354.199L357.599 110.677C360.463 107.813 360.999 106.564 360.999 102.754C360.999 99.0819 360.446 97.6779 358.059 95.2909C356.442 93.6739 353.686 92.0639 351.934 91.7139C348.444 91.0159 90.8873 91.0819 87.2573 91.7819ZM82.3993 153.477C78.4823 157.394 77.8553 162.331 80.6683 167.094C84.0923 172.889 76.1523 172.577 219.999 172.577C363.846 172.577 355.906 172.889 359.33 167.094C362.143 162.331 361.516 157.394 357.599 153.477L354.199 150.077H219.999H85.7993L82.3993 153.477ZM85.3873 209.051C81.6643 210.566 78.9993 214.981 78.9993 219.635C78.9993 223.047 79.6003 224.524 81.9393 226.863C83.5563 228.48 86.3123 230.09 88.0643 230.44C92.2253 231.272 347.773 231.272 351.934 230.44C360.572 228.712 363.97 218.434 358.081 211.843L355.163 208.577L221.331 208.385C147.723 208.279 86.5493 208.579 85.3873 209.051ZM271.499 266.79C268.269 267.568 264.072 272.171 263.418 275.655C262.574 280.155 265.323 285.528 269.477 287.5C272.328 288.853 278.369 289.077 311.932 289.077C354.235 289.077 355.928 288.887 359.295 283.749C361.477 280.418 361.477 274.736 359.295 271.405C355.918 266.252 354.251 266.067 312.281 266.193C290.951 266.257 272.599 266.526 271.499 266.79ZM136.147 276.061C107.382 280.482 85.9993 305.22 85.9993 334.077C85.9993 337.873 86.4903 343.363 87.0893 346.278C88.5683 353.467 95.0433 366.601 99.7783 372.016L103.66 376.454L91.3533 419.016C84.5843 442.424 79.0353 463.083 79.0223 464.923C78.9943 469.043 81.5373 473.546 84.7113 474.992C90.0623 477.43 93.0223 476.341 118.48 462.577C132.214 455.152 143.956 449.077 144.574 449.077C145.192 449.077 154.428 453.851 165.098 459.686C199.684 478.598 200.441 478.835 206.599 472.677C209.309 469.967 209.992 468.496 209.966 465.427C209.948 463.31 204.396 442.469 197.627 419.115L185.322 376.653L189.659 371.327C197.934 361.168 201.9 350.751 202.698 337.077C203.361 325.732 201.771 318.243 196.347 307.151C186.022 286.038 159.695 272.441 136.147 276.061ZM159.499 301.974C166.912 305.423 173.066 311.478 176.718 318.913C179.167 323.901 179.499 325.712 179.499 334.077C179.499 342.222 179.129 344.361 176.905 349.077C173.463 356.374 166.946 362.708 159.069 366.411C153.712 368.93 151.377 369.438 145.069 369.458C136.269 369.487 131.435 368.083 124.499 363.482C118.22 359.316 114.286 354.363 111.21 346.749C109.194 341.756 108.865 339.485 109.173 332.686C109.621 322.793 112.648 315.605 119.048 309.24C130.073 298.274 145.565 295.491 159.499 301.974ZM134.499 391.749C142.194 393.396 151.818 392.939 159.765 390.547C162.317 389.779 164.634 389.379 164.913 389.658C165.745 390.49 180.016 440.394 179.554 440.855C179.32 441.089 171.955 437.41 163.188 432.679C153.983 427.712 146.061 424.077 144.442 424.077C142.819 424.077 134.951 427.699 125.754 432.679C117.017 437.41 109.676 441.087 109.439 440.85C109.094 440.505 121.665 395.313 123.522 390.223C123.827 389.388 124.683 389.134 125.757 389.559C126.715 389.939 130.649 390.924 134.499 391.749Z" fill="black"/>
</svg>
