<svg width="500" height="513" viewBox="0 0 500 513" fill="none" xmlns="http://www.w3.org/2000/svg">
<path fill-rule="evenodd" clip-rule="evenodd" d="M60.3901 2.70712C31.3911 22.3061 10.1361 55.0831 2.78509 91.5391C-0.0919077 105.805 -0.0529077 129.671 2.87009 143.682C6.97609 163.362 13.6011 179.241 24.6051 195.779C31.7981 206.59 46.4851 221.949 56.9451 229.6L65.0001 235.491V266.148V296.805L67.6361 299.442C69.8851 301.691 71.1341 302.078 76.1361 302.078H82.0001V403.128C82.0001 511.783 81.8411 508.317 86.9451 511.048C88.1931 511.716 107.004 512.078 140.511 512.078H192.154L195.077 509.155L198 506.232V404.155V302.078H203.944C208.785 302.078 210.409 301.63 212.694 299.666L215.5 297.253L215.791 266.256L216.081 235.259L223.791 229.467C283.333 184.728 297.646 102.425 256.688 40.2961C245.661 23.5691 220.93 0.078125 214.347 0.078125C213.108 0.078125 210.914 0.616125 209.472 1.27313C203.957 3.78513 204 3.30313 204 63.0281V118.078H140H76.0001V62.0011V5.92413L73.0771 3.00113C69.3801 -0.695875 65.5551 -0.783875 60.3901 2.70712ZM377.691 2.10613C375.563 3.78013 374.63 6.24413 372.341 16.2341L369.57 28.3341L365.11 30.2451C362.657 31.2961 357.626 34.1671 353.93 36.6251L347.209 41.0921L335.908 37.5491C323.017 33.5071 320.167 33.6351 316.631 38.4101C311.332 45.5681 299 68.7881 298.99 71.6261C298.981 74.0481 300.623 76.1521 308.133 83.3431L317.286 92.1081L317.225 105.331L317.163 118.553L308.082 127.106C300.272 134.461 299 136.113 299 138.896C299 142.368 314.43 170.537 318.315 174.156C321.136 176.785 324.884 176.552 335.951 173.06C341.148 171.42 345.971 170.078 346.667 170.078C347.363 170.078 350.691 171.861 354.063 174.04C357.434 176.219 362.341 178.973 364.967 180.16L369.742 182.318L372.068 193.403C373.88 202.037 374.995 205.161 377.113 207.533L379.833 210.578L396.645 210.918C414.864 211.286 420.063 210.454 422.44 206.787C423.227 205.572 424.992 199.699 426.361 193.736C427.73 187.773 428.996 182.776 429.175 182.632C429.354 182.488 432.744 180.683 436.709 178.621C440.674 176.56 445.576 173.637 447.602 172.127L451.286 169.38L461.614 172.729C473.803 176.682 477.029 176.871 480.326 173.828C481.666 172.59 486.503 165.053 491.075 157.078C502.07 137.899 502.078 138.283 490.416 127.153L481.432 118.578L481.503 105.208L481.574 91.8391L490.208 83.7081C495.353 78.8631 499.122 74.4591 499.534 72.8081C500.098 70.5521 499.069 67.9711 493.991 58.9041C478.326 30.9301 480.11 32.1631 462.981 37.4611L451.09 41.1391L446.295 37.7241C443.658 35.8461 438.706 32.9101 435.29 31.2001C428.45 27.7741 428.909 28.6261 425.517 13.0781C422.711 0.215125 422.429 0.078125 398.701 0.078125C381.699 0.078125 380.07 0.235125 377.691 2.10613ZM409.926 28.3281C411.168 33.9661 412.778 39.5141 413.504 40.6591C414.23 41.8031 417.001 43.5431 419.662 44.5251C426.196 46.9371 434.642 51.6281 439.5 55.5431C447.119 61.6841 447.061 61.6761 459.166 58.0281C471.545 54.2971 470.204 53.8301 475.5 63.7141L478.5 69.3121L470.544 76.6701L462.589 84.0291L462.498 105.172L462.407 126.316L470.59 133.806L478.774 141.295L474.715 148.437C472.483 152.364 470.588 155.687 470.503 155.82C470.419 155.953 466.108 154.723 460.925 153.088C448.289 149.1 446.536 149.192 440.533 154.152C434.469 159.163 429.181 162.284 422 165.088C413.139 168.549 412.721 169.191 409.457 184.365L407.783 192.153L399.217 191.865L390.651 191.578L388.5 181.919C385.945 170.446 384.333 167.665 379.285 166.03C372.902 163.961 364.791 159.518 358.575 154.685C354.973 151.884 351.621 150.078 350.026 150.078C348.582 150.078 343.164 151.406 337.986 153.03C332.807 154.653 328.399 155.811 328.19 155.602C327.981 155.393 326.022 152.161 323.836 148.421L319.862 141.621L328.528 133.299L337.193 124.978L336.349 117.778C335.281 108.66 335.294 101.415 336.394 92.6881L337.263 85.7971L328.532 77.4131L319.801 69.0291L323.945 62.0531C326.225 58.2171 328.585 55.0781 329.191 55.0781C329.797 55.0781 334.552 56.4421 339.758 58.1101C345.331 59.8951 350.103 60.8791 351.362 60.5031C352.538 60.1511 356.047 57.8891 359.161 55.4751C364.488 51.3441 378.123 44.0781 380.547 44.0781C383.393 44.0781 386.25 38.9291 388.124 30.4201C389.195 25.5571 390.311 20.7901 390.603 19.8281C391.054 18.3451 392.398 18.0781 399.402 18.0781H407.669L409.926 28.3281ZM60.7771 134.301L63.0551 136.578L138.775 136.847C194.467 137.044 215.236 136.809 217.295 135.956C223.018 133.585 223 133.768 223 78.9251V28.6721L227.085 32.6251C232.632 37.9911 241.799 50.2381 246.316 58.3151C259.938 82.6751 264.848 114.734 259.115 141.888C254.083 165.716 243.152 185.904 225.989 203.067C192.915 236.142 143.992 247.36 100.186 231.914C58.1061 217.077 27.6871 180.606 20.3841 136.234C18.1351 122.575 18.9831 101.95 22.3241 89.0041C27.8281 67.6811 35.9601 52.3611 50.8201 35.3211L57.5001 27.6611L58.0001 79.8431L58.5001 132.024L60.7771 134.301ZM385.856 64.3941C355.053 74.8941 346.019 113.268 369.021 135.91C390.153 156.711 425.594 150.403 438.133 123.607C454.127 89.4301 421.344 52.2981 385.856 64.3941ZM411.254 83.8651C428.45 93.0351 428.016 118.1 410.5 127.38C405.117 130.233 394.123 130.384 388.68 127.681C379.991 123.366 374.82 114.952 374.866 105.207C374.898 98.6601 376.08 94.9731 379.65 90.2931C387.062 80.5741 400.107 77.9211 411.254 83.8651ZM81.3571 154.07C73.7311 157.147 74.6831 168.74 82.7561 171.092C85.3211 171.84 104.206 172.088 142.728 171.881L198.956 171.578L201.573 168.96C205.523 165.009 205.365 159.686 201.186 155.953L197.968 153.078L140.734 153.141C109.255 153.176 82.5361 153.594 81.3571 154.07ZM341.762 237.151C338.998 238.762 338.13 241.169 334.544 257.168C332.686 265.461 331.015 272.395 330.832 272.576C330.65 272.757 327.125 274.447 323 276.333C318.875 278.218 311.723 282.339 307.106 285.491L298.712 291.222L284.106 286.647C268.188 281.662 263.934 281.144 261.217 283.861C259.194 285.884 239.546 319.526 237.43 324.591C235.22 329.88 236.935 332.581 250.057 344.475L262.078 355.373L261.366 359.975C260.46 365.824 260.443 382.197 261.337 388.078L262.02 392.578L250.366 403.078C238.065 414.159 235.315 418.147 236.971 422.501C239.076 428.038 258.451 460.755 261.148 463.328C262.734 464.841 265.043 466.078 266.28 466.078C267.517 466.078 275.041 464.053 283 461.578C290.959 459.103 297.896 457.078 298.416 457.078C298.936 457.078 302.626 459.335 306.616 462.093C310.605 464.851 317.73 468.96 322.449 471.224C328.461 474.109 331.176 475.975 331.523 477.459C331.796 478.625 333.157 484.753 334.548 491.078C337.953 506.566 338.702 508.653 341.515 510.496C345.108 512.85 390.892 512.85 394.485 510.496C397.298 508.653 398.047 506.566 401.452 491.078C402.843 484.753 404.204 478.625 404.477 477.459C404.824 475.975 407.539 474.109 413.551 471.224C418.27 468.96 425.395 464.851 429.384 462.093C433.374 459.335 437.137 457.078 437.747 457.078C438.356 457.078 445.27 459.103 453.11 461.578C460.95 464.053 468.347 466.078 469.547 466.078C473.687 466.078 476.825 462.034 488.488 441.662C498.636 423.937 500.102 420.818 499.521 418.173C499.031 415.945 495.507 412.091 486.423 403.851L473.995 392.578L474.707 388.078C475.614 382.346 475.59 363.695 474.669 358.98C473.97 355.4 474.023 355.332 485.935 344.554C498.015 333.624 500.728 329.947 499.52 326.14C498.323 322.369 476.84 285.618 474.787 283.828C471.742 281.175 467.831 281.656 451.922 286.638L437.343 291.204L429.174 285.577C424.682 282.483 417.517 278.349 413.253 276.392C408.989 274.435 405.388 272.739 405.251 272.623C405.114 272.507 403.493 265.683 401.65 257.458C398.062 241.453 397.034 238.702 394.043 237.101C391.499 235.739 344.107 235.785 341.762 237.151ZM101.5 251.785C127.152 259.466 157.455 258.806 184.402 249.977C190.948 247.833 196.461 246.078 196.652 246.078C196.843 246.078 197 254.628 197 265.078V284.078H140H83.0001V264.593V245.107L88.2501 247.248C91.1381 248.425 97.1001 250.467 101.5 251.785ZM384.005 263.828C389.178 287.081 388.988 286.733 398.3 290.065C406.936 293.155 415.159 297.86 424.383 304.988C428.718 308.337 433.06 311.078 434.033 311.078C435.475 311.078 445.336 308.187 462.651 302.689C464.556 302.084 465.555 303.303 471.401 313.37C475.03 319.621 478 325.179 478 325.723C478 326.266 472.776 331.599 466.391 337.573L454.782 348.434L455.4 354.006C457 368.428 457.214 379.805 456.035 387.729C455.35 392.334 455.051 397.147 455.372 398.424C455.692 399.701 461.077 405.485 467.338 411.279L478.722 421.812L471.836 433.695C468.049 440.231 464.399 445.471 463.725 445.339C463.051 445.208 456.718 443.295 449.651 441.089C442.584 438.883 435.601 437.078 434.133 437.078C432.468 437.078 429.588 438.642 426.482 441.231C418.735 447.688 410.644 452.631 402.22 456.05C391.057 460.581 390.243 461.071 389.075 463.962C388.225 466.064 382 492.218 382 493.685C382 493.901 375.749 494.078 368.109 494.078H354.217L352.702 487.328C351.869 483.616 350.386 476.832 349.407 472.254C347.285 462.325 346.067 460.929 336.184 457.083C327.362 453.651 317.39 447.767 310.007 441.638C306.37 438.618 303.568 437.078 301.715 437.078C300.175 437.078 293.196 438.906 286.207 441.141C279.218 443.375 272.994 445.365 272.375 445.561C271.487 445.844 259.797 427.149 258.106 422.743C257.89 422.179 263.021 416.673 269.508 410.508L281.303 399.3L280.618 393.439C278.914 378.837 278.779 371.175 280.036 360.265L281.372 348.663L269.686 337.609C263.259 331.53 258 326.207 258 325.782C258 325.357 260.972 319.834 264.603 313.509C270.411 303.395 271.465 302.084 273.353 302.636C274.534 302.98 281.2 305.079 288.166 307.3C295.912 309.769 301.738 311.104 303.166 310.737C304.45 310.406 307.975 308.071 311 305.548C318 299.708 327.572 294.106 336.5 290.622C347.229 286.436 346.801 287.176 351.995 263.828L354.164 254.078H368H381.836L384.005 263.828ZM180 398.078V494.078H140.5H101V398.078V302.078H140.5H180V398.078ZM356.277 316.589C329.313 322.448 309.824 346.023 309.628 373.018C309.552 383.435 311.111 390.319 315.68 399.743C325.118 419.209 345.461 432.108 367.031 432.305C383.99 432.459 397.025 427.119 409.01 415.106C421.257 402.829 426.387 390.719 426.387 374.078C426.387 345.903 407.27 322.478 379.471 316.589C371.014 314.798 364.521 314.798 356.277 316.589ZM136.11 323.433C130.958 326.376 131.073 324.689 131.035 397.781C131.011 445.713 131.33 466.708 132.11 468.421C134.26 473.138 140.801 474.749 145.445 471.706C146.887 470.761 148.37 468.418 148.994 466.099C149.722 463.397 149.976 440.545 149.784 395.118L149.5 328.122L147 325.624C143.917 322.544 139.294 321.614 136.11 323.433ZM385.112 337.813C412.609 351.349 415.99 387.728 391.476 406.3C384.301 411.737 378.216 413.58 367.5 413.565C359.513 413.554 357.754 413.201 351.877 410.427C335.729 402.807 327.068 388.391 328.265 371.128C328.928 361.577 332.25 353.863 338.647 347.024C347.691 337.355 356 333.961 369.602 334.378C377.468 334.62 379.573 335.086 385.112 337.813Z" fill="black"/>
</svg>
