<svg width="512" height="348" viewBox="0 0 512 348" fill="none" xmlns="http://www.w3.org/2000/svg">
<path fill-rule="evenodd" clip-rule="evenodd" d="M35.073 2.71313C33.028 5.31213 33 6.15712 33 65.7581V126.169L35.455 128.623L37.909 131.078H60.455H83V148.078V165.078H62.149C49.496 165.078 40.051 165.513 38.126 166.184C35.208 167.201 33.552 170.086 17.477 202.153L0 237.015V256.372C0 275.313 0.05 275.776 2.314 277.904C4.587 280.039 5.185 280.078 35.314 280.078H66V305.578V331.078H60.723C52.451 331.078 48.149 335.339 50.273 341.43C52.12 346.729 54.601 347.078 90.403 347.078C110.446 347.078 123.916 346.68 125.603 346.039C131.347 343.855 132.779 337.766 128.545 333.533C126.53 331.517 125.1 331.078 120.545 331.078H115V305.578V280.078H256H397V305.578V331.078H391.455C386.9 331.078 385.47 331.517 383.455 333.533C379.221 337.766 380.653 343.855 386.397 346.039C388.084 346.68 401.554 347.078 421.597 347.078C457.399 347.078 459.88 346.729 461.727 341.43C463.851 335.339 459.549 331.078 451.277 331.078H446V305.578V280.078H476.826H507.651L509.826 277.764C511.902 275.553 512 274.586 512 256.232V237.015L494.523 202.153C478.448 170.086 476.792 167.201 473.874 166.184C471.949 165.513 462.504 165.078 449.851 165.078H429V148.078V131.078H451.545H474.091L476.545 128.623L479 126.169V65.7581C479 6.15712 478.972 5.31213 476.927 2.71313L474.855 0.078125H297.538C125.781 0.078125 120.149 0.137127 117.911 1.94913C114.7 4.54913 114.7 10.6071 117.911 13.2071C120.149 15.0191 125.657 15.0781 292.111 15.0781H464V65.5781V116.078H256H48V65.5781V15.0781H70.918C83.523 15.0781 94.598 14.7861 95.529 14.4281C99.981 12.7201 100.282 3.37012 95.961 1.05712C94.89 0.484121 82.312 0.078125 65.638 0.078125H37.145L35.073 2.71313ZM100.994 42.0121C93.783 44.2061 87.213 49.9131 84.551 56.2961C83.698 58.3411 83 62.5181 83 65.5781C83 81.8111 97.964 93.1381 113.459 88.6331C131.7 83.3301 136.934 59.8861 122.673 47.3641C117.069 42.4431 107.413 40.0601 100.994 42.0121ZM397.196 42.9181C375.175 50.7611 376.097 82.1081 398.541 88.6331C414.036 93.1381 429 81.8111 429 65.5781C429 58.8951 427.012 53.7391 422.699 49.2401C415.732 41.9721 406.369 39.6511 397.196 42.9181ZM113.023 59.6031C118.187 65.1001 114.215 74.0781 106.619 74.0781C98.707 74.0781 95.48 63.2991 101.913 58.3601C104.749 56.1831 110.405 56.8161 113.023 59.6031ZM410.211 58.4411C412.534 60.2071 414.191 64.8771 413.411 67.4601C411.459 73.9131 404.454 76.0931 399.463 71.8001C393.647 66.7971 397.273 57.0421 404.924 57.1101C406.891 57.1271 409.27 57.7261 410.211 58.4411ZM116 148.078V165.078H107H98V148.078V131.078H107H116V148.078ZM381 148.078V165.078H256H131V148.078V131.078H256H381V148.078ZM414 148.078V165.078H405H396V148.078V131.078H405H414V148.078ZM479.257 206.578L491.995 232.078H256H20.005L32.743 206.578L45.482 181.078H256H466.518L479.257 206.578ZM497 256.078V265.078H256H15V256.078V247.078H256H497V256.078ZM99 305.578V331.078H90.5H82V305.578V280.078H90.5H99V305.578ZM430 305.578V331.078H421.5H413V305.578V280.078H421.5H430V305.578Z" fill="black"/>
</svg>
