<svg width="480" height="481" viewBox="0 0 480 481" fill="none" xmlns="http://www.w3.org/2000/svg">
<path fill-rule="evenodd" clip-rule="evenodd" d="M7.922 2.35213C6.066 3.60213 3.524 6.14413 2.274 8.00013C0.0910001 11.2391 0 12.1991 0 32.0781C0 51.9571 0.0910001 52.9171 2.274 56.1561C5.671 61.1971 10.535 64.0781 15.648 64.0781C18.042 64.0781 20 64.4301 20 64.8591C20 65.2891 17.3 73.7121 14 83.5781C10.7 93.4441 8 102.788 8 104.342C8 108.402 12.018 112.078 16.455 112.078C18.405 112.078 20 112.43 20 112.859C20 113.289 17.3 121.712 14 131.578C10.7 141.444 8 150.788 8 152.342C8 156.402 12.018 160.078 16.455 160.078C18.405 160.078 20 160.43 20 160.859C20 161.289 17.3 169.712 14 179.578C10.7 189.444 8 198.788 8 200.342C8 204.402 12.018 208.078 16.455 208.078C18.405 208.078 20 208.43 20 208.859C20 209.289 17.3 217.712 14 227.578C10.7 237.444 8 246.788 8 248.342C8 252.402 12.018 256.078 16.455 256.078C18.405 256.078 20 256.43 20 256.859C20 257.289 17.3 265.712 14 275.578C10.7 285.444 8 294.788 8 296.342C8 298.01 9.006 300.175 10.455 301.623C12.819 303.988 13.406 304.078 26.455 304.078H40V389.623V475.169L42.455 477.623L44.909 480.078H240H435.091L437.545 477.623L440 475.169V389.623V304.078H453.545C466.594 304.078 467.181 303.988 469.545 301.623C470.994 300.175 472 298.01 472 296.342C472 294.788 469.3 285.444 466 275.578C462.7 265.712 460 257.289 460 256.859C460 256.43 461.595 256.078 463.545 256.078C467.982 256.078 472 252.402 472 248.342C472 246.788 469.3 237.444 466 227.578C462.7 217.712 460 209.289 460 208.859C460 208.43 461.595 208.078 463.545 208.078C467.982 208.078 472 204.402 472 200.342C472 198.788 469.3 189.444 466 179.578C462.7 169.712 460 161.289 460 160.859C460 160.43 461.595 160.078 463.545 160.078C467.982 160.078 472 156.402 472 152.342C472 150.788 469.3 141.444 466 131.578C462.7 121.712 460 113.289 460 112.859C460 112.43 461.595 112.078 463.545 112.078C467.982 112.078 472 108.402 472 104.342C472 102.788 469.3 93.4441 466 83.5781C462.7 73.7121 460 65.2891 460 64.8591C460 64.4301 461.958 64.0781 464.352 64.0781C469.465 64.0781 474.329 61.1971 477.726 56.1561C479.909 52.9171 480 51.9571 480 32.0781C480 12.1991 479.909 11.2391 477.726 8.00013C476.476 6.14413 473.934 3.60213 472.078 2.35213L468.704 0.078125H240H11.296L7.922 2.35213ZM464 32.0781V48.0781H240H16V32.0781V16.0781H240H464V32.0781ZM64 80.0781V96.0781H46C36.1 96.0781 28 95.7411 28 95.3291C28 94.9171 30.287 87.7171 33.083 79.3291L38.166 64.0781H51.083H64V80.0781ZM400 80.0781V96.0781H240H80V80.0781V64.0781H240H400V80.0781ZM446.917 79.3291C449.713 87.7171 452 94.9171 452 95.3291C452 95.7411 443.9 96.0781 434 96.0781H416V80.0781V64.0781H428.917H441.834L446.917 79.3291ZM64 128.078V144.078H46C36.1 144.078 28 143.741 28 143.329C28 142.917 30.287 135.717 33.083 127.329L38.166 112.078H51.083H64V128.078ZM400 128.078V144.078H240H80V128.078V112.078H240H400V128.078ZM446.917 127.329C449.713 135.717 452 142.917 452 143.329C452 143.741 443.9 144.078 434 144.078H416V128.078V112.078H428.917H441.834L446.917 127.329ZM64 176.078V192.078H46C36.1 192.078 28 191.741 28 191.329C28 190.917 30.287 183.717 33.083 175.329L38.166 160.078H51.083H64V176.078ZM400 176.078V192.078H240H80V176.078V160.078H240H400V176.078ZM446.917 175.329C449.713 183.717 452 190.917 452 191.329C452 191.741 443.9 192.078 434 192.078H416V176.078V160.078H428.917H441.834L446.917 175.329ZM64 224.078V240.078H46C36.1 240.078 28 239.741 28 239.329C28 238.917 30.287 231.717 33.083 223.329L38.166 208.078H51.083H64V224.078ZM400 224.078V240.078H240H80V224.078V208.078H240H400V224.078ZM446.917 223.329C449.713 231.717 452 238.917 452 239.329C452 239.741 443.9 240.078 434 240.078H416V224.078V208.078H428.917H441.834L446.917 223.329ZM64 272.078V288.078H46C36.1 288.078 28 287.741 28 287.329C28 286.917 30.287 279.717 33.083 271.329L38.166 256.078H51.083H64V272.078ZM400 272.078V288.078H240H80V272.078V256.078H240H400V272.078ZM446.917 271.329C449.713 279.717 452 286.917 452 287.329C452 287.741 443.9 288.078 434 288.078H416V272.078V256.078H428.917H441.834L446.917 271.329ZM88 360.078V416.078H72H56V360.078V304.078H72H88V360.078ZM328 328.375V352.673L322.777 356.125C308.099 365.827 308.456 387.282 323.448 396.552C327.781 399.23 329.223 399.578 336 399.578C342.777 399.578 344.219 399.23 348.552 396.552C355.57 392.213 359.345 385.723 359.811 377.197C360.302 368.225 356.8 361.269 349.227 356.173L344 352.656V328.367V304.078H360H376V360.078V416.078H240H104V360.078V304.078H216H328V328.375ZM424 360.078V416.078H408H392V360.078V304.078H408H424V360.078ZM341.077 371.001C342.685 372.609 344 374.893 344 376.078C344 378.862 338.784 384.078 336 384.078C334.815 384.078 332.531 382.763 330.923 381.155C329.315 379.547 328 377.263 328 376.078C328 374.893 329.315 372.609 330.923 371.001C332.531 369.393 334.815 368.078 336 368.078C337.185 368.078 339.469 369.393 341.077 371.001ZM424 448.078V464.078H240H56V448.078V432.078H240H424V448.078Z" fill="black"/>
</svg>
