<svg width="280" height="513" viewBox="0 0 280 513" fill="none" xmlns="http://www.w3.org/2000/svg">
<path fill-rule="evenodd" clip-rule="evenodd" d="M11.5029 1.96695C6.66187 4.20095 3.61487 7.36695 1.55087 12.3089C0.177868 15.5949 0.0048744 32.296 0.0248744 160.295C0.0458744 298.113 0.128869 304.758 1.88287 308.618C2.89187 310.841 5.13187 313.85 6.86087 315.304L10.0029 317.948L10.0249 407.262C10.0459 491.752 10.1459 496.795 11.8829 500.618C14.0999 505.5 18.7839 509.632 23.7979 511.131C26.0299 511.798 33.3359 512.107 42.1709 511.908C56.6279 511.582 56.9009 511.534 61.1169 508.568C63.5439 506.86 66.3949 503.613 67.7089 501.06C69.9509 496.703 70.1669 493.903 74.5449 412.569C77.0309 366.373 79.3039 326.665 79.5949 324.327L80.1259 320.077H140.003H199.88L200.411 324.327C200.702 326.664 202.966 366.197 205.44 412.177C207.942 458.67 210.427 497.063 211.039 498.673C212.902 503.572 217.075 508.206 221.387 510.164C224.801 511.714 227.976 512.033 240.003 512.033C255.725 512.033 260.1 510.955 264.705 505.945C270.191 499.978 270.003 503.495 270.003 407.045V317.948L273.145 315.304C274.874 313.85 277.114 310.841 278.123 308.618C279.877 304.757 279.959 298.133 279.959 160.077C279.959 21.703 279.881 15.4069 278.113 11.5769C275.879 6.73595 272.713 3.68895 267.771 1.62495C264.494 0.255947 249.732 0.0799467 139.785 0.0989467C21.0929 0.119947 15.3229 0.203947 11.5029 1.96695ZM260.003 160.077V300.077H140.003H20.0029V160.077V20.0769H140.003H260.003V160.077ZM42.9259 42.9999L40.0029 45.9229V160.077V274.231L42.9259 277.154L45.8489 280.077H140.003H234.157L237.08 277.154L240.003 274.231V160.077V45.9229L237.08 42.9999L234.157 40.0769H207.503H180.849L177.926 42.9999C175.634 45.2929 175.003 46.8189 175.003 50.0769C175.003 53.3349 175.634 54.8609 177.926 57.1539L180.849 60.0769H200.426H220.003V160.077V260.077H185.003H150.003V245.577V231.077H168.569C180.272 231.077 187.942 230.664 189.319 229.96C192.866 228.146 194.957 224.823 194.981 220.962C195.01 216.23 191.931 212.404 187.032 211.085L183.168 210.044L186.585 204.371C192.046 195.302 194.186 188.538 194.744 178.577C195.402 166.856 193.891 159.935 188.278 148.954L183.749 140.094L185.933 122.688C187.969 106.457 188.008 105.024 186.512 101.444C184.467 96.5489 181.362 93.185 177.285 91.448C172.608 89.455 107.398 89.455 102.721 91.448C98.6439 93.185 95.5389 96.5489 93.4939 101.444C91.9979 105.024 92.0369 106.457 94.0729 122.688L96.2569 140.094L91.7279 148.954C86.1149 159.935 84.6039 166.856 85.2619 178.577C85.8199 188.538 87.9599 195.302 93.4209 204.371L96.8379 210.044L92.9739 211.085C83.5329 213.627 82.0869 225.562 90.6869 229.96C92.0639 230.664 99.7339 231.077 111.437 231.077H130.003V245.577V260.077H95.0029H60.0029V160.077V60.0769H79.5799H99.1569L102.08 57.1539C104.372 54.8609 105.003 53.3349 105.003 50.0769C105.003 46.8189 104.372 45.2929 102.08 42.9999L99.1569 40.0769H72.5029H45.8489L42.9259 42.9999ZM132.926 42.9999C126.485 49.4419 130.892 60.0769 140.003 60.0769C143.261 60.0769 144.787 59.4459 147.08 57.1539C153.521 50.7119 149.114 40.0769 140.003 40.0769C136.745 40.0769 135.219 40.7079 132.926 42.9999ZM166.551 113.327C165.319 120.701 163.003 140.741 163.003 144.022C163.003 146.561 164.256 149.377 167.469 154.064C171.778 160.348 175.003 169.344 175.003 175.077C175.003 180.297 171.841 189.718 168.398 194.755C161.11 205.417 146.966 211.539 134.832 209.282C126.769 207.783 120.867 204.783 115.582 199.498C110.297 194.213 107.297 188.311 105.798 180.248C104.215 171.737 106.511 162.793 112.52 154.064C115.753 149.366 117.003 146.567 117.003 144.022C117.003 140.741 114.687 120.701 113.455 113.327L112.912 110.077H140.003H167.094L166.551 113.327ZM59.0019 321.827C59.0019 322.789 56.9769 360.252 54.5029 405.077C52.0289 449.902 50.0039 487.815 50.0039 489.327L50.0029 492.077H40.0029H30.0029V406.077V320.077H44.5029C57.6459 320.077 59.0029 320.241 59.0019 321.827ZM250.003 406.077V492.077H240.003H230.003L230.002 489.327C230.002 487.815 227.977 449.902 225.503 405.077C223.029 360.252 221.004 322.789 221.004 321.827C221.003 320.241 222.36 320.077 235.503 320.077H250.003V406.077Z" fill="black"/>
</svg>
