<svg width="512" height="513" viewBox="0 0 512 513" fill="none" xmlns="http://www.w3.org/2000/svg">
<path fill-rule="evenodd" clip-rule="evenodd" d="M0 256.078V512.078H15H30V496.578V481.078H256H482V496.578V512.078H497H512V256.078V0.078125H497H482V45.0781V90.0781H316.5H151V60.0781V30.0781H90.5H30V15.0781V0.078125H15H0V256.078ZM120 75.0781V90.0781H75H30V75.0781V60.0781H75H120V75.0781ZM482 165.078V210.078H256H30V165.078V120.078H256H482V165.078ZM482 285.078V330.078H316.5H151V300.078V270.078H90.5H30V255.078V240.078H256H482V285.078ZM120 315.078V330.078H75H30V315.078V300.078H75H120V315.078ZM482 405.578V450.078H256H30V405.578V361.078H256H482V405.578Z" fill="black"/>
</svg>
