<svg width="512" height="512" viewBox="0 0 512 512" fill="none" xmlns="http://www.w3.org/2000/svg">
<path fill-rule="evenodd" clip-rule="evenodd" d="M116 1.96518C106.96 6.13717 104.5 11.6922 104.5 27.9282V39.8452L84.25 40.3172C61.442 40.8482 56.403 41.9212 42.5 49.2032C23.107 59.3622 9.119 76.3862 2.343 98.0752L0 105.575V276.075V446.575L2.343 454.075C10.684 480.774 29.883 500.143 57 509.218L64 511.56L149.5 511.877C208.961 512.097 236.128 511.863 238.705 511.108C255.752 506.11 257.275 481.476 241 473.965C237.221 472.221 232.672 472.117 158.5 472.089C109.674 472.071 77.543 471.671 73.5 471.03C56.411 468.322 43.253 455.164 40.545 438.075C39.126 429.118 39.126 123.032 40.545 114.075C43.253 96.9862 56.411 83.8282 73.5 81.1202C77.075 80.5542 85.513 80.0872 92.25 80.0832L104.5 80.0752L104.522 92.3252C104.539 102.09 104.918 105.386 106.39 108.575C113.469 123.913 135.531 123.913 142.61 108.575C144.082 105.386 144.461 102.09 144.478 92.3252L144.5 80.0752H189.5H234.5L234.522 92.3252C234.539 102.09 234.918 105.386 236.39 108.575C243.614 124.227 266.296 123.773 272.952 107.843C274.058 105.197 274.5 100.705 274.5 92.1072V80.0752H320H365.5V92.1072C365.5 104.919 366.575 109.35 370.798 113.943C377.779 121.537 391.577 121.94 399.368 114.777C404.16 110.372 405.454 105.617 405.478 92.3252L405.5 80.0752L418.25 80.0832C425.262 80.0872 433.925 80.5542 437.5 81.1202C454.589 83.8282 467.747 96.9862 470.455 114.075C471.074 117.98 471.497 144.13 471.514 179.575C471.542 234.788 471.662 238.832 473.39 242.575C480.902 258.85 505.516 257.33 510.538 240.28C511.293 237.716 511.527 216.251 511.296 170.575L510.964 104.575L508.632 97.5752C501.373 75.7802 487.642 59.2302 468.5 49.2032C454.501 41.8702 449.614 40.8422 426.25 40.3162L405.5 39.8482L405.478 27.7122C405.461 18.0572 405.079 14.7572 403.61 11.5752C396.386 -4.07683 373.704 -3.62282 367.048 12.3072C365.942 14.9532 365.5 19.4452 365.5 28.0432V40.0752H320H274.5V28.0432C274.5 11.6812 272.059 6.14618 263 1.96518C255.488 -1.50182 245.146 0.389175 239.798 6.20717C235.575 10.8002 234.5 15.2312 234.5 28.0432V40.0752H189.5H144.5L144.478 27.8252C144.454 14.5332 143.16 9.77817 138.368 5.37317C132.605 0.0751748 123.2 -1.35782 116 1.96518ZM116 191.965C100.348 199.189 100.802 221.871 116.732 228.527C126.685 232.686 138.128 228.285 142.61 218.575C146.077 211.063 144.186 200.721 138.368 195.373C132.605 190.075 123.2 188.642 116 191.965ZM203 191.965C187.348 199.189 187.802 221.871 203.732 228.527C213.685 232.686 225.128 228.285 229.61 218.575C233.077 211.063 231.186 200.721 225.368 195.373C219.605 190.075 210.2 188.642 203 191.965ZM290 191.965C274.348 199.189 274.802 221.871 290.732 228.527C297.745 231.457 306.811 229.886 312.368 224.777C320.254 217.528 320.254 202.622 312.368 195.373C306.605 190.075 297.2 188.642 290 191.965ZM377 191.965C361.348 199.189 361.802 221.871 377.732 228.527C384.745 231.457 393.811 229.886 399.368 224.777C407.254 217.528 407.254 202.622 399.368 195.373C393.605 190.075 384.2 188.642 377 191.965ZM375.5 270.668C366.611 272.256 353.179 275.662 347.75 277.705C315.979 289.664 289.087 316.541 277.156 348.262C271.603 363.025 270.059 372.339 270.059 391.075C270.059 409.811 271.603 419.125 277.156 433.888C289.077 465.581 315.994 492.498 347.687 504.419C362.45 509.972 371.764 511.516 390.5 511.516C409.236 511.516 418.55 509.972 433.313 504.419C465.006 492.498 491.923 465.581 503.844 433.888C509.397 419.125 510.941 409.811 510.941 391.075C510.941 372.339 509.397 363.025 503.844 348.262C492.094 317.024 465.462 290.124 434.351 278.07C421.471 273.08 409.665 270.909 393.5 270.558C384.975 270.373 376.875 270.423 375.5 270.668ZM116 278.965C100.348 286.189 100.802 308.871 116.732 315.527C126.685 319.686 138.128 315.285 142.61 305.575C146.077 298.063 144.186 287.721 138.368 282.373C132.605 277.075 123.2 275.642 116 278.965ZM203 278.965C187.348 286.189 187.802 308.871 203.732 315.527C213.685 319.686 225.128 315.285 229.61 305.575C233.077 298.063 231.186 287.721 225.368 282.373C219.605 277.075 210.2 275.642 203 278.965ZM409.5 312.724C419.008 315.004 433.009 321.944 440.88 328.278C454.129 338.942 464.82 355.75 469.054 372.575C471.435 382.035 471.435 400.115 469.054 409.575C463.088 433.281 446.637 453.47 425 463.638C412.322 469.596 404.335 471.391 390.5 471.391C376.665 471.391 368.678 469.596 356 463.638C334.363 453.47 317.912 433.281 311.946 409.575C309.565 400.115 309.565 382.035 311.946 372.575C322.903 329.036 366.355 302.377 409.5 312.724ZM382 331.965C377.159 334.199 374.112 337.365 372.048 342.307C370.793 345.309 370.5 350.666 370.5 370.575C370.5 396.822 370.937 399.656 375.798 404.943C380.684 410.258 384.392 411.031 405 411.031C421.361 411.031 424.556 410.775 428 409.185C437.71 404.703 442.111 393.26 437.952 383.307C434.504 375.053 427.855 371.131 417.25 371.097L410.5 371.075L410.478 358.325C410.46 348.074 410.094 344.791 408.61 341.575C404.003 331.594 392.11 327.299 382 331.965ZM116 365.965C100.348 373.189 100.802 395.871 116.732 402.527C126.685 406.686 138.128 402.285 142.61 392.575C146.077 385.063 144.186 374.721 138.368 369.373C132.605 364.075 123.2 362.642 116 365.965ZM203 365.965C187.348 373.189 187.802 395.871 203.732 402.527C213.685 406.686 225.128 402.285 229.61 392.575C233.077 385.063 231.186 374.721 225.368 369.373C219.605 364.075 210.2 362.642 203 365.965Z" fill="#6989AD"/>
</svg>
