<svg width="448" height="496" viewBox="0 0 448 496" fill="none" xmlns="http://www.w3.org/2000/svg">
<path fill-rule="evenodd" clip-rule="evenodd" d="M196.5 1.60994C153.764 7.19794 112.905 24.8769 81.053 51.5609C72.879 58.4079 55.924 75.5199 49.314 83.5919C29.647 107.61 12.05 144.242 5.081 175.673C0.152001 197.904 0 202.16 0 318.343V427.168L2.455 429.622C3.805 430.972 5.582 432.077 6.404 432.077C7.68 432.077 7.943 435.562 8.199 455.909L8.5 479.741L11.526 484.632C13.4 487.661 16.417 490.677 19.448 492.551C23.781 495.229 25.223 495.577 32 495.577C38.777 495.577 40.219 495.229 44.552 492.551C47.583 490.677 50.6 487.661 52.474 484.632L55.5 479.741L55.801 455.909C56.057 435.562 56.32 432.077 57.596 432.077C58.418 432.077 60.195 430.972 61.545 429.622L64 427.168V404.019V380.869L72.25 388.649C118.97 432.704 186.262 454.496 251.03 446.546C297.43 440.851 343.652 419.36 376.028 388.428L384 380.812V403.99V427.168L386.455 429.622C387.805 430.972 389.582 432.077 390.404 432.077C391.68 432.077 391.943 435.562 392.199 455.909L392.5 479.741L395.526 484.632C397.4 487.661 400.417 490.677 403.448 492.551C407.781 495.229 409.223 495.577 416 495.577C422.777 495.577 424.219 495.229 428.552 492.551C431.583 490.677 434.6 487.661 436.474 484.632L439.5 479.741L439.801 455.909C440.057 435.562 440.32 432.077 441.596 432.077C442.418 432.077 444.195 430.972 445.545 429.622L448 427.168V319.083C448 251.626 447.612 207.348 446.967 201.288C441.565 150.529 420.024 104.587 384.574 68.2149C365.634 48.7819 346.589 34.8509 323.036 23.1989C308.454 15.9859 287.394 8.48094 272.404 5.15794C250.138 0.220941 218.449 -1.26006 196.5 1.60994ZM254.195 18.5999C304.962 26.1919 350.437 51.7499 383.61 91.3339C408.047 120.494 423.232 154.579 429.605 194.577C431.945 209.27 431.941 238.345 429.595 253.577C424.131 289.055 410.277 321.968 388.882 350.297C380.85 360.932 360.855 380.927 350.22 388.959C321.891 410.354 288.978 424.208 253.5 429.672C230.541 433.208 198.77 431.696 175.5 425.961C92.384 405.475 31.892 339.29 18.402 254.077C16.063 239.301 16.039 210.175 18.354 195.077C24.208 156.905 39.448 121.867 62.721 93.0769C69.914 84.1779 88.058 66.3739 96.5 59.9309C129.106 35.0449 166.921 20.6399 210 16.6939C218.246 15.9379 243.757 17.0389 254.195 18.5999ZM205 48.6999C194.876 49.9559 178.61 53.5699 169.18 56.6589C108.646 76.4879 63.622 127.678 50.808 191.243C48.85 200.953 48.523 205.657 48.523 224.077C48.523 242.497 48.85 247.201 50.808 256.911C65.302 328.808 119.358 382.769 191.473 397.328C200.838 399.219 205.741 399.554 224 399.554C242.42 399.554 247.124 399.227 256.834 397.269C328.269 382.868 382.95 328.369 397.023 257.547C400.072 242.2 400.788 216.606 398.601 201.077C396.559 186.578 392.903 172.139 388.347 160.577C366.229 104.457 318.607 64.2269 259.149 51.4339C249.48 49.3539 244.186 48.8719 228 48.5969C217.275 48.4149 206.925 48.4609 205 48.6999ZM239 65.0959C266.302 67.9249 290.48 76.5939 313.472 91.7969C327.142 100.837 347.24 120.935 356.28 134.605C380.819 171.715 389.091 214.5 380.055 257.577C367.344 318.176 318.099 367.421 257.5 380.132C214.423 389.168 171.638 380.896 134.528 356.357C120.858 347.317 100.76 327.219 91.72 313.549C55.136 258.223 55.136 189.931 91.72 134.605C100.76 120.935 120.858 100.837 134.528 91.7969C166.282 70.7999 203.137 61.3799 239 65.0959ZM202.5 97.6649C155.216 105.987 115.977 140.254 101.692 185.696C94.138 209.731 94.138 238.423 101.692 262.458C114.02 301.677 144.973 332.88 184.5 345.933C208.786 353.954 237.766 354.122 262.381 346.385C301.72 334.019 334.052 301.725 346.285 262.577C369.445 188.463 321.797 110.84 245.074 97.6919C233.599 95.7259 213.588 95.7129 202.5 97.6649ZM236.038 113.072C304.277 120.892 349.261 186.437 331.894 252.742C329.202 263.018 323.27 276.38 317.497 285.172C311.272 294.652 294.613 311.324 285.172 317.523C246.29 343.052 195.186 341.572 157.756 313.833C99.921 270.973 96.9 186.36 151.52 139.131C174.313 119.423 206.055 109.636 236.038 113.072ZM209.075 145.103C190.891 148.924 173.281 159.486 161.974 173.352C156.004 180.673 148.723 194.902 146.251 204.077C144.976 208.81 144.5 214.382 144.5 224.577C144.5 236.46 144.854 239.711 146.843 246.077C155.301 273.15 174.927 292.776 202 301.234C208.366 303.223 211.617 303.577 223.5 303.577C240.026 303.577 246.151 302.224 259.5 295.627C275.898 287.523 287.446 275.975 295.55 259.577C302.147 246.228 303.5 240.103 303.5 223.577C303.5 211.694 303.146 208.443 301.157 202.077C292.764 175.211 273.191 155.51 246.5 147.061C238.611 144.564 217.016 143.434 209.075 145.103ZM233.308 161.171C262.117 165.551 283.274 187.434 287.101 216.81C289.836 237.801 280.347 260.804 263.568 273.862C229.493 300.378 180.566 287.119 164.731 247.077C150.162 210.233 173.384 168.646 212.5 161.531C221.511 159.892 224.552 159.839 233.308 161.171ZM32.929 341.077C35.827 345.752 40.403 352.557 43.099 356.199L48 362.822V389.449V416.077H32H16L16.005 362.327L16.009 308.577L21.835 320.577C25.039 327.177 30.032 336.402 32.929 341.077ZM432 362.577V416.077H416H400V389.496V362.914L405.925 354.746C413.677 344.059 421.449 330.809 427.015 318.792C429.482 313.466 431.613 309.102 431.75 309.093C431.887 309.084 432 333.152 432 362.577ZM40 453.154V474.231L37.077 477.154C35.469 478.762 33.185 480.077 32 480.077C30.815 480.077 28.531 478.762 26.923 477.154L24 474.231V453.154V432.077H32H40V453.154ZM424 453.154V474.231L421.077 477.154C419.469 478.762 417.185 480.077 416 480.077C414.815 480.077 412.531 478.762 410.923 477.154L408 474.231V453.154V432.077H416H424V453.154Z" fill="black"/>
</svg>
