<svg width="514" height="513" viewBox="0 0 514 513" fill="none" xmlns="http://www.w3.org/2000/svg">
<path fill-rule="evenodd" clip-rule="evenodd" d="M51.2405 1.40145C49.9985 2.09145 48.1985 3.76345 47.2405 5.11645C45.5995 7.43545 45.4845 21.3445 45.2415 248.326L44.9835 489.076L29.2415 489.082C11.2745 489.088 7.16246 489.905 3.56346 494.182C-0.314538 498.791 0.00246286 504.279 4.39946 508.676L7.79946 512.076H256.999H506.199L509.599 508.676C513.996 504.279 514.313 498.791 510.435 494.182C506.836 489.905 502.724 489.088 484.757 489.082L469.015 489.076L468.757 248.326C468.513 20.2034 468.406 7.44045 466.735 4.98045C465.765 3.55245 463.831 1.86545 462.438 1.23045C458.599 -0.518552 54.3955 -0.350552 51.2405 1.40145ZM445.999 256.076V489.076H423.999H401.999V283.044C401.999 60.6894 402.281 72.4884 396.882 68.7074C394.757 67.2184 382.551 67.0764 256.999 67.0764C131.447 67.0764 119.241 67.2184 117.116 68.7074C111.717 72.4884 111.999 60.6894 111.999 283.044V489.076H89.9995H67.9995V256.076V23.0764H256.999H445.999V256.076ZM378.999 178.076V267.076L327.749 267.08C279.372 267.083 276.326 267.189 273.419 268.961C267.125 272.8 266.481 281.289 272.076 286.651L275.129 289.576L327.064 289.86L378.999 290.145V389.61V489.076H256.999H134.999V289.076V89.0764H256.999H378.999V178.076Z" fill="black"/>
</svg>
