<svg width="420" height="513" viewBox="0 0 420 513" fill="none" xmlns="http://www.w3.org/2000/svg">
<path fill-rule="evenodd" clip-rule="evenodd" d="M76.311 2.03013C74.169 3.33613 72.776 5.22112 72.067 7.77612C71.339 10.3961 71.009 86.1331 71.006 251.328L71 491.078H35.5H0V501.578V512.078L42.25 512.067L84.5 512.055L183 486.12C277.299 461.29 281.617 460.053 284.25 457.115L287 454.046V256.078V58.1101L284.25 55.0441C281.651 52.1471 278.364 51.1541 224.5 36.9971C193.15 28.7571 167.05 21.8401 166.5 21.6261C165.95 21.4111 206.56 21.2001 256.744 21.1571L347.988 21.0781L348.244 263.66L348.5 506.242L351.766 509.16L355.032 512.078H387.516H420V501.578V491.078H394.506H369.012L368.756 248.496L368.5 5.91412L365.234 2.99612L361.968 0.078125L220.734 0.082125C82.614 0.085125 79.43 0.128125 76.311 2.03013ZM180.75 47.1691L266 69.5731V256.078V442.583L180.75 464.987C133.863 477.31 94.938 487.594 94.25 487.842C93.252 488.201 93 441.423 93 256.078C93 70.7331 93.252 23.9551 94.25 24.3141C94.938 24.5621 133.862 34.8461 180.75 47.1691ZM225.907 248.405C210.914 256.32 211.852 278.108 227.491 285.213C237.385 289.707 249.516 284.939 254.406 274.634C257.532 268.047 255.827 257.738 250.702 252.244C244.71 245.82 233.957 244.155 225.907 248.405Z" fill="black"/>
</svg>
