<svg width="328" height="406" viewBox="0 0 328 406" fill="none" xmlns="http://www.w3.org/2000/svg">
<path fill-rule="evenodd" clip-rule="evenodd" d="M7.922 2.274C6.066 3.524 3.524 6.066 2.274 7.922L0 11.296V203V394.704L2.274 398.078C3.524 399.934 6.066 402.476 7.922 403.726L11.296 406H126H240.704L244.078 403.726C245.934 402.476 248.476 399.934 249.726 398.078C251.919 394.824 252 393.927 252 372.807V350.909L249.545 348.455C246.298 345.207 241.702 345.207 238.455 348.455C236.016 350.893 236 351.036 236 370.455V390H126H16V203V16H126H236V53.545V91.091L238.455 93.545C241.702 96.793 246.298 96.793 249.545 93.545L252 91.091V51.193C252 11.35 251.997 11.291 249.726 7.922C248.476 6.066 245.934 3.524 244.078 2.274L240.704 0H126H11.296L7.922 2.274ZM233.124 103.578C219.053 107.362 205.24 118.305 198.612 130.918C192.603 142.353 192 146.349 192 174.71V200H183.648C174.22 200 170.456 201.716 166.274 207.922L164 211.296V268V324.704L166.274 328.078C167.524 329.934 170.066 332.476 171.922 333.726L175.296 336H246H316.704L320.078 333.726C321.934 332.476 324.476 329.934 325.726 328.078L328 324.704V268V211.296L325.726 207.922C321.693 201.936 317.691 200 309.352 200H302V174.71C302 146.349 301.397 142.353 295.388 130.918C288.652 118.099 274.849 107.28 260.448 103.528C253.177 101.635 240.261 101.658 233.124 103.578ZM254.079 119.015C269.516 121.943 282.085 134.497 284.985 149.886C285.543 152.849 286 165.337 286 177.636V200H247H208V177.636C208 165.337 208.457 152.865 209.015 149.921C212.356 132.306 228.027 118.868 246.114 118.11C247.551 118.049 251.135 118.457 254.079 119.015ZM38.168 166.089C35.691 167.348 32.694 170.015 31.168 172.32L28.5 176.349L28.207 205.77C27.924 234.203 27.986 235.341 30.078 239.661C33.348 246.415 38.653 249.5 47 249.5C52.537 249.5 54.323 249.052 57.702 246.816C63.196 243.18 66 237.207 66 229.139C66 223.858 65.626 222.535 63.545 220.455C58.041 214.95 50 219.033 50 227.332C50 232.481 47.964 235.045 45.5 233C44.241 231.955 44 227.785 44 207C44 186.215 44.241 182.045 45.5 181C47.964 178.955 50 181.519 50 186.668C50 192.161 53.291 196 58 196C59.948 196 61.998 195.093 63.545 193.545C65.626 191.465 66 190.142 66 184.861C66 172.646 59.355 164.97 48.16 164.252C43.795 163.972 41.509 164.392 38.168 166.089ZM64.455 202.455C62.907 204.002 62 206.052 62 208C62 209.948 62.907 211.998 64.455 213.545C66.898 215.989 67.002 216 87 216C106.998 216 107.102 215.989 109.545 213.545C111.093 211.998 112 209.948 112 208C112 206.052 111.093 204.002 109.545 202.455C107.102 200.011 106.998 200 87 200C67.002 200 66.898 200.011 64.455 202.455ZM312 268V320H246H180V268V216H246H312V268Z" fill="black"/>
</svg>
