<svg width="448" height="446" viewBox="0 0 448 446" fill="none" xmlns="http://www.w3.org/2000/svg">
<path fill-rule="evenodd" clip-rule="evenodd" d="M86.585 1.11431C70.824 3.59531 56.182 9.37431 43.576 18.0883C35.501 23.6713 22.451 36.6493 17.122 44.3983C12.15 51.6273 5.437 66.4973 2.821 76.0763L0.5 84.5763V223.076C0.5 353.612 0.603999 361.95 2.308 368.076C7.906 388.2 15.248 401.259 28.925 415.419C41.669 428.613 57.448 437.718 77.06 443.194L85.5 445.551L246 445.849C425.678 446.182 415.322 446.564 426.675 439.188C437.069 432.434 443.094 424.442 446.423 412.987C447.868 408.018 448.004 394.868 447.765 283.017L447.5 158.576L445.143 152.732C440.634 141.553 430.409 131.595 418.744 127.023L412.5 124.576L306.75 124.3L201 124.023V106.508C201 94.4893 200.508 86.6073 199.431 81.3953C194.617 58.0903 181.947 37.1763 163.892 22.7303C151.217 12.5883 137.11 5.84331 121.5 2.45931C112.823 0.578308 94.479 -0.128693 86.585 1.11431ZM121.5 19.6023C156.492 28.7053 179.256 54.7953 183.98 91.2113C184.712 96.8553 184.973 130.434 184.783 194.438L184.5 289.3L181.12 284.593C168.689 267.283 147.732 253.343 125.119 247.342C111.948 243.847 90.796 243.604 78 246.802C54.715 252.62 33.887 266.228 20.315 284.491L15.918 290.407L16.23 189.991L16.541 89.5763L19.183 79.9443C28.391 46.3743 51.427 24.9743 85.342 18.4853C94.144 16.8003 112.966 17.3823 121.5 19.6023ZM413.205 142.63C419.59 144.806 425.39 150.133 428.689 156.852L431.5 162.576L431.766 283.016C432.054 413.405 432.218 409.005 426.765 417.097C423.711 421.628 416.807 426.782 412.087 428.053C409.529 428.741 366.521 428.999 282.517 428.83L156.776 428.576L161.138 425.428C166.827 421.323 178.069 409.867 182.597 403.558C187.885 396.193 194.62 382.319 197.747 372.353L200.5 363.576L200.775 252.326L201.05 141.076H304.847C396.098 141.076 409.195 141.264 413.205 142.63ZM124.451 264.516C148.118 271.569 165.475 285.865 175.517 306.576C180.604 317.069 182.906 325.361 183.833 336.542C185.786 360.076 179.11 382.861 165.309 399.759C155.932 411.241 138.806 421.845 122.5 426.264C115.994 428.027 111.699 428.437 99.5 428.46C85.262 428.486 84.018 428.326 75 425.306C46.876 415.885 26.576 394.276 18.889 365.576C15.879 354.337 15.879 335.815 18.889 324.576C27.301 293.169 51.557 269.565 82.5 262.674C93.427 260.24 112.983 261.099 124.451 264.516ZM87.075 275.163C72.445 278.034 60.876 284.164 50.361 294.619C43.59 301.351 41.461 304.296 37.695 312.143C32.2 323.594 30 333.01 30 345.076C30 357.142 32.2 366.558 37.695 378.009C46.397 396.141 62.95 409.02 84 414.036C121.815 423.048 159.17 400.813 169.615 363.076C172.064 354.228 172.077 336.005 169.64 327.076C162.75 301.826 141.909 281.51 116.832 275.598C109.99 273.985 94.252 273.755 87.075 275.163ZM116.107 292.7C135.689 298.513 149.372 313.184 153.536 332.83C160.705 366.661 138.895 396.283 104.383 399.588C79.051 402.013 53.499 383.257 47.506 357.836C40.514 328.184 59.222 298.314 89 291.58C96.64 289.853 108.112 290.327 116.107 292.7ZM87.909 307.915C69.392 314.03 58.363 332.643 61.896 351.815C64.375 365.27 71.531 374.588 83.877 380.438C89.953 383.317 91.326 383.573 100.5 383.541C113.947 383.493 120.166 381.085 128.588 372.664C136.894 364.357 139.375 358.012 139.375 345.076C139.375 332.14 136.894 325.795 128.588 317.488C120.846 309.747 114.09 306.936 102 306.426C95.655 306.159 92.082 306.537 87.909 307.915ZM106.499 323.18C115.882 325.543 123.314 335.217 123.32 345.076C123.332 365.379 97.888 375.257 83.803 360.418C74.011 350.101 76.968 331.872 89.494 325.335C95.903 321.99 99.808 321.495 106.499 323.18Z" fill="black"/>
</svg>
