<svg width="256" height="513" viewBox="0 0 256 513" fill="none" xmlns="http://www.w3.org/2000/svg">
<path fill-rule="evenodd" clip-rule="evenodd" d="M170.5 1.53279C162.749 2.53679 150.847 5.30679 144.5 7.58279C107.526 20.8438 84.744 49.0358 76.408 91.8438C75.065 98.7398 74.665 109.07 74.291 146.594L73.829 192.844H36.914H0V238.344V283.844H37H74V398.344V512.844H120H166V398.344V283.844H201.455H236.909L237.465 280.594C238.424 274.992 248 197.12 248 194.928C248 192.85 247.886 192.844 206.938 192.844H165.875L166.205 153.094C166.528 114.069 166.577 113.235 168.894 107.344C170.505 103.249 172.881 99.7568 176.377 96.3438C185.429 87.5088 193.813 85.8928 230.75 85.8638L256 85.8438V44.9728V4.10179L249.25 3.46379C224.742 1.14779 181.629 0.0897875 170.5 1.53279Z" fill="#B2B2B2"/>
</svg>
