<svg width="512" height="512" viewBox="0 0 512 512" fill="none" xmlns="http://www.w3.org/2000/svg">
<path fill-rule="evenodd" clip-rule="evenodd" d="M233.499 0.500822C218.882 2.23982 206.219 4.38882 196.295 6.81182C136.777 21.3468 86.6339 54.6388 49.6869 104.151C43.5439 112.384 43.0409 113.402 44.5709 114.52C45.5029 115.202 65.1789 126.669 88.2939 140.002L130.322 164.245L133.832 159.794C140.712 151.073 158.691 134.244 167.719 128.075C208.199 100.416 257.438 93.1828 303.999 108.055C320.838 113.433 334.147 120.699 355.861 136.369C360.257 139.542 365.203 140.396 370.345 138.871C373.773 137.854 379.019 133.157 400.366 111.991C417.101 95.3978 426.89 84.9318 428.094 82.3438C432.289 73.3278 429.356 66.5118 416.999 56.5568C378.42 25.4768 330.305 5.70882 281.575 0.917822C271.529 -0.070178 240.551 -0.339178 233.499 0.500822ZM24.5709 145.704C21.1089 152.4 13.9539 171.01 10.6469 181.923C2.64986 208.311 -0.554138 233.499 0.291862 263.322C0.910862 285.111 2.88286 299.532 7.89486 318.899C13.3839 340.112 25.0539 369.421 27.6199 368.436C28.8619 367.959 83.1029 336.811 104.617 324.219L113.735 318.883L110.26 309.629C97.6269 275.997 97.6269 235.691 110.26 202.059L113.735 192.805L104.617 187.469C82.5839 174.573 28.8479 143.723 27.5549 143.227C26.6659 142.886 25.5499 143.812 24.5709 145.704ZM278.603 211.882C274.854 213.004 270.12 217.484 268.376 221.562C266.63 225.642 266.351 295.998 268.063 300.529C269.232 303.623 273.373 308.361 276.499 310.18C277.935 311.015 295.819 311.485 339.863 311.844L401.227 312.344L394.634 325.344C384.472 345.384 369.433 363.958 352.048 377.942L347.596 381.523L372.511 424.683C386.214 448.422 397.675 467.844 397.981 467.844C398.287 467.844 403.479 464.156 409.518 459.649C422.982 449.601 447.874 424.87 458.138 411.344C488.452 371.396 506.314 326.858 511.078 279.344C512.452 265.644 511.753 229.577 509.997 223.575C508.576 218.717 503.067 213.235 498.268 211.902C493.611 210.609 282.922 210.59 278.603 211.882ZM87.0149 372.424C63.6479 385.93 44.3349 397.175 44.0959 397.413C42.3339 399.176 60.5679 421.685 76.8719 437.874C115.766 476.491 163.683 500.68 218.499 509.368C223.999 510.24 237.724 511.207 248.999 511.518C281.064 512.401 304.743 508.927 334.999 498.901C350.338 493.818 369.457 485.439 368.713 484.126C365.195 477.924 328.298 413.93 324.374 407.226L319.038 398.108L309.784 401.583C277.153 413.84 238.106 414.238 205.056 402.651C178.923 393.49 152.349 374.892 135.958 354.293C133.136 350.746 130.528 347.85 130.163 347.857C129.798 347.863 110.381 358.919 87.0149 372.424Z" fill="#B2B2B2"/>
</svg>
