<svg width="512" height="512" viewBox="0 0 512 512" fill="none" xmlns="http://www.w3.org/2000/svg">
<path fill-rule="evenodd" clip-rule="evenodd" d="M133.239 2.01155C131.446 3.13755 129.086 5.52455 127.993 7.31755C126.09 10.4376 126.005 12.4346 126.002 54.2676L125.998 97.9596L119.802 101.262C111.919 105.464 105.385 111.998 101.183 119.881L97.8808 126.077L54.1888 126.081C12.3558 126.084 10.3588 126.169 7.23876 128.072C2.03876 131.242 -0.182243 135.645 0.277758 141.868C0.731758 148.012 3.09476 151.789 8.06876 154.325C11.1768 155.91 15.5448 156.074 54.6888 156.075L97.8808 156.077L101.058 162.038C104.876 169.201 113.678 177.868 120.802 181.478L125.998 184.111V256.077V328.043L120.802 330.676C113.678 334.286 104.876 342.953 101.058 350.116L97.8808 356.077L54.6888 356.079C15.5448 356.08 11.1768 356.244 8.06876 357.829C3.09476 360.365 0.731758 364.142 0.277758 370.286C-0.182243 376.509 2.03876 380.912 7.23876 384.082C10.3588 385.985 12.3558 386.07 54.1888 386.073L97.8808 386.077L101.183 392.273C105.385 400.156 111.919 406.69 119.802 410.892L125.998 414.194L126.002 457.886C126.005 499.719 126.09 501.716 127.993 504.836C131.163 510.036 135.566 512.257 141.789 511.797C147.875 511.347 151.434 509.119 154.147 504.06C155.867 500.853 155.998 497.543 155.998 457.401V414.194L161.959 411.017C169.122 407.199 177.789 398.397 181.399 391.273L184.032 386.077H255.998H327.964L330.597 391.273C334.207 398.397 342.874 407.199 350.037 411.017L355.998 414.194L356 457.386C356.001 496.53 356.165 500.898 357.75 504.006C360.286 508.98 364.063 511.343 370.207 511.797C376.43 512.257 380.833 510.036 384.003 504.836C385.906 501.716 385.991 499.719 385.994 457.886L385.998 414.194L392.194 410.892C400.077 406.69 406.611 400.156 410.813 392.273L414.115 386.077L457.807 386.073C499.64 386.07 501.637 385.985 504.757 384.082C509.957 380.912 512.178 376.509 511.718 370.286C511.264 364.142 508.901 360.365 503.927 357.829C500.819 356.244 496.451 356.08 457.307 356.079L414.115 356.077L410.938 350.116C407.12 342.953 398.318 334.286 391.194 330.676L385.998 328.043V256.119V184.194L391.959 181.017C399.122 177.199 407.789 168.397 411.399 161.273L414.032 156.077H457.28C497.463 156.077 500.774 155.946 503.981 154.226C509.04 151.513 511.268 147.954 511.718 141.868C512.178 135.645 509.957 131.242 504.757 128.072C501.637 126.169 499.64 126.084 457.807 126.081L414.115 126.077L410.813 119.881C406.588 111.954 399.462 104.845 391.931 101.043L385.998 98.0476L385.994 54.3126C385.991 12.4346 385.906 10.4386 384.003 7.31755C380.833 2.11755 376.43 -0.103446 370.207 0.356554C364.063 0.810554 360.286 3.17355 357.75 8.14755C356.165 11.2556 356.001 15.6256 356 54.8096L355.998 98.0426L350.802 100.676C343.678 104.286 334.876 112.953 331.058 120.116L327.881 126.077H255.998H184.115L180.938 120.116C177.12 112.953 168.318 104.286 161.194 100.676L155.998 98.0426L155.996 54.8096C155.995 7.29155 155.993 7.28055 149.789 2.73355C145.757 -0.222446 137.378 -0.587446 133.239 2.01155ZM148.85 128.816C153.511 132.296 155.383 135.757 155.383 140.899C155.383 158.947 129.249 160.72 126.352 142.868C124.445 131.117 139.411 121.769 148.85 128.816ZM377.622 128.137C382.024 130.268 385.998 136.289 385.998 140.828C385.998 149.648 376.711 157.17 367.977 155.423C363.633 154.554 357.451 148.304 356.635 143.957C355.383 137.283 359.132 130.318 365.498 127.489C369.731 125.607 372.727 125.767 377.622 128.137ZM330.931 161.368C334.102 168.16 344.042 178.086 350.748 181.159L355.998 183.565V256.077V328.589L350.748 330.995C344.042 334.068 334.102 343.994 330.931 350.786L328.498 355.995H255.998H183.498L181.065 350.786C177.942 344.098 167.977 334.133 161.289 331.01L156.08 328.577V256.077V183.577L161.289 181.144C164.157 179.805 169.224 175.985 172.565 172.644C175.906 169.303 179.726 164.236 181.065 161.368L183.498 156.159H255.998H328.498L330.931 161.368ZM144.929 357.057C156.009 360.235 159.168 374.331 150.505 381.936C142.408 389.046 130.342 385.71 126.948 375.424C124.101 366.798 130.985 357.02 140.505 356.167C141.058 356.118 143.049 356.518 144.929 357.057ZM375.166 357.107C382.601 359.172 387.448 368.155 385.048 375.424C381.654 385.71 369.588 389.046 361.491 381.936C351.726 373.363 357.368 357.224 370.498 356.169C371.048 356.124 373.148 356.547 375.166 357.107Z" fill="black"/>
</svg>
