<svg width="472" height="513" viewBox="0 0 472 513" fill="none" xmlns="http://www.w3.org/2000/svg">
<path fill-rule="evenodd" clip-rule="evenodd" d="M145.204 2.56088C140.874 6.20388 133.338 21.7519 131.382 31.0779C128.371 45.4339 130.778 57.0829 141.522 80.1539C152.994 104.789 153.562 111.53 145.526 127.659C143.037 132.653 141.001 137.947 141.001 139.423C141.001 141.062 142.278 143.501 144.28 145.685C146.85 148.49 148.363 149.286 151.276 149.369C156.285 149.511 159.669 146.808 164.278 138.988C169.954 129.356 172.4 120.393 172.439 109.078C172.48 97.3619 170.425 90.2539 161.432 71.0059C149.693 45.8779 149.33 39.1629 158.699 20.5439C163.727 10.5529 163.858 8.34888 159.711 3.52688C158.075 1.62588 156.165 0.737876 152.922 0.372876C149.064 -0.0621235 147.944 0.254877 145.204 2.56088ZM230.204 2.56088C225.874 6.20388 218.338 21.7519 216.382 31.0779C213.369 45.4429 215.753 56.9559 226.591 80.3849C238.024 105.1 238.56 111.534 230.526 127.659C228.037 132.653 226.001 137.947 226.001 139.423C226.001 141.062 227.278 143.501 229.28 145.685C231.85 148.49 233.363 149.286 236.276 149.369C241.285 149.511 244.669 146.808 249.278 138.988C254.954 129.356 257.4 120.393 257.439 109.078C257.48 97.3609 255.475 90.4339 246.494 71.2599C234.705 46.0919 234.324 39.1749 243.699 20.5439C248.727 10.5529 248.858 8.34888 244.711 3.52688C243.075 1.62588 241.165 0.737876 237.922 0.372876C234.064 -0.0621235 232.944 0.254877 230.204 2.56088ZM315.204 2.56088C310.874 6.20388 303.338 21.7519 301.382 31.0779C298.361 45.4799 300.749 56.9519 311.684 80.5779C322.849 104.698 323.4 111.501 315.496 127.64C313.024 132.689 311.001 138.01 311.001 139.464C311.001 141.058 312.305 143.53 314.287 145.693C316.964 148.614 318.284 149.278 321.414 149.278C326.522 149.278 329.71 146.747 334.147 139.171C339.922 129.31 342.434 120.208 342.454 109.078C342.476 97.4379 340.34 89.9799 331.892 72.1849C319.673 46.4489 319.22 39.2129 328.666 20.6479C332.885 12.3569 333.132 11.4569 332.114 8.06088C330.643 3.15188 327.954 0.939876 322.746 0.352876C319.089 -0.0591235 317.906 0.286877 315.204 2.56088ZM47.9788 171.042C26.1868 173.9 7.58281 190.787 2.50681 212.318C0.299813 221.675 0.299813 418.481 2.50681 427.838C6.74281 445.808 21.3568 461.602 38.9288 467.202C44.3758 468.938 48.9538 469.386 65.6698 469.821L85.8398 470.345L86.1698 487.461C86.5288 506.044 87.1918 508.477 92.5618 510.924C97.2048 513.039 100.936 512.343 104.601 508.678L108.001 505.278V487.678V470.078H236.001H364.001V487.678V505.278L367.401 508.678C371.066 512.343 374.797 513.039 379.44 510.924C384.81 508.477 385.473 506.044 385.832 487.461L386.162 470.345L406.332 469.821C423.048 469.386 427.626 468.938 433.073 467.202C450.645 461.602 465.259 445.808 469.495 427.838C471.702 418.481 471.702 221.675 469.495 212.318C465.276 194.421 450.964 178.898 433.073 172.813L426.501 170.578L240.001 170.448C137.426 170.376 51.0158 170.643 47.9788 171.042ZM430.087 195.198C437.188 198.528 442.551 203.891 445.881 210.992L448.501 216.578V320.078V423.578L445.881 429.164C442.551 436.265 437.188 441.628 430.087 444.958L424.501 447.578H236.001H47.5008L41.9148 444.958C34.8138 441.628 29.4508 436.265 26.1208 429.164L23.5008 423.578V320.078V216.578L26.1208 210.992C30.5218 201.606 38.6818 195.042 48.3448 193.112C50.6308 192.655 136.201 192.348 238.501 192.43L424.501 192.578L430.087 195.198ZM71.2138 214.585C64.7308 217.401 65.0008 212.813 65.0008 320.078C65.0008 427.253 64.7048 422.286 71.2788 425.406C75.6228 427.467 76.3628 427.475 80.5228 425.501C87.3428 422.264 87.0008 427.822 87.0008 320.145C87.0008 212.328 87.3068 217.357 80.5688 214.542C76.3058 212.761 75.4018 212.765 71.2138 214.585ZM135.214 214.585C128.731 217.401 129.001 212.813 129.001 320.078C129.001 427.253 128.705 422.286 135.279 425.406C139.623 427.467 140.363 427.475 144.523 425.501C151.343 422.264 151.001 427.822 151.001 320.145C151.001 212.328 151.307 217.357 144.569 214.542C140.306 212.761 139.402 212.765 135.214 214.585ZM199.214 214.585C192.731 217.401 193.001 212.813 193.001 320.078C193.001 427.253 192.705 422.286 199.279 425.406C203.623 427.467 204.363 427.475 208.523 425.501C215.343 422.264 215.001 427.822 215.001 320.145C215.001 212.328 215.307 217.357 208.569 214.542C204.306 212.761 203.402 212.765 199.214 214.585ZM263.214 214.585C256.731 217.401 257.001 212.813 257.001 320.078C257.001 427.253 256.705 422.286 263.279 425.406C267.653 427.481 268.349 427.481 272.723 425.406C279.297 422.286 279.001 427.253 279.001 320.078C279.001 212.335 279.307 217.357 272.569 214.542C268.306 212.761 267.402 212.765 263.214 214.585ZM327.214 214.585C320.731 217.401 321.001 212.807 321.001 320.145C321.001 427.822 320.659 422.264 327.479 425.501C331.639 427.475 332.379 427.467 336.723 425.406C343.297 422.286 343.001 427.253 343.001 320.078C343.001 212.335 343.307 217.357 336.569 214.542C332.306 212.761 331.402 212.765 327.214 214.585ZM391.214 214.585C384.731 217.401 385.001 212.807 385.001 320.145C385.001 427.822 384.659 422.264 391.479 425.501C395.639 427.475 396.379 427.467 400.723 425.406C407.297 422.286 407.001 427.253 407.001 320.078C407.001 212.335 407.307 217.357 400.569 214.542C396.306 212.761 395.402 212.765 391.214 214.585Z" fill="black"/>
</svg>
