<svg width="513" height="512" viewBox="0 0 513 512" fill="none" xmlns="http://www.w3.org/2000/svg">
<path fill-rule="evenodd" clip-rule="evenodd" d="M127.505 41.3455L0.505 82.6265L0.253 297.293L0 511.96H30.003H60.005V331.46V150.96H256.005H452.005V331.46V511.96H482.007H512.01L511.757 297.293L511.505 82.6265L384.505 41.3455C314.655 18.6415 256.83 0.0644531 256.005 0.0644531C255.18 0.0644531 197.355 18.6415 127.505 41.3455ZM90.005 195.96V210.96H256.005H422.005V195.96V180.96H256.005H90.005V195.96ZM90.005 255.96V270.96H256.005H422.005V255.96V240.96H256.005H90.005V255.96ZM90.005 315.96V330.96H256.005H422.005V315.96V300.96H256.005H90.005V315.96ZM90.005 436.46V511.96H165.505H241.005V436.46V360.96H165.505H90.005V436.46ZM271.005 436.46V511.96H346.505H422.005V436.46V360.96H346.505H271.005V436.46Z" fill="white"/>
</svg>
