<svg width="457" height="353" viewBox="0 0 457 353" fill="none" xmlns="http://www.w3.org/2000/svg">
<path fill-rule="evenodd" clip-rule="evenodd" d="M8.04665 3.2226C-0.584347 7.7866 0.00865504 0.344597 0.00865504 104.048V195.665L2.25866 198.971C3.49666 200.789 5.77866 203.218 7.33166 204.369L10.1557 206.461H153.332C295.537 206.461 296.533 206.447 299.974 204.426C301.879 203.306 304.354 200.831 305.474 198.926C307.481 195.509 307.509 194.19 307.509 103.961C307.509 2.1496 307.964 8.9176 300.774 3.7896L297.509 1.46059L154.942 1.19759L12.3737 0.933594L8.04665 3.2226ZM336.528 75.1066C336.254 75.8516 335.913 104.811 335.769 139.461L335.509 202.461L332.308 209.22C327.861 218.606 320.452 226.138 311.136 230.743L303.614 234.461L208.062 234.961C114.734 235.449 112.672 235.502 119.509 237.201C144.778 243.48 165.904 263.629 172.646 287.878L174.342 293.979L226.774 293.72L279.206 293.461L281.6 285.961C294.354 246.004 339.337 224.685 377.967 240.288C387.609 244.183 394.78 248.913 402.485 256.461C410.818 264.625 416.907 274.478 420.663 285.877L423.326 293.961L434.418 293.957C446.922 293.953 450.384 292.675 454.014 286.72C455.946 283.552 456.002 281.55 456.004 214.961L456.007 146.461L453.038 140.185C449.275 132.23 445.437 126.662 437.23 117.252C423.278 101.255 400.245 83.9716 384.653 77.8006C376.634 74.6276 376.206 74.5716 356.768 74.1646C340.793 73.8306 336.931 74.0106 336.528 75.1066ZM382.48 112.472C399.452 116.067 414.199 127.066 421.903 141.874C427.012 151.694 430.841 164.922 431.66 175.586L432.304 183.961H396.657H361.009V147.461V110.961L368.259 110.978C372.247 110.988 378.646 111.66 382.48 112.472ZM0.0126548 258.094C0.0156548 281.642 0.158656 283.695 2.00366 286.72C5.54766 292.534 9.18866 293.953 20.5697 293.957L30.6307 293.961L31.9557 288.791C32.6847 285.948 35.3237 279.535 37.8217 274.541C41.4797 267.225 44.0277 263.794 50.9377 256.877C58.0467 249.762 61.1386 247.494 69.0117 243.617C74.2347 241.045 81.6587 238.157 85.5087 237.201L92.5087 235.461L48.5087 234.908C24.3087 234.605 3.49666 233.99 2.25866 233.542L0.00865504 232.728L0.0126548 258.094ZM89.8066 265.892C81.7536 268.466 76.2717 271.932 70.3547 278.188C64.4627 284.418 61.6207 289.513 59.5037 297.641C53.0277 322.504 69.7517 347.545 95.8787 352.105C108.851 354.369 123.679 349.421 133.574 339.526C150.782 322.319 151.057 294.991 134.198 277.633C122.542 265.632 105.071 261.011 89.8066 265.892ZM340.755 265.047C336.152 266.131 327.69 270.347 323.078 273.853C317.471 278.115 311.199 287.526 308.882 295.153C305.766 305.413 306.474 317.084 310.771 326.266C319.353 344.606 339.145 355.401 358.008 352.03C392.903 345.794 407.382 304.448 383.771 278.461C373.192 266.817 355.997 261.454 340.755 265.047Z" fill="white"/>
</svg>
