<svg width="513" height="512" viewBox="0 0 513 512" fill="none" xmlns="http://www.w3.org/2000/svg">
<path fill-rule="evenodd" clip-rule="evenodd" d="M394.034 1.5645C370.165 7.9785 355.584 34.3515 362.905 57.8705C366.536 69.5375 375.822 80.4535 386.045 85.0745L391.01 87.3185V137.883V188.45L359.27 220.202L327.529 251.954L345.008 286.957C354.622 306.209 362.637 321.961 362.82 321.961C364.165 321.961 389.01 308.615 389.01 307.892C389.01 307.386 383.501 295.942 376.767 282.462L364.525 257.952L385.267 237.21L406.01 216.467L426.753 237.21L447.495 257.952L435.253 282.462C428.519 295.942 423.01 307.386 423.01 307.892C423.01 308.615 447.855 321.961 449.2 321.961C449.383 321.961 457.398 306.209 467.012 286.957L484.491 251.954L452.75 220.202L421.01 188.45V137.883V87.3185L425.975 85.0745C440.512 78.5045 451.01 61.6845 451.01 44.9615C451.01 15.4905 422.636 -6.1215 394.034 1.5645ZM236.248 29.3985C180.554 39.4375 134.776 47.8615 134.52 48.1185C134.264 48.3745 136.253 50.2615 138.941 52.3115C151.003 61.5095 163.835 77.6825 170.187 91.6915C181.892 117.506 182.603 147.472 172.134 173.712C170.982 176.599 170.413 178.962 170.87 178.962C171.472 178.962 336.219 117.608 361.342 108.028L364.174 106.948L359.277 103.078C335.179 84.0295 325.125 49.0235 335.693 20.9615C339.1 11.9145 339.362 10.9485 338.377 11.0525C337.9 11.1035 291.942 19.3585 236.248 29.3985ZM59.3747 61.3905C44.6577 64.7445 32.7927 71.3085 22.0747 82.0265C6.33672 97.7655 -0.706278 116.032 0.315722 138.462C1.79072 170.803 22.2397 197.136 53.5097 206.965C64.2547 210.342 81.0797 210.838 92.0347 208.1C120.886 200.89 142.518 178.548 148.686 149.592C150.955 138.942 150.038 122.772 146.581 112.461C138.616 88.7045 121.304 71.3895 97.5097 63.3795C87.6557 60.0625 69.3847 59.1095 59.3747 61.3905ZM90.0097 134.962V149.962H75.0097H60.0097V134.962V119.961H75.0097H90.0097V134.962ZM157.51 215.367C139.36 222.069 120.448 229.199 115.483 231.212C103.503 236.068 96.5277 237.823 84.5097 239.003C73.0287 240.13 59.0987 238.968 48.3527 235.988C44.6047 234.949 41.3897 234.248 41.2077 234.43C41.0257 234.612 54.5987 262.144 71.3707 295.611C104.511 361.741 106.627 365.228 119.32 374.647C149.768 397.239 191.331 394.597 217.524 368.403C233.111 352.816 240.895 332.545 239.758 310.502C239.394 303.441 238.469 298.17 236.642 292.74C233.206 282.53 193.362 202.931 191.758 203.072C191.071 203.132 175.66 208.665 157.51 215.367ZM331.01 420.961V481.961H300.51H270.01V466.961V451.961H255.01H240.01V419.882V387.802L233.463 393.711C207.859 416.82 170.322 425.168 136.161 415.353C120.74 410.922 105.898 402.697 95.3877 392.757L90.0097 387.671V419.816V451.961H75.0097H60.0097V481.961V511.961H286.01H512.01V496.961V481.961H496.51H481.01V420.961V359.961H451.01H421.01V389.961V419.961H406.01H391.01V389.961V359.961H361.01H331.01V420.961Z" fill="white"/>
</svg>
