<svg width="512" height="464" viewBox="0 0 512 464" fill="none" xmlns="http://www.w3.org/2000/svg">
<path fill-rule="evenodd" clip-rule="evenodd" d="M150.507 0.583552C117.624 2.73855 83.2264 9.85355 58.5134 19.6126C31.7874 30.1656 11.2274 45.2366 3.92142 59.6306C0.991423 65.4026 0.507423 67.3606 0.507423 73.4306C0.507423 79.3896 1.01942 81.5436 3.75742 87.1056C11.9904 103.829 37.5144 120.663 71.7114 131.924C102.128 141.94 132.2 146.37 170.007 146.401C219.289 146.443 259.183 138.695 293.876 122.346C324.12 108.093 341.132 90.4946 341.132 73.4616C341.132 42.2286 283.814 10.9606 211.007 2.47555C197.706 0.925552 162.219 -0.184448 150.507 0.583552ZM0.180423 165.212C0.486423 177.616 0.699423 178.842 3.50742 184.407C11.9884 201.212 37.6874 218.273 71.1594 229.32C99.6954 238.737 125.179 242.846 160.142 243.667L184.777 244.245L190.445 232.632C196.191 220.861 205.412 205.98 211.79 198.187C213.715 195.835 215.032 193.654 214.717 193.339C214.403 193.024 207.52 193.323 199.423 194.003C172.623 196.253 130.43 194.212 102.507 189.315C67.4764 183.172 30.7934 170.326 7.73942 156.13C4.01742 153.837 0.720423 151.962 0.412423 151.962C0.104423 151.962 -0.00057739 157.925 0.180423 165.212ZM349.007 171.635C330.558 174.594 317.901 178.18 305.213 184.042C236.609 215.737 202.975 293.22 227.032 364.148C231.033 375.945 240.234 393.647 247.585 403.693C255.935 415.102 272.009 430.524 283.585 438.23C301.855 450.393 320.181 457.811 341.507 461.677C353.645 463.877 378.351 463.819 390.835 461.561C410.043 458.086 429.623 450.265 445.777 439.613C487.396 412.172 512.058 366.544 511.99 317.113C511.956 292.725 506.812 271.834 495.505 250.16C488.147 236.055 480.26 225.317 468.956 214.013C446.386 191.443 419.312 177.688 387.043 172.397C379.297 171.126 355.188 170.644 349.007 171.635ZM0.164423 262.592C0.509423 276.066 0.613423 276.635 3.80642 282.532C14.8874 302.992 48.9474 322.37 92.1594 332.797C113.226 337.881 132.341 340.473 157.007 341.59L171.507 342.247V317.604C171.507 304.051 171.282 292.958 171.007 292.952C160.518 292.752 128.358 290.525 119.507 289.386C94.1144 286.12 65.2354 279.181 45.1824 271.529C33.2674 266.982 14.9944 258.289 7.99342 253.837C4.97642 251.918 1.90042 249.982 1.15842 249.535C0.0464226 248.865 -0.127577 251.153 0.164423 262.592ZM0.180423 360.212C0.486423 372.616 0.699423 373.842 3.50742 379.407C16.9414 406.027 67.3094 429.187 129.007 437.113C140.758 438.623 199.241 439.019 207.302 437.644L212.098 436.826L208.579 432.144C202.683 424.299 195.261 411.751 189.992 400.721L184.987 390.242L161.247 389.678C128.164 388.892 103.652 385.685 75.5074 378.458C50.9854 372.162 24.6444 361.54 7.73942 351.13C4.01742 348.837 0.720423 346.962 0.412423 346.962C0.104423 346.962 -0.00057739 352.924 0.180423 360.212Z" fill="white"/>
</svg>
