<svg width="392" height="513" viewBox="0 0 392 513" fill="none" xmlns="http://www.w3.org/2000/svg">
<path fill-rule="evenodd" clip-rule="evenodd" d="M67.9901 2.32812C60.5481 7.39313 58.3731 14.1481 61.8941 21.2641C66.1901 29.9451 63.8062 29.5411 112.557 29.8581L155.615 30.1381L158.956 27.8581C168.102 21.6161 168.189 8.67612 159.125 2.51712L155.536 0.078125H113.416C71.3821 0.078125 71.2891 0.0831251 67.9901 2.32812ZM232.875 2.51712C223.837 8.65812 223.872 21.7781 232.943 27.8381L236.385 30.1381L279.443 29.8581C328.194 29.5411 325.81 29.9451 330.106 21.2641C333.627 14.1481 331.452 7.39313 324.01 2.32812C320.711 0.0831251 320.618 0.078125 278.584 0.078125H236.464L232.875 2.51712ZM52.5001 53.1291C27.7791 56.5341 8.23415 74.2031 1.93215 98.8441C0.0641478 106.149 0.000148046 111.451 0.015148 259.988C0.031148 430.509 -0.395852 419.512 6.77915 434.078C11.3941 443.449 21.7421 454.232 31.1011 459.422C37.9081 463.198 50.8301 467.078 56.5961 467.078H59.8712L60.1861 484.508C60.5341 503.826 60.8961 505 67.9901 509.828C74.8441 514.493 85.2091 511.41 89.0001 503.578C90.7471 499.968 91.0001 497.403 91.0001 483.262V467.078H196H301V483.262C301 497.403 301.253 499.968 303 503.578C306.791 511.41 317.156 514.493 324.01 509.828C331.104 505 331.466 503.826 331.814 484.508L332.129 467.078H335.404C341.17 467.078 354.092 463.198 360.899 459.422C370.314 454.201 380.601 443.456 385.293 433.943C392.421 419.493 392.06 429.374 391.765 256.818L391.5 101.578L389.282 95.0631C382.864 76.2061 368.358 61.6851 349.578 55.3171L341.5 52.5781L200 52.4401C122.175 52.3641 55.8001 52.6741 52.5001 53.1291ZM344.623 86.2811C347.441 87.7671 351.57 91.0551 353.798 93.5861C361.559 102.402 361.001 89.4621 360.99 260.506L360.98 413.578L358.645 418.578C355.237 425.877 351.689 429.578 344.8 433.02L338.681 436.078H196H53.3191L47.2001 433.02C40.2561 429.55 36.7202 425.838 33.3282 418.461L30.9751 413.344L31.2381 258.461C31.4871 111.275 31.5901 103.414 33.3071 100.268C37.5841 92.4321 45.6271 85.9551 53.5001 84.0081C55.1501 83.6001 120.175 83.3361 198 83.4221L339.5 83.5781L344.623 86.2811ZM75.8731 121.586C66.0531 124.729 58.9051 136.29 60.4431 146.545C61.3711 152.734 65.9951 159.403 71.6721 162.74C75.6531 165.08 77.6541 165.578 83.0781 165.578C88.6561 165.578 90.4021 165.117 94.5521 162.552C97.5861 160.676 100.598 157.664 102.474 154.63C105.049 150.465 105.5 148.742 105.5 143.078C105.5 137.414 105.049 135.691 102.474 131.526C96.7991 122.347 86.0471 118.33 75.8731 121.586ZM151.838 121.205C147.101 122.538 140.462 128.252 137.966 133.146C135.333 138.305 135.308 147.815 137.912 152.868C141.96 160.721 150.488 166.091 158.876 166.068C160.869 166.063 164.768 165.002 167.541 163.711C181.38 157.267 185.444 140.34 175.924 128.799C170.288 121.967 160.31 118.821 151.838 121.205ZM226.558 121.57C217.411 124.828 212.038 131.735 211.277 141.211C210.453 151.477 215.055 159.332 224.459 163.711C230.34 166.45 235.036 166.682 241.121 164.535C250.179 161.34 256 152.945 256 143.078C256 135.651 253.695 130.684 247.976 125.789C241.746 120.456 233.979 118.926 226.558 121.57ZM301.885 121.458C296.276 123.462 292.259 126.781 289.254 131.893C287.003 135.723 286.5 137.778 286.5 143.156C286.5 148.734 286.961 150.48 289.526 154.63C291.402 157.664 294.414 160.676 297.448 162.552C307.619 168.84 321.536 165.61 327.967 155.468C335.995 142.811 329.832 125.778 315.706 121.583C309.613 119.774 306.671 119.747 301.885 121.458ZM83.0001 204.004C73.9271 206.806 65.6091 214.331 62.4061 222.637C60.5901 227.345 60.5001 231.259 60.5001 305.578V383.578L62.8582 388.792C65.7942 395.286 72.9961 402.142 79.5281 404.661C84.3221 406.509 88.4962 406.578 196 406.578C303.504 406.578 307.678 406.509 312.472 404.661C319.004 402.142 326.206 395.286 329.142 388.792L331.5 383.578V305.578C331.5 231.259 331.41 227.345 329.594 222.637C327.176 216.367 321.016 209.657 314.54 206.239L309.5 203.578L197.5 203.405C135.9 203.31 84.3751 203.58 83.0001 204.004ZM301 305.078V376.078H196H91.0001V305.078V234.078H196H301V305.078Z" fill="black"/>
</svg>
