<svg width="416" height="512" viewBox="0 0 416 512" fill="none" xmlns="http://www.w3.org/2000/svg">
<path fill-rule="evenodd" clip-rule="evenodd" d="M186 0.861781C121.331 7.46078 71.281 33.2058 36.345 77.8438C13.745 106.72 0 147.811 0 186.5C0 223.642 14.851 262.837 38.261 287.482C50.569 300.439 66.834 310.855 72.527 309.427C75.894 308.582 76.677 306.562 82.513 283.671L87.274 264.998L85.387 261.993C84.349 260.341 81.443 255.919 78.929 252.167C70.298 239.286 64.49 223.698 61.483 205.344C57.61 181.707 62.042 155.477 73.988 131.344C81.004 117.172 87.29 108.226 97.801 97.4558C125.037 69.5518 162.579 54.8058 206.243 54.8618C246.802 54.9138 280.084 66.9778 305.302 90.7678C319.107 103.79 332.135 125.206 336.982 142.844C346.617 177.909 342.158 225.473 325.943 260.586C318.224 277.301 304.772 294.623 291.707 304.672C268.741 322.336 235.316 327.276 214.64 316.061C198.862 307.502 189.755 291.083 191.344 274.06C191.978 267.273 196.59 250.618 205.526 222.844C216.068 190.082 219.006 177.096 218.988 163.344C218.969 149.009 215.625 139.634 207.392 130.831C199.39 122.277 185.228 117.971 171.493 119.916C148.322 123.198 129.398 142.597 121.811 170.844C119.873 178.06 119.534 181.76 119.563 195.344C119.6 212.533 121.324 222.863 126.232 235.295L128.582 241.245L109.26 319.247C98.633 362.148 89.209 401.545 88.318 406.796C86.084 419.966 86.148 455.021 88.446 476.319C91.797 507.381 93.514 513.82 97.769 511.274C101.796 508.865 125.063 471.672 136.197 449.844C146.16 430.314 150.288 418.502 161.679 376.935L172.288 338.222L180.394 346.378C202.913 369.037 237.329 377.138 277.893 369.329C357.969 353.912 416 274.785 416 181.017C416 163.764 414.789 153.637 410.85 137.936C398.189 87.4738 363.438 46.0198 313.5 21.8098C293.839 12.2778 273.831 6.09278 250.285 2.26678C238.831 0.405781 199.001 -0.464219 186 0.861781Z" fill="#B2B2B2"/>
</svg>
