<svg width="418" height="497" viewBox="0 0 418 497" fill="none" xmlns="http://www.w3.org/2000/svg">
<path fill-rule="evenodd" clip-rule="evenodd" d="M155.455 2.53312L153 4.98713V40.0781V75.1691L155.455 77.6231C157.47 79.6391 158.9 80.0781 163.455 80.0781H169V113.847V147.616L159.25 149.961C88.0838 167.08 28.8308 224.232 8.93781 294.942C1.60881 320.991 1.64281 320.556 1.24381 393.315L0.882812 459.052L3.39581 461.565C5.72881 463.898 6.59281 464.078 15.4548 464.078H24.9998V477.623C24.9998 490.672 25.0898 491.259 27.4548 493.623C29.8888 496.058 30.0638 496.078 48.9998 496.078C67.9358 496.078 68.1108 496.058 70.5448 493.623C72.9098 491.259 72.9998 490.672 72.9998 477.623V464.078H209H345V477.623C345 490.672 345.09 491.259 347.455 493.623C349.889 496.058 350.064 496.078 369 496.078C387.936 496.078 388.111 496.058 390.545 493.623C392.91 491.259 393 490.672 393 477.623V464.078H402.545C411.407 464.078 412.271 463.898 414.604 461.565L417.117 459.052L416.756 393.315C416.357 320.556 416.391 320.991 409.062 294.942C395.789 247.765 364.598 205.419 323 178.104C304.197 165.758 281.04 155.542 260.004 150.313L249.001 147.578L249 113.828V80.0781H254.545C259.1 80.0781 260.53 79.6391 262.545 77.6231L265 75.1691V40.0781V4.98713L262.545 2.53312L260.091 0.078125H209H157.909L155.455 2.53312ZM249 24.0781V32.0781H209H169V24.0781V16.0781H209H249V24.0781ZM249 56.0781V64.0781H209H169V56.0781V48.0781H209H249V56.0781ZM233 112.328V144.578H209H185V112.328V80.0781H209H233V112.328ZM224.699 161.086C258.237 164.055 288.293 174.586 315.606 192.937C364.284 225.643 394.789 277.403 399.968 336.078C400.526 342.403 400.987 370.191 400.991 397.828L401 448.078H385H369V413.116C369 379.769 368.9 377.887 366.846 372.397C363.94 364.629 356.449 357.138 348.681 354.232L342.925 352.078H209H75.0748L69.3188 354.232C61.5508 357.138 54.0598 364.629 51.1538 372.397C49.0998 377.887 48.9998 379.769 48.9998 413.116V448.078H32.9998H16.9998L17.0008 397.328C17.0018 332.171 18.3128 318.409 27.0598 291.772C54.4498 208.359 137.603 153.376 224.699 161.086ZM166.5 209.612C124.92 215.053 92.4518 230.173 73.3758 252.977C58.4418 270.829 48.9998 295.534 48.9998 316.754C48.9998 322.232 49.3588 323.528 51.4548 325.623L53.9088 328.078H209H364.091L366.545 325.623C368.641 323.528 369 322.232 369 316.754C369 288.429 353.698 257.839 330.011 238.811C311.677 224.084 280.22 212.756 247.5 209.1C234.601 207.659 178.726 208.012 166.5 209.612ZM241.5 225.111C255.414 226.416 273.066 230.032 285.133 234.049C315.013 243.996 332.95 258.877 344.536 283.334C348.133 290.926 352 304.368 352 309.28V312.162L344.383 311.87L336.767 311.578L334.91 304.255C329.425 282.62 313.437 265.108 292.333 257.616C267.695 248.869 257.366 247.804 202.444 248.346C154.59 248.819 152.044 249.082 131.5 255.671C105.19 264.108 89.1118 280.194 83.1158 304.078L81.2328 311.578L73.6168 311.87L65.9998 312.162V309.28C65.9998 304.368 69.8668 290.926 73.4638 283.334C81.7558 265.831 94.1078 252.446 110 243.742C124.573 235.761 148.924 228.395 168.103 226.168C173.271 225.568 178.85 224.92 180.5 224.727C187.647 223.894 231.463 224.17 241.5 225.111ZM264.062 266.912C276.714 269.506 290.606 274.071 296.677 277.629C306.825 283.576 317.18 297.742 319.484 308.828L320.159 312.078H209H97.8408L98.5158 308.828C100.82 297.742 111.175 283.576 121.323 277.629C130.161 272.449 150.086 266.9 166.5 265.047C170.35 264.612 191.5 264.366 213.5 264.501C250.027 264.724 254.417 264.934 264.062 266.912ZM344.038 370.328C347.298 371.972 349.106 373.78 350.75 377.04C352.949 381.4 353 382.258 353 414.79V448.078H209H64.9998V414.79C64.9998 382.258 65.0508 381.4 67.2498 377.04C68.8938 373.78 70.7018 371.972 73.9618 370.328L78.4238 368.078H209H339.576L344.038 370.328ZM118.158 386.646C109.115 391.22 104.441 399.679 105.196 410.107C105.751 417.787 109.817 424.452 116.448 428.552C120.781 431.23 122.223 431.578 129 431.578C135.777 431.578 137.219 431.23 141.552 428.552C144.586 426.676 147.598 423.664 149.474 420.63C152.152 416.297 152.5 414.855 152.5 408.078C152.5 401.301 152.152 399.859 149.474 395.526C142.893 384.883 129.278 381.022 118.158 386.646ZM198.158 386.646C189.115 391.22 184.441 399.679 185.196 410.107C185.751 417.787 189.817 424.452 196.448 428.552C200.781 431.23 202.223 431.578 209 431.578C215.777 431.578 217.219 431.23 221.552 428.552C224.586 426.676 227.598 423.664 229.474 420.63C232.152 416.297 232.5 414.855 232.5 408.078C232.5 401.301 232.152 399.859 229.474 395.526C222.893 384.883 209.278 381.022 198.158 386.646ZM278.158 386.646C269.115 391.22 264.441 399.679 265.196 410.107C265.751 417.787 269.817 424.452 276.448 428.552C280.781 431.23 282.223 431.578 289 431.578C295.777 431.578 297.219 431.23 301.552 428.552C304.586 426.676 307.598 423.664 309.474 420.63C312.152 416.297 312.5 414.855 312.5 408.078C312.5 401.301 312.152 399.859 309.474 395.526C302.893 384.883 289.278 381.022 278.158 386.646ZM134.077 403.001C135.685 404.609 137 406.893 137 408.078C137 410.862 131.784 416.078 129 416.078C126.216 416.078 121 410.862 121 408.078C121 405.294 126.216 400.078 129 400.078C130.185 400.078 132.469 401.393 134.077 403.001ZM214.077 403.001C215.685 404.609 217 406.893 217 408.078C217 410.862 211.784 416.078 209 416.078C206.216 416.078 201 410.862 201 408.078C201 405.294 206.216 400.078 209 400.078C210.185 400.078 212.469 401.393 214.077 403.001ZM294.077 403.001C295.685 404.609 297 406.893 297 408.078C297 410.862 291.784 416.078 289 416.078C287.815 416.078 285.531 414.763 283.923 413.155C282.315 411.547 281 409.263 281 408.078C281 406.893 282.315 404.609 283.923 403.001C285.531 401.393 287.815 400.078 289 400.078C290.185 400.078 292.469 401.393 294.077 403.001ZM56.9998 472.078V480.078H48.9998H40.9998V472.078V464.078H48.9998H56.9998V472.078ZM377 472.078V480.078H369H361V472.078V464.078H369H377V472.078Z" fill="black"/>
</svg>
