<svg width="126" height="95" viewBox="0 0 126 95" fill="none" xmlns="http://www.w3.org/2000/svg">
<path fill-rule="evenodd" clip-rule="evenodd" d="M37.9832 1.02982C34.9622 2.27982 32.7752 5.06883 20.1852 23.7318C6.95122 43.3498 4.30922 48.1808 1.91122 57.1468C-0.590783 66.5008 -0.648774 84.6828 1.81123 88.4458C4.81323 93.0398 9.34722 94.2888 21.6352 93.9098C32.2302 93.5828 32.5132 93.5128 35.5792 90.4438C39.5932 86.4268 40.3842 82.2278 40.4392 64.6608L40.4832 50.7468L50.3602 28.6608C55.7932 16.5138 60.4992 5.80183 60.8182 4.85483C62.0092 1.32183 58.9192 0.071824 49.1622 0.138824C44.1132 0.173824 39.0832 0.574815 37.9832 1.02982ZM101.74 1.56383C99.1792 2.67683 95.5692 7.39782 84.5602 24.0298C70.0852 45.8988 67.3582 51.3898 65.4072 62.5878C63.9612 70.8958 64.6012 85.7768 66.5362 88.8258C68.9982 92.7048 73.4692 94.0758 83.6342 94.0698C95.5522 94.0628 99.7612 92.8968 102.69 88.7908C104.818 85.8068 105.021 84.2838 105.516 67.5758L106.048 49.5758L115.766 27.2388C121.11 14.9528 125.483 4.28182 125.483 3.52382C125.483 2.76582 124.613 1.68082 123.549 1.11082C120.701 -0.413176 105.565 -0.0991729 101.74 1.56383Z" fill="#BBBBBB"/>
</svg>
