<svg width="512" height="512" viewBox="0 0 512 512" fill="none" xmlns="http://www.w3.org/2000/svg">
<path fill-rule="evenodd" clip-rule="evenodd" d="M299 0.820125C298.175 1.14212 231.445 45.4501 150.71 99.2821C42.452 171.468 3.407 198.002 1.964 200.369C0.045 203.516 0.007 206.443 0.004 352.68L0 501.782L2.27 505.18C7.208 512.572 -0.274002 512.12 112.5 511.834L213.5 511.578L360.436 413.519C441.251 359.587 508.301 314.217 509.436 312.696C511.497 309.935 511.5 309.721 511.754 160.755C511.993 20.2551 511.906 11.3761 510.254 8.09813C509.289 6.18413 506.971 3.59613 505.102 2.34812L501.704 0.078125L401.102 0.157125C345.771 0.200125 299.825 0.499125 299 0.820125ZM445.45 30.9841C444.928 31.4831 390.192 68.1611 323.816 112.491L203.132 193.092L134.495 192.835L65.858 192.578L187.179 111.429L308.5 30.2811L377.45 30.1791C418.701 30.1191 446.018 30.4421 445.45 30.9841ZM482 169.863V295.648L353.361 381.613C282.61 428.894 224.335 467.728 223.861 467.911C223.382 468.097 223 412.379 223 342.365V216.486L351.75 130.332C422.563 82.9471 480.837 44.1551 481.25 44.1281C481.663 44.1001 482 100.681 482 169.863ZM192.754 352.828L193.008 482.078H111.504H30V352.572V223.066L111.25 223.322L192.5 223.578L192.754 352.828Z" fill="black"/>
</svg>
