<svg width="512" height="512" viewBox="0 0 512 512" fill="none" xmlns="http://www.w3.org/2000/svg">
	<path fill-rule="evenodd" clip-rule="evenodd"
		d="M176.872 1.48604C133.559 7.35104 94.7566 25.958 63.4836 55.859C30.8396 87.071 11.0546 123.729 2.76459 168.359C0.176592 182.294 -0.822408 210.357 0.756592 224.763C7.98059 290.679 44.9196 347.522 102.113 380.736C131.059 397.546 161.622 406.233 196.42 407.539C230.9 408.834 263.912 401.839 294.128 386.837C305.676 381.104 321.532 371.243 329.321 364.951L333.27 361.762L406.821 435.276C458.339 486.768 481.486 509.25 484.09 510.324C491.145 513.236 500.189 511.664 505.74 506.561C511.346 501.408 513.381 491.452 510.337 484.077C509.263 481.473 486.781 458.326 435.289 406.808L361.775 333.257L364.964 329.308C371.081 321.735 380.98 305.904 386.308 295.17C399.857 267.878 406.478 241.773 407.576 211.311C408.519 185.151 405.472 163.679 397.324 139.068C382.067 92.985 350.103 53.401 307.544 27.885C284.511 14.075 254.565 4.12104 226.372 0.90304C213.977 -0.51196 189.501 -0.22396 176.872 1.48604ZM230.372 42.332C299.242 53.693 352.763 106.726 365.015 175.748C367.865 191.807 367.872 215.876 365.03 231.881C361.247 253.186 352.697 275.082 341.318 292.607C296.572 361.517 208.78 386.594 134.068 351.805C61.6176 318.069 24.2676 235.357 46.7136 158.359C50.4796 145.439 52.8006 139.716 59.5526 126.7C66.8616 112.61 78.4536 97.358 90.6566 85.775C118.752 59.107 150.798 44.691 191.372 40.469C198.501 39.727 221.135 40.808 230.372 42.332ZM195.879 87.452C191.336 89.422 188.133 92.471 185.775 97.069C183.995 100.54 183.872 103.454 183.872 142.319V183.859H142.332C103.467 183.859 100.553 183.982 97.0816 185.762C81.6866 193.657 82.3026 215.709 98.1036 222.311C101.243 223.623 108.067 223.859 142.84 223.859H183.872V265.399C183.872 304.655 183.98 307.149 185.828 310.773C193.251 325.323 213.904 325.426 221.545 310.952L223.872 306.544V265.202V223.859H265.215H306.557L310.965 221.532C325.439 213.891 325.336 193.238 310.786 185.815C307.162 183.967 304.668 183.859 265.412 183.859H223.872L223.85 142.609C223.83 104.644 223.681 101.04 221.982 97.359C217.498 87.644 205.733 83.179 195.879 87.452Z"
		fill="white" />
</svg>