<svg width="477" height="477" viewBox="0 0 477 477" fill="none" xmlns="http://www.w3.org/2000/svg">
<path fill-rule="evenodd" clip-rule="evenodd" d="M424.87 0.234795C423.22 0.486795 403.195 6.2598 380.37 13.0638C357.545 19.8678 323.57 29.9958 304.87 35.5698C286.17 41.1428 249.945 51.9508 224.37 59.5868C198.795 67.2218 146.82 82.6948 108.87 93.9708C67.3306 106.314 37.3646 115.738 33.5756 117.651C18.2266 125.401 9.3356 139.898 9.0986 157.565C8.9576 168.026 11.1756 175.616 16.8246 184.007C24.6206 195.585 24.0896 195.321 113.407 232.101C158.212 250.552 197.209 266.776 200.068 268.154C203.21 269.67 206.037 271.928 207.215 273.863C208.287 275.624 224.545 314.415 243.343 360.065C262.141 405.715 278.889 445.21 280.56 447.831C286.72 457.492 297.455 464.647 309.594 467.181C330.399 471.524 352.06 460.429 360.627 441.041C363.399 434.767 475.265 58.7578 476.356 52.0478C479.729 31.2978 466.357 9.6138 445.835 2.5528C440.247 0.630796 429.826 -0.522205 424.87 0.234795ZM439.448 31.8388C444.462 35.2178 447.37 40.1038 447.37 45.1488C447.37 50.3668 335.13 427.816 332.464 431.565C329.216 436.132 324.521 438.565 318.957 438.565C312.361 438.565 307.472 435.956 304.715 430.966C303.529 428.82 287.839 391.29 269.848 347.565C251.856 303.84 236.544 266.908 235.82 265.494C234.523 262.961 235.085 262.341 273.002 224.494C294.176 203.358 312.146 184.85 312.935 183.365C316.347 176.942 313.604 167.289 307.464 164.114C303.71 162.172 297.111 162.118 293.57 164C292.085 164.789 273.577 182.759 252.441 203.933C214.574 241.869 213.975 242.412 211.441 241.11C210.027 240.383 173.095 225.067 129.37 207.074C85.6446 189.082 48.1356 173.397 46.0166 172.22C36.9306 167.175 35.7126 153.043 43.7276 145.653C47.2556 142.4 423.066 29.8458 430.972 29.6748C434.753 29.5938 436.948 30.1538 439.448 31.8388ZM52.8696 249.399C51.2196 250.469 38.9956 262.307 25.7046 275.705C5.5696 296.002 1.3626 300.737 0.474596 304.097C-2.3794 314.904 8.1406 325.106 18.5846 321.659C20.8916 320.898 30.0666 312.397 48.1496 294.267L74.3696 267.978V262.676C74.3696 253.698 69.6386 248.467 60.9396 247.827C57.1466 247.548 55.1136 247.944 52.8696 249.399ZM131.87 326.002C130.22 326.749 108.545 347.769 83.7036 372.713C46.6456 409.924 38.3586 418.738 37.5346 421.815C34.7436 432.242 44.3096 441.947 55.0016 439.535C58.1646 438.822 65.6476 431.794 104.151 393.379C129.792 367.797 150.179 346.664 150.969 344.847C152.874 340.472 152.734 337.948 150.31 332.941C148.814 329.851 147.084 328.121 143.994 326.625C139.083 324.248 136.084 324.094 131.87 326.002ZM207.87 404.459C206.22 405.496 193.767 417.532 180.196 431.205C159.257 452.302 155.42 456.623 154.847 459.75C152.939 470.16 162.613 479.16 172.815 476.466C176.211 475.569 180.903 471.388 201.694 450.73C215.347 437.164 227.159 424.85 227.944 423.365C231.155 417.286 228.705 408.171 222.896 404.581C218.717 401.998 211.872 401.943 207.87 404.459Z" fill="white"/>
</svg>
