<svg width="513" height="513" viewBox="0 0 513 513" fill="none" xmlns="http://www.w3.org/2000/svg">
<path fill-rule="evenodd" clip-rule="evenodd" d="M24.9022 24.293C0.698225 48.497 0.609227 48.602 0.609227 52.893C0.609227 56.458 1.19523 57.786 4.00923 60.6C6.81323 63.404 8.15723 64 11.6762 64C15.8102 64 16.3592 63.588 29.2762 50.798L42.6092 37.595V242.798V448H25.0092H7.40923L4.00923 451.4C-0.110773 455.52 -0.655773 461.122 2.65423 465.331C5.62823 469.11 10.2772 469.988 27.3592 469.994L42.6092 470L42.6152 485.25C42.6212 502.332 43.4992 506.981 47.2782 509.955C51.4872 513.265 57.0892 512.72 61.2092 508.6L64.6092 505.2V487.6V470H269.811H475.014L461.811 483.333C449.021 496.25 448.609 496.799 448.609 500.933C448.609 504.452 449.205 505.796 452.009 508.6C454.832 511.423 456.146 512 459.754 512C464.096 512 464.114 511.985 488.354 487.689C512.012 463.977 512.609 463.28 512.609 459.34C512.609 456.454 511.784 454.186 509.722 451.4C504.755 444.688 466.261 407.187 463.119 405.999C455.984 403.299 448.609 408.507 448.609 416.247C448.609 420.166 449.192 420.928 462.313 434.17L476.017 448H270.313H64.6092V242.296V36.592L78.4392 50.296C91.6812 63.417 92.4432 64 96.3622 64C104.102 64 109.31 56.625 106.61 49.49C105.422 46.348 67.9212 7.854 61.2092 2.887C58.4162 0.82 56.1572 0 53.2522 0C49.2872 0 48.6422 0.552999 24.9022 24.293ZM204.109 112.609C150.215 133.401 132.567 140.616 130.859 142.556L128.609 145.112V234.54V323.968L131.359 326.9C133.595 329.284 147.295 334.891 204.697 356.916C243.521 371.812 276.519 384 278.025 384C280.454 384 414.972 332.904 421.842 329.371C427.855 326.28 427.609 330.327 427.605 234.3C427.602 150.243 427.522 146.369 425.728 143.428C424.002 140.597 418.198 138.181 351.856 112.678C312.257 97.455 278.789 85.049 277.483 85.109C276.177 85.169 243.159 97.544 204.109 112.609ZM331.537 128.177C360.452 139.275 384.445 148.633 384.855 148.974C385.266 149.314 361.394 158.9 331.807 170.276L278.012 190.96L224.311 170.313C194.775 158.957 170.853 149.423 171.15 149.126C171.971 148.305 275.9 108.238 277.537 108.111C278.322 108.05 302.622 117.08 331.537 128.177ZM405.609 238.797V312.593L347.847 334.797C316.078 347.008 289.753 357 289.347 357C288.941 357 288.609 323.987 288.609 283.637V210.274L346.859 187.743C378.897 175.351 405.222 165.165 405.359 165.106C405.496 165.048 405.609 198.208 405.609 238.797ZM209.219 187.884L266.109 209.769L266.365 283.494C266.609 353.456 266.532 357.185 264.865 356.558C263.899 356.195 237.797 346.17 206.859 334.28L150.609 312.663V239.331C150.609 198.999 150.996 166 151.469 166C151.942 166 177.929 175.848 209.219 187.884Z" fill="#6989AD"/>
</svg>
