<svg display="none" xmlns="http://www.w3.org/2000/svg">

	<symbol id="tel" viewBox="0 0 513 512">
		<path fill-rule="evenodd" clip-rule="evenodd"
			d="M121.415 1.57103C58.2643 11.871 9.30328 62.502 1.34328 125.738C-0.267721 138.539 0.728279 172.041 3.28528 191.076C14.3593 273.502 49.9963 345.754 108.366 404.125C167.321 463.08 240.892 498.955 324.915 509.719C344.969 512.288 384.531 512.305 396.391 509.75C438.671 500.64 472.792 476.055 493.786 439.576C505.85 418.613 513.307 390.408 512.261 369.694C511.618 356.968 517.603 360.14 422.47 322.104C372.888 302.28 338.555 289.076 336.59 289.076C332.708 289.076 328.78 290.96 325.63 294.333C324.372 295.68 316.875 312.924 308.959 332.678L294.574 368.576L288.245 368.24C265.945 367.058 236.51 356.345 213.373 340.989C200.613 332.521 179.97 311.878 171.502 299.118C156.057 275.847 145.352 246.454 144.234 224.246L143.915 217.917L179.813 203.532C199.567 195.616 216.811 188.119 218.158 186.861C221.531 183.711 223.415 179.783 223.415 175.901C223.415 173.936 210.211 139.603 190.387 90.021C161.49 17.746 156.918 6.98603 153.834 3.99503C150.326 0.593028 150.259 0.575028 140.112 0.381028C134.504 0.273028 126.09 0.809028 121.415 1.57103ZM160.676 97.826C175.335 134.539 187.461 165.207 187.622 165.978C187.828 166.964 178.185 171.286 155.086 180.559C137.029 187.808 120.892 194.544 119.226 195.529C117.442 196.583 115.366 199.193 114.18 201.874C112.402 205.894 112.245 207.667 112.839 217.002C114.161 237.754 118.481 258.544 124.966 275.359C142.408 320.586 175.659 357.543 218.24 379.029C242.033 391.035 263.305 396.936 291.083 399.237C303.976 400.305 305.669 400.251 309.893 398.638C312.805 397.525 315.299 395.693 316.585 393.72C317.712 391.991 324.592 375.726 331.873 357.576C341.19 334.351 345.527 324.663 346.513 324.869C347.284 325.03 378.002 337.176 414.775 351.858L481.634 378.555L480.99 384.033C476.608 421.32 449.672 456.982 414.408 472.185C394.957 480.571 377.77 482.951 349.711 481.143C275.841 476.383 212.528 451.831 154.934 405.61C142.52 395.648 119.493 372.813 108.705 359.769C79.6233 324.605 57.6873 283.759 44.9353 241.028C31.2533 195.183 26.9613 143.274 34.4803 114.569C43.0313 81.92 67.6013 53.254 98.4223 39.967C109.098 35.365 123.256 31.556 130.97 31.212L134.024 31.076L160.676 97.826Z" />
	</symbol>


	<symbol id="mail" viewBox="0 0 513 385">
		<path fill-rule="evenodd" clip-rule="evenodd"
			d="M35.4963 1.66326C24.0873 4.73126 12.6383 13.6943 6.55929 24.3203C0.0702915 35.6613 0.413292 26.3083 0.413292 192.075C0.413292 357.842 0.0702915 348.489 6.55929 359.83C10.4773 366.679 17.8093 374.011 24.6583 377.929C36.1463 384.502 20.0413 384.075 256.413 384.075C492.785 384.075 476.68 384.502 488.168 377.929C495.017 374.011 502.349 366.679 506.267 359.83C512.756 348.489 512.413 357.842 512.413 192.075C512.413 26.3083 512.756 35.6613 506.267 24.3203C502.349 17.4713 495.017 10.1393 488.168 6.22127C476.673 -0.355733 492.868 0.0682655 255.953 0.141266C70.9533 0.197266 40.1563 0.410261 35.4963 1.66326ZM468.277 32.9703C469.268 33.5973 440.586 59.0163 363.357 125.954C304.901 176.621 256.796 218.075 256.457 218.075C256.119 218.075 208.002 176.616 149.532 125.943C73.1643 59.7603 43.6013 33.5713 44.5683 32.9583C46.3403 31.8353 466.504 31.8463 468.277 32.9703ZM139.645 160.309C197.298 210.285 246.095 252.276 248.081 253.624C252.266 256.465 258.908 256.905 263.302 254.633C264.836 253.839 314.201 211.494 373.002 160.533L479.913 67.8763L480.167 203.188L480.42 338.5L478.167 343.038C476.499 346.396 474.753 348.16 471.451 349.825L466.989 352.075H256.358H45.7283L41.3203 349.781C38.1893 348.151 36.2623 346.209 34.6633 343.069L32.4133 338.651V203.304C32.4133 98.0823 32.6813 68.1223 33.6163 68.7013C34.2783 69.1103 81.9913 110.333 139.645 160.309Z" />
	</symbol>

	<symbol id="mail2" viewBox="0 0 512 469.33">
		<g>
			<g>
				<path
					d="M405.33,0H106.67A106.8,106.8,0,0,0,0,106.67v256A106.79,106.79,0,0,0,106.67,469.33H405.33A106.79,106.79,0,0,0,512,362.67v-256A106.8,106.8,0,0,0,405.33,0ZM106.67,42.67H405.33a64,64,0,0,1,59.31,40.25L301.27,246.31a64.13,64.13,0,0,1-90.54,0L47.36,82.92A64,64,0,0,1,106.67,42.67Zm298.66,384H106.67a64,64,0,0,1-64-64v-224l137.9,137.81a106.8,106.8,0,0,0,150.86,0l137.9-137.81v224A64,64,0,0,1,405.33,426.67Z" />
			</g>
		</g>
	</symbol>

	<symbol id="location" viewBox="0 0 326 417">
		<path fill-rule="evenodd" clip-rule="evenodd"
			d="M140.412 1.09042C78.447 9.57442 27.939 51.2284 8.383 109.973C1.24 131.431 0 139.583 0 165.078C0 184.677 0.291002 188.932 2.26 198.078C7.286 221.43 18.183 247.186 30.011 263.672C35.026 270.661 134.882 392.688 147.185 406.861C153.496 414.131 156.713 416.078 162.412 416.078C167.487 416.078 170.868 414.356 175.505 409.41C180.961 403.59 284.917 276.864 292.674 266.578C305.632 249.393 317.261 222.776 322.393 198.551C325.13 185.632 326.171 159.274 324.49 145.474C318.461 95.9814 293.159 53.6964 253.911 27.5234C235.778 15.4314 217.223 7.60842 195.912 3.07142C184.598 0.661422 152.03 -0.500577 140.412 1.09042ZM186.908 34.6054C212.838 39.1284 239.301 53.3924 257.079 72.4284C273.868 90.4064 284.626 111.471 290.096 137.078C292.701 149.274 292.679 181.089 290.056 193.025C286.043 211.291 278.883 228.481 269.106 243.326C263.402 251.986 163.822 373.578 162.433 373.578C161.049 373.578 61.452 252.003 55.727 243.326C45.953 228.51 38.785 211.307 34.768 193.025C32.145 181.089 32.123 149.274 34.728 137.078C41.761 104.153 58.368 77.2904 83.284 58.5334C112.475 36.5594 149.327 28.0494 186.908 34.6054ZM147.487 81.1044C129.303 84.9254 111.693 95.4874 100.386 109.353C94.416 116.674 87.135 130.903 84.663 140.078C83.388 144.811 82.912 150.383 82.912 160.578C82.912 172.461 83.266 175.712 85.255 182.078C93.713 209.151 113.339 228.777 140.412 237.235C146.778 239.224 150.029 239.578 161.912 239.578C178.438 239.578 184.563 238.225 197.912 231.628C214.31 223.524 225.858 211.976 233.962 195.578C240.559 182.229 241.912 176.104 241.912 159.578C241.912 147.695 241.558 144.444 239.569 138.078C231.176 111.212 211.603 91.5114 184.912 83.0624C177.023 80.5654 155.428 79.4354 147.487 81.1044ZM177.831 115.049C197.488 121.815 209.734 139.054 209.818 160.078C209.88 175.535 202.94 189.277 190.415 198.497C171.306 212.564 143.586 210.009 127.64 192.71C118.876 183.202 114.916 172.777 115.056 159.578C115.308 135.731 131.105 117.384 155.412 112.706C160.17 111.791 171.937 113.02 177.831 115.049Z" />
	</symbol>

	<symbol id="phone" viewBox="0 0 512 512">
		<g>
			<g>
				<path
					d="M256,512C114.84,512,0,397.16,0,256S114.84,0,256,0,512,114.84,512,256,397.16,512,256,512Zm0-469.33C138.37,42.67,42.67,138.37,42.67,256S138.37,469.33,256,469.33,469.33,373.63,469.33,256,373.63,42.67,256,42.67Zm58.6,255.38L291.8,316.2c-44.18-16.87-76.78-48.13-96-96L214,197.4a24.38,24.38,0,0,0,0-34.48l-21.33-27.77a24.38,24.38,0,0,0-34.48,0l-12.8,11.13A59.86,59.86,0,0,0,128,189C128,274.28,243.82,384,323.05,384a59.86,59.86,0,0,0,42.67-17.34l11.13-12.8a24.38,24.38,0,0,0,0-34.48l-27.77-21.33a24.38,24.38,0,0,0-34.48,0Z" />
			</g>
		</g>
	</symbol>

	<symbol id="telegram" viewBox="0 0 513 442">
		<path fill-rule="evenodd" clip-rule="evenodd"
			d="M484.868 1.02075C482.87 1.49375 422.795 24.8018 351.368 52.8168C279.94 80.8308 175.375 121.832 119 143.928C62.625 166.024 14.073 185.534 11.107 187.282C4.164 191.375 0 196.949 0 202.151C0 209.236 5.773 217.126 14.263 221.647C16.044 222.594 43.053 231.969 74.285 242.479L131.071 261.588L168.285 237.929C377.577 104.874 418.226 79.1388 422.891 76.7368C435.467 70.2618 441.149 75.7298 432.189 85.6838C430.16 87.9378 403.054 112.66 371.954 140.622C340.854 168.583 289.666 214.61 258.204 242.902C226.742 271.195 201.022 294.595 201.048 294.902C201.075 295.21 243.156 327.636 294.563 366.961C359.551 416.676 389.472 438.981 392.765 440.167C399.352 442.541 409.665 442.462 415.422 439.995C420.923 437.636 427.962 430.67 430.237 425.331C432.01 421.171 512.039 18.3198 512.015 13.6788C511.991 9.12975 509.343 4.14075 505.81 1.98675C502.224 -0.200246 492.016 -0.670246 484.868 1.02075Z" />
	</symbol>

	<symbol id="vk" viewBox="0 0 513 300">
		<path fill-rule="evenodd" clip-rule="evenodd"
			d="M12.8659 0.942349C0.138907 3.19135 -2.53309 11.0013 2.42491 31.4603C13.5899 77.5233 49.6489 147.097 91.1459 202.641C118.159 238.799 148.247 264.273 184.184 281.412C213.062 295.185 244.477 301.517 271.466 299.005C287.989 297.468 294.373 294.819 297.629 288.151C299.25 284.833 299.406 281.784 299.175 257.96C298.918 231.331 299.854 217.766 302.212 213.99C305.421 208.853 317.67 208.792 328.291 213.861C342.652 220.714 365.076 239.753 388.476 264.96C409.55 287.661 415.897 293.556 422.694 296.74L428.499 299.46H463.499C497.362 299.46 498.652 299.389 503.222 297.278C524.363 287.512 508.274 257.485 449.488 196.994C420.735 167.407 419.999 166.489 419.999 160.186C419.999 155.784 422.268 151.564 432.335 137.25C475.834 75.4013 502.021 28.5993 501.995 12.7543C501.989 9.07134 498.257 3.97735 494.227 2.15035C490.958 0.668349 486.251 0.460346 455.999 0.460346C425.474 0.460346 420.974 0.66335 416.944 2.21835C409.531 5.08035 405.891 9.85435 397.664 27.5013C376.449 73.0113 349.483 114.369 328.295 133.892C315.865 145.345 307.281 147.933 302.598 141.638C300.531 138.86 300.491 137.858 299.999 75.6383C299.519 14.9723 299.419 12.3043 297.499 8.52535C296.399 6.36035 294.229 3.66035 292.676 2.52535C289.914 0.505349 288.787 0.460346 240.676 0.460346C185.973 0.460346 187.191 0.31635 182.959 7.25935C179.426 13.0514 180.734 18.1713 187.991 26.9603C193.745 33.9293 196.761 39.2453 199.75 47.6913L202.499 55.4603V107.96C202.499 149.851 202.226 161.108 201.146 163.667C199.422 167.751 194.459 169.665 189.801 168.041C177.363 163.705 156.186 137.173 135.731 100.298C123.107 77.5393 113.801 56.6723 99.6319 19.3523C98.1479 15.4423 95.2879 10.3213 93.2769 7.97235C86.9199 0.545348 86.6849 0.503349 49.9989 0.302349C32.1239 0.204349 15.4139 0.492349 12.8659 0.942349Z" />
	</symbol>

	<symbol id="youtube" viewBox="0 0 512 370">
		<path fill-rule="evenodd" clip-rule="evenodd"
			d="M197.999 0.663951C191.674 0.815951 171.874 1.62895 153.999 2.46995C99.9839 5.01295 72.4259 8.18294 58.3859 13.4669C37.7789 21.2239 20.1709 38.7739 11.7389 59.9609C4.02392 79.3479 -0.0050787 122.55 0.0039213 185.822C0.0099213 234.938 1.84292 263.755 6.62092 289.892C10.1269 309.066 15.3379 320.971 25.8469 333.814C32.8399 342.36 47.7029 352.453 59.4459 356.63C82.4239 364.803 153.516 369.413 256.499 369.407C350.693 369.401 419.187 365.597 445.942 358.884C460.808 355.155 476.856 345.076 486.757 333.25C505.369 311.021 510.631 282.421 511.696 197.714C512.826 107.843 507.407 65.9949 491.728 43.5179C481.815 29.3059 467.502 18.467 451.281 12.886C424.794 3.77295 306.462 -1.93705 197.999 0.663951ZM332.999 42C399.868 44.496 432.091 47.8359 443.591 53.4619C450.041 56.6179 458.381 65.3539 461.488 72.2079C469.157 89.1299 473.452 152.599 471.193 215.632C469.047 275.49 465.227 296.955 454.629 308.685C450.739 312.991 441.894 318.146 435.499 319.833C411.974 326.042 292.955 331.014 216.147 328.997C125.906 326.628 81.5659 322.898 68.6769 316.592C57.0089 310.883 49.4259 299.699 46.5539 283.961C41.3879 255.648 38.9869 200.915 40.8159 153.129C42.6009 106.463 45.4959 82.9079 50.8509 71.4629C56.1559 60.1269 66.6169 52.1819 79.8729 49.4219C98.2449 45.5969 149.234 42.466 223.999 40.57C242.416 40.103 303.724 40.908 332.999 42ZM204.999 184.961V266.143L210.889 262.802C239.632 246.498 344.925 185.351 344.928 184.961C344.931 184.572 240.204 123.754 210.887 107.12L204.999 103.779V184.961Z" />
	</symbol>

	<symbol id="search" viewBox="0 0 512.43 512.43">
		<g>
			<g>
				<path
					d="M506.44,476.27,379.1,348.93c74.7-91.35,61.19-226-30.17-300.67S123-12.93,48.26,78.43s-61.19,226,30.17,300.67a213.67,213.67,0,0,0,270.5,0L476.27,506.44a21.34,21.34,0,0,0,30.17-30.17ZM214,384.69A170.67,170.67,0,1,1,384.69,214,170.67,170.67,0,0,1,214,384.69Z" />
			</g>
		</g>
	</symbol>

	<symbol id="close" viewBox="0 0 512 512">
		<g>
			<g>
				<g>
					<polygon
						points="512 30.16 481.83 0 256 225.84 30.16 0 0 30.16 225.84 256 0 481.83 30.16 512 256 286.17 481.83 512 512 481.83 286.17 256 512 30.16" />
				</g>
			</g>
		</g>
	</symbol>

	<symbol id="right" viewBox="0 0 511.05 257.8">
		<g>
			<g>
				<path
					d="M377.5,1.46a12,12,0,0,0-5,16.25c.79,1.48,23.06,24.3,49.5,50.7l48.07,48-232.08.5-232.08.5a5,5,0,0,0-3,1.17,5.93,5.93,0,0,0-1.83,2.57A24.2,24.2,0,0,0,0,127.8a27.45,27.45,0,0,0,.49,6.7A4.86,4.86,0,0,0,3,138.22c6.86,2.74,40.66,2.69,236.69,2.69H470.55l-48.12,48.25c-26.46,26.54-48.84,49.36-49.74,50.72-3.55,5.38-1.19,13.59,4.72,16.39,4.43,2.1,5.91,2.06,10.43-.29,3.6-1.88,118.28-116.06,121.58-121,2.56-3.86,2.07-9.13-1.26-13.62C503.11,114.49,389.68,2.07,386.74,1,383-.44,381.15-.34,377.5,1.46Z" />
			</g>
		</g>
	</symbol>

	<symbol id="arrow-bottom" viewBox="0 0 511.64 259.66">
		<g>
			<g>
				<path
					d="M0,30.12,30.12,0l210.8,210.79a21.32,21.32,0,0,0,30.16,0L481.47.36l30.17,30.17L301.25,240.92a64,64,0,0,1-90.5,0Z" />
			</g>
		</g>
	</symbol>

	<symbol id="next" viewBox="0 0 259.66 511.64">
		<g>
			<g>
				<path
					d="M30.12,511.64,0,481.51,210.79,270.72a21.34,21.34,0,0,0,0-30.17L.36,30.17,30.53,0,240.92,210.39a64,64,0,0,1,0,90.5Z" />
			</g>
		</g>
	</symbol>

	<symbol id="prev" viewBox="0 0 259.66 511.64">
		<g>
			<g>
				<path
					d="M229.53,0l30.13,30.12L48.86,240.92a21.32,21.32,0,0,0,0,30.16L259.29,481.47l-30.16,30.17L18.74,301.25a64,64,0,0,1,0-90.5Z" />
			</g>
		</g>
	</symbol>

	<symbol id="doubleprev" viewBox="0 0 456.27 512.01">
		<g>
			<g>
				<path class="cls-1"
					d="M220.65,0a32,32,0,0,1,22.63,54.63L79.61,218.28a53.35,53.35,0,0,0,0,75.43h0L243.28,457.37A32,32,0,0,1,198,502.63L34.36,339a117.36,117.36,0,0,1,0-165.94L198,9.37A32,32,0,0,1,220.65,0Z" />
				<path class="cls-1"
					d="M424.27,0a32,32,0,0,1,22.62,54.63L253.07,248.45a10.66,10.66,0,0,0,0,15.08l0,0L446.89,457.37a32,32,0,1,1-45.25,45.26L207.8,308.8a74.83,74.83,0,0,1,0-105.58L401.64,9.37A32,32,0,0,1,424.27,0Z" />
			</g>
		</g>
	</symbol>

	<symbol id="doublenext" viewBox="0 0 456.27 512.01">
		<g>
			<g>
				<path class="cls-1"
					d="M235.62,512A32,32,0,0,1,213,457.38L376.65,293.73a53.33,53.33,0,0,0,0-75.43h0L213,54.64A32,32,0,0,1,258.25,9.38L421.9,173a117.34,117.34,0,0,1,0,165.94L258.25,502.64A32,32,0,0,1,235.62,512Z" />
				<path class="cls-1"
					d="M32,512A32,32,0,0,1,9.38,457.38L203.19,263.56a10.66,10.66,0,0,0,0-15.08l0,0L9.38,54.64A32,32,0,1,1,54.63,9.38L248.46,203.21a74.81,74.81,0,0,1,0,105.58L54.63,502.64A32,32,0,0,1,32,512Z" />
			</g>
		</g>
	</symbol>

	<symbol id="clock" viewBox="0 0 512 512">
		<g>
			<g>
				<path
					d="M256,0A255.35,255.35,0,0,0,85.33,65.56V21.33a21.33,21.33,0,1,0-42.66,0v64a64,64,0,0,0,64,64h64a21.33,21.33,0,1,0,0-42.66h-64a19.36,19.36,0,0,1-2.14-.45c82.91-83.5,217.81-84,301.31-1.07s84,217.8,1.07,301.3-217.8,84-301.3,1.07A213,213,0,0,1,42.67,256,21.34,21.34,0,0,0,0,256C0,397.38,114.62,512,256,512S512,397.38,512,256,397.38,0,256,0Z" />
				<path
					d="M256,128a21.33,21.33,0,0,0-21.33,21.33V256a21.32,21.32,0,0,0,6.25,15.08l64,64a21.33,21.33,0,0,0,30.16-30.16l-57.75-57.75V149.33A21.33,21.33,0,0,0,256,128Z" />
			</g>
		</g>
	</symbol>

	<symbol id="info" viewBox="0 0 513 513">
		<path fill-rule="evenodd" clip-rule="evenodd"
			d="M226.126 1.4525C132.635 12.7965 52.242 74.7955 17.765 162.141C-12.711 239.35 -3.55796 327.659 42.008 396.043C53.527 413.33 61.339 422.946 75.03 436.688C140.93 502.831 235.697 527.579 326.445 502.344C370.002 490.232 414.304 462.682 445.252 428.461C488.985 380.105 512.126 320.412 512.126 255.962C512.126 205.116 497.819 157.263 470.244 115.88C458.707 98.5655 450.526 88.4955 437.059 75.0285C401.387 39.3555 356.328 15.0025 307.278 4.8845C283.839 0.0505009 249.613 -1.3975 226.126 1.4525ZM286.284 23.5475C293.072 24.4205 305.46 26.8705 313.813 28.9935C400.671 51.0645 467.393 120.779 485.611 208.497C491.407 236.406 491.623 272.787 486.16 300.961C469.467 387.047 403.433 458.45 319.126 481.578C298.187 487.322 285.906 489.099 263.08 489.689C227.906 490.597 198.558 485.531 168.896 473.429C98.991 444.908 47.594 386.197 29.214 313.868C24.037 293.496 22.126 277.885 22.126 255.962C22.126 234.039 24.037 218.428 29.214 198.055C47.807 124.889 100.159 65.7205 171.219 37.5585C185.234 32.0045 209.632 25.6475 224.626 23.6425C239.819 21.6105 270.844 21.5635 286.284 23.5475ZM250.533 106.971C240.566 108.999 232.025 115.416 227.306 124.422C225.026 128.772 224.662 130.694 224.645 138.462C224.629 145.989 225.023 148.268 227.049 152.385C236.825 172.248 263.314 176.773 278.851 161.236C285.447 154.64 287.629 148.965 287.607 138.462C287.59 130.666 287.23 128.779 284.912 124.354C278.389 111.901 263.444 104.345 250.533 106.971ZM259.465 128.9C266.267 131.486 268.598 140.58 263.712 145.467C256.912 152.267 246.088 148.13 246.158 138.757C246.194 133.897 247.526 131.676 251.721 129.488C255.123 127.714 256.143 127.637 259.465 128.9ZM218.889 214.527C215.886 216.157 213.126 220.675 213.126 223.962C213.126 227.35 215.933 231.811 219.093 233.445C221.219 234.544 225.209 234.962 233.576 234.962H245.126V298.461V361.961L228.876 361.964C210.249 361.965 206.872 362.915 203.897 368.995C201.725 373.433 202.949 378.89 206.795 381.916C209.33 383.909 210.566 383.961 255.856 383.961C301.041 383.961 302.396 383.905 305.187 381.918C311.62 377.337 310.494 367.394 303.126 363.714C300.225 362.265 296.843 361.965 283.376 361.964L267.126 361.961V291.911C267.126 215.046 267.328 217.669 261.159 214.479C256.96 212.308 222.908 212.347 218.889 214.527Z" />
	</symbol>

	<symbol id="info2" viewBox="0 0 513 512">
		<path fill-rule="evenodd" clip-rule="evenodd"
			d="M228.564 1.01009C210.367 2.84209 185.116 8.80809 167.064 15.5401C113.337 35.5771 67.5615 73.3451 37.3215 122.585C-12.4405 203.615 -12.4405 308.053 37.3215 389.083C79.5165 457.791 151.4 503.075 230.488 510.771C328.83 520.341 423.005 473.436 474.808 389.083C524.57 308.053 524.57 203.615 474.808 122.585C432.613 53.8771 360.729 8.59309 281.641 0.897092C268.873 -0.345908 241.445 -0.286908 228.564 1.01009ZM285.695 25.3721C327.501 30.8521 363.683 45.8451 398.521 72.1261C408.875 79.9361 431.963 103.024 439.773 113.378C472.513 156.779 488.065 202.657 488.065 255.834C488.065 309.011 472.513 354.889 439.773 398.29C431.963 408.644 408.875 431.732 398.521 439.542C355.12 472.282 309.242 487.834 256.065 487.834C202.888 487.834 157.009 472.282 113.608 439.542C103.254 431.732 80.1665 408.644 72.3565 398.29C39.6165 354.889 24.0645 309.011 24.0645 255.834C24.0645 202.657 39.6165 156.779 72.3565 113.378C80.1665 103.024 103.254 79.9361 113.608 72.1261C147.975 46.2011 184.463 30.9721 225.564 25.3971C239.619 23.4901 271.241 23.4771 285.695 25.3721ZM270.909 129.17C256.442 134.567 248.68 144.59 248.712 157.834C248.732 166.272 251.575 172.271 258.588 178.681C268.818 188.031 282.871 190.174 295.824 184.362C307.425 179.155 314.445 168.796 314.247 157.173C314.057 146.059 308.54 137.503 297.899 131.819C292.379 128.871 290.473 128.396 283.065 128.121C277.601 127.918 273.259 128.293 270.909 129.17ZM233.064 215.83C228.939 216.91 220.2 219.73 213.645 222.096L201.727 226.399L199.777 233.664C198.704 237.66 198.061 241.164 198.348 241.451C198.636 241.739 201.888 241.043 205.574 239.904C213.432 237.477 224.548 237.174 229.518 239.25C234.888 241.494 236.576 245.01 236.497 253.792C236.414 263 234.905 269.649 226.014 299.975C217.106 330.359 215.859 336.201 215.697 348.334C215.574 357.577 215.789 358.778 218.533 364.193C225.906 378.746 243.659 386.067 266.065 383.796C270.74 383.322 276.365 382.412 278.565 381.774C282.898 380.517 307.357 371.788 307.892 371.307C308.071 371.146 309.039 367.824 310.042 363.924C312.088 355.971 312.011 355.883 305.114 358.317C298.584 360.621 283.242 360.57 278.447 358.229C272.698 355.423 270.797 351.073 271.469 342.268C272.188 332.845 273.775 326.276 283.174 293.834C293.877 256.893 295.154 243.769 289.178 232.056C286.48 226.767 278.999 220.15 272.243 217.078C267.242 214.804 265.015 214.458 253.564 214.182C243.117 213.929 239.091 214.253 233.064 215.83Z" />
	</symbol>

	<symbol id="info3" viewBox="0 0 513 513">
		<path fill-rule="evenodd" clip-rule="evenodd"
			d="M229.176 0.966574C190.676 4.88657 148.736 19.8666 116.2 41.3196C35.8713 94.2856 -8.1707 186.283 1.2593 281.412C13.2183 402.052 109.96 498.794 230.6 510.753C371.112 524.682 497.197 421.591 511.093 281.412C525.022 140.9 421.931 14.8146 281.752 0.918574C269.194 -0.326426 241.629 -0.301426 229.176 0.966574ZM268.807 117.971C280.838 122.472 287.512 132.375 287.585 145.836C287.658 159.179 280.83 169.203 268.536 173.803C261.246 176.53 250.151 176.547 242.921 173.842C217.388 164.288 218.37 125.428 244.349 117.32C251.173 115.191 262.157 115.483 268.807 117.971ZM270.676 204.066C277.379 207.513 282.894 213.165 286.063 219.836L288.676 225.336V300.336V375.336L286.082 380.836C282.946 387.484 277.115 393.494 270.545 396.849C266.369 398.982 264.324 399.336 256.176 399.336C248.024 399.336 245.984 398.983 241.798 396.845C235.043 393.395 229.46 387.674 226.327 380.991L223.676 375.336V300.336V225.336L226.285 219.836C230.383 211.199 237.748 204.81 247.176 201.713C248.551 201.262 253.276 201.028 257.676 201.193C263.902 201.428 266.785 202.065 270.676 204.066Z" />
	</symbol>

	<symbol id="tab-icon1" viewBox="0 0 512 512">
		<g>
			<g>
				<path
					d="M42.67,373.33H96A42.68,42.68,0,0,1,138.67,416v53.33A42.67,42.67,0,0,1,96,512H42.67A42.66,42.66,0,0,1,0,469.33V416A42.67,42.67,0,0,1,42.67,373.33Z" />
				<path
					d="M493.18,380.63a42.43,42.43,0,0,0-23.85-7.3H416A42.68,42.68,0,0,0,373.33,416v53.33A42.67,42.67,0,0,0,416,512h53.33A42.66,42.66,0,0,0,512,469.33V416A42.65,42.65,0,0,0,493.18,380.63Z" />
				<path
					d="M42.67,186.67H96a42.67,42.67,0,0,1,42.67,42.66v53.34A42.67,42.67,0,0,1,96,325.33H42.67A42.66,42.66,0,0,1,0,282.67V229.33A42.66,42.66,0,0,1,42.67,186.67Z" />
				<path
					d="M493.18,194a42.42,42.42,0,0,0-23.85-7.29H416a42.67,42.67,0,0,0-42.67,42.66v53.34A42.67,42.67,0,0,0,416,325.33h53.33A42.66,42.66,0,0,0,512,282.67V229.33A42.65,42.65,0,0,0,493.18,194Z" />
				<path
					d="M42.67,0H96a42.67,42.67,0,0,1,42.67,42.67V96A42.68,42.68,0,0,1,96,138.67H42.67A42.67,42.67,0,0,1,0,96V42.67A42.66,42.66,0,0,1,42.67,0Z" />
				<path
					d="M306.52,380.63a42.43,42.43,0,0,0-23.85-7.3H229.33A42.67,42.67,0,0,0,186.67,416v53.33A42.66,42.66,0,0,0,229.33,512h53.34a42.66,42.66,0,0,0,42.66-42.67V416A42.67,42.67,0,0,0,306.52,380.63Z" />
				<path
					d="M306.52,194a42.42,42.42,0,0,0-23.85-7.29H229.33a42.66,42.66,0,0,0-42.66,42.66v53.34a42.66,42.66,0,0,0,42.66,42.66h53.34a42.66,42.66,0,0,0,42.66-42.66V229.33A42.67,42.67,0,0,0,306.52,194Z" />
				<path
					d="M306.52,7.3A42.43,42.43,0,0,0,282.67,0H229.33a42.66,42.66,0,0,0-42.66,42.67V96a42.67,42.67,0,0,0,42.66,42.67h53.34A42.67,42.67,0,0,0,325.33,96V42.67A42.65,42.65,0,0,0,306.52,7.3Z" />
				<path
					d="M504.7,18.82A42.64,42.64,0,0,0,469.33,0H416a42.67,42.67,0,0,0-42.67,42.67V96A42.68,42.68,0,0,0,416,138.67h53.33A42.67,42.67,0,0,0,512,96V42.67A42.43,42.43,0,0,0,504.7,18.82Z" />
			</g>
		</g>
	</symbol>

	<symbol id="tab-icon2" viewBox="0 0 512 362.67">
		<g>
			<g>
				<path d="M480,149.33H32a32,32,0,0,0,0,64H480a32,32,0,0,0,0-64Z" />
				<path d="M32,64H480a32,32,0,0,0,0-64H32a32,32,0,0,0,0,64Z" />
				<path d="M480,298.67H32a32,32,0,0,0,0,64H480a32,32,0,0,0,0-64Z" />
			</g>
		</g>
	</symbol>

	<symbol id="tab-icon3" viewBox="0 0 512 512">
		<g>
			<g>
				<path class="cls-1"
					d="M448,0H64A64,64,0,0,0,0,64V512H512V64A64,64,0,0,0,448,0Zm21.33,64v64H384V42.67h64A21.33,21.33,0,0,1,469.33,64Zm-192,64V42.67h64V128Zm64,42.67v64h-64v-64ZM234.67,128h-64V42.67h64Zm0,42.67v64h-64v-64ZM128,234.67H42.67v-64H128Zm0,42.66v64H42.67v-64Zm42.67,0h64v64h-64Zm64,106.67v85.33h-64V384Zm42.66,0h64v85.33h-64Zm0-42.67v-64h64v64Zm106.67-64h85.33v64H384Zm0-42.66v-64h85.33v64ZM64,42.67h64V128H42.67V64A21.33,21.33,0,0,1,64,42.67ZM42.67,384H128v85.33H42.67ZM384,469.33V384h85.33v85.33Z" />
			</g>
		</g>
	</symbol>

	<symbol id="delete" viewBox="0 0 426.67 512">
		<g>
			<g>
				<path class="cls-1"
					d="M405.33,85.33H339.2A106.85,106.85,0,0,0,234.67,0H192A106.84,106.84,0,0,0,87.47,85.33H21.33a21.34,21.34,0,0,0,0,42.67H42.67V405.33A106.79,106.79,0,0,0,149.33,512h128A106.8,106.8,0,0,0,384,405.33V128h21.33a21.34,21.34,0,1,0,0-42.67ZM192,42.67h42.67A64.13,64.13,0,0,1,295,85.33H131.65A64.12,64.12,0,0,1,192,42.67ZM341.33,405.33a64,64,0,0,1-64,64h-128a64,64,0,0,1-64-64V128h256Z" />
				<path class="cls-1"
					d="M170.67,384A21.33,21.33,0,0,0,192,362.67v-128a21.34,21.34,0,1,0-42.67,0v128A21.33,21.33,0,0,0,170.67,384Z" />
				<path class="cls-1"
					d="M256,384a21.33,21.33,0,0,0,21.33-21.33v-128a21.33,21.33,0,1,0-42.66,0v128A21.33,21.33,0,0,0,256,384Z" />
			</g>
		</g>
	</symbol>


	<symbol id="arrow-accordion" viewBox="0 0 511.08 511.08">
		<g>
			<g>
				<path
					d="M0,480.92l30.17,30.16L468.42,72.83V298.67h42.66v-256A42.71,42.71,0,0,0,468.42,0h-256V42.67H438.25L0,480.92Z" />
			</g>
		</g>
	</symbol>

	<symbol id="arrow-accordion-right" viewBox="0 0 511.99 257.73">
		<g>
			<g>
				<path
					d="M410.26,257.73l83.61-83.61a65.53,65.53,0,0,0,0-90.49L410.26,0,380.1,30.17l77.48,77.5L0,108.22v42.67l457.34-.55L380.1,227.56Z" />
			</g>
		</g>
	</symbol>

	<symbol id="play" viewBox="0 0 64 64">
		<g>
			<path d="M46.0136986,31.1054993L25.1973,20.6973c-0.3096008-0.1532993-0.6777992-0.1387005-0.9727001,0.0438995
		C23.9297009,20.9237995,23.75,21.2451,23.75,21.5918007v20.8163986c0,0.3467026,0.1797009,0.6679993,0.4745998,0.8506012
		C24.3848,43.3583984,24.5674,43.4081993,24.75,43.4081993c0.1532993,0,0.3057003-0.035099,0.4473-0.1054001l20.8163986-10.4081993
		c0.3388023-0.1699982,0.5527-0.5157013,0.5527-0.8945999C46.5663986,31.6210995,46.3525009,31.2754002,46.0136986,31.1054993z
		 M25.75,40.7901001v-17.580101L43.330101,32L25.75,40.7901001z" />
			<path
				d="M32,0C14.3268995,0,0,14.3268995,0,32s14.3268995,32,32,32s32-14.3269005,32-32S49.6730995,0,32,0z M32,62
		C15.4579,62,2,48.542099,2,32C2,15.4580002,15.4579,2,32,2c16.5419998,0,30,13.4580002,30,30C62,48.542099,48.5419998,62,32,62z" />
		</g>
	</symbol>

	<symbol id="plus" viewBox="0 0 512 512">
		<g>
			<g>
				<path
					d="M490.67,234.67H277.33V21.33A21.33,21.33,0,0,0,256,0h0a21.33,21.33,0,0,0-21.33,21.33V234.67H21.33A21.33,21.33,0,0,0,0,256H0a21.33,21.33,0,0,0,21.33,21.33H234.67V490.67A21.33,21.33,0,0,0,256,512h0a21.33,21.33,0,0,0,21.33-21.33V277.33H490.67A21.33,21.33,0,0,0,512,256h0A21.33,21.33,0,0,0,490.67,234.67Z" />
			</g>
		</g>
	</symbol>

	
</svg>