<svg width="414" height="498" viewBox="0 0 414 498" fill="none" xmlns="http://www.w3.org/2000/svg">
<path fill-rule="evenodd" clip-rule="evenodd" d="M332.057 1.08363C315.867 3.03863 295.968 10.9206 283.999 20.1186C271.25 29.9156 11.2206 245.508 8.31856 248.687C-2.57144 260.615 -2.04744 278.838 9.51156 290.232C15.7126 296.346 21.1986 298.502 30.4986 298.482C41.1876 298.459 45.6066 296.005 65.2486 279.187C66.9126 277.763 66.9986 280.435 66.9986 333.344V388.999H53.9666C39.7096 388.999 35.7236 389.992 30.6596 394.802C24.4326 400.716 24.5276 400.049 24.1906 440.492C23.9816 465.704 24.2446 478.92 25.0166 481.992C26.4846 487.835 30.0726 492.461 35.3066 495.258L39.4986 497.499H204.499H369.499L373.691 495.258C378.935 492.455 382.522 487.822 383.958 481.999C384.751 478.784 384.986 437.656 384.783 337.92L384.499 198.342L381.499 193.498C379.529 190.317 376.986 187.855 374.092 186.327C370.092 184.214 368.405 183.999 355.842 183.999H341.999V122.59V61.1806L366.249 60.8236C393.468 60.4236 395.621 59.9486 403.842 52.5216C416.704 40.9016 416.704 20.0956 403.842 8.47563C395.449 0.892626 393.658 0.517625 364.999 0.341625C350.974 0.255625 336.15 0.589625 332.057 1.08363ZM390.076 23.9216C392.24 26.0856 392.999 27.7936 392.999 30.4986C392.999 33.2036 392.24 34.9116 390.076 37.0756L387.153 39.9986H363.664C337.878 39.9986 329.517 41.0256 319.601 45.4116C311.405 49.0356 308.167 51.5036 269.09 83.9086C250.065 99.6856 197.599 143.144 152.499 180.481C107.399 217.819 62.7216 254.826 53.2166 262.72C43.7116 270.614 34.7596 277.52 33.3226 278.066C29.9846 279.335 24.5686 277.65 22.5016 274.7C20.0216 271.16 20.5866 265.465 23.7486 262.131C25.2616 260.536 46.0736 243.057 69.9986 223.289C93.9236 203.522 154.449 153.443 204.499 112.003C254.549 70.5636 297.913 35.1136 300.863 33.2246C303.814 31.3356 309.382 28.4896 313.238 26.9006C325.466 21.8576 331.036 21.1696 360.326 21.0806L387.153 20.9986L390.076 23.9216ZM321.999 125.499V183.999H308.156C295.593 183.999 293.906 184.214 289.906 186.327C287.014 187.854 284.468 190.318 282.499 193.495L279.499 198.336L279.189 225.167L278.88 251.999H267.939H256.999V186.137V120.274L289.226 93.6366C306.95 78.9856 321.575 66.9986 321.726 66.9986C321.876 66.9986 321.999 93.3236 321.999 125.499ZM236.999 194.499V251.999L224.749 252.005C210.167 252.011 206.145 252.969 200.934 257.677C194.687 263.321 193.999 267.14 193.999 296.181V320.999H182.999H171.999L172.028 255.749L172.058 190.499L204.278 163.807C222 149.127 236.612 137.089 236.749 137.057C236.886 137.025 236.999 162.874 236.999 194.499ZM363.999 340.499V476.999H204.499H44.9986V442.999V408.999H87.4986H129.999V374.999V340.999H172.499H214.999V307.01V273.021L257.249 272.76L299.499 272.499L299.762 238.249L300.025 203.999H332.012H363.999V340.499ZM151.999 264.499V320.999H137.695C123.575 320.999 123.331 321.037 118.741 323.947C115.869 325.769 113.215 328.54 111.796 331.197C109.591 335.327 109.487 336.569 109.189 362.249L108.88 388.999H97.9386H86.9986V325.054V261.109L119.082 234.554C136.728 219.949 151.353 207.999 151.582 207.999C151.812 207.999 151.999 233.424 151.999 264.499Z" fill="black"/>
</svg>
