<svg width="498" height="497" viewBox="0 0 498 497" fill="none" xmlns="http://www.w3.org/2000/svg">
<path fill-rule="evenodd" clip-rule="evenodd" d="M36.0825 1.66276C24.6735 4.73076 13.2245 13.6938 7.14551 24.3198C0.580509 35.7948 0.99951 20.5298 0.99951 248.075C0.99951 475.62 0.580509 460.355 7.14551 471.83C11.0635 478.679 18.3955 486.011 25.2445 489.929C36.7195 496.494 21.4545 496.075 249 496.075C476.545 496.075 461.28 496.494 472.755 489.929C479.604 486.011 486.936 478.679 490.854 471.83C497.419 460.355 497 475.62 497 248.075C497 20.5298 497.419 35.7948 490.854 24.3198C486.936 17.4708 479.604 10.1388 472.755 6.22076C461.274 -0.348237 476.628 0.0677632 248.54 0.140763C70.5445 0.196763 40.7395 0.410764 36.0825 1.66276ZM461.176 18.7358C467.798 21.7958 474.497 28.3508 477.73 34.9328L480.5 40.5748V248.075V455.575L478.339 460.251C475.279 466.873 468.724 473.572 462.142 476.805L456.5 479.575H249H41.4995L35.8575 476.805C29.2755 473.572 22.7205 466.873 19.6605 460.251L17.4995 455.575V248.575C17.4995 46.9418 17.5495 41.4458 19.4165 36.6028C22.8825 27.6178 32.3265 19.3878 41.7335 17.1568C43.8915 16.6448 133.258 16.3298 251 16.4188L456.5 16.5748L461.176 18.7358ZM35.4545 34.5298C33.4075 36.5768 33.0025 37.9458 33.0165 42.7798C33.0575 56.4198 39.9195 74.5588 49.3415 85.9338C62.1465 101.395 83.6485 112.002 102.295 112.058C107.129 112.072 108.498 111.667 110.545 109.62C112.592 107.573 112.997 106.204 112.983 101.37C112.942 87.7298 106.08 69.5908 96.6575 58.2158C83.8525 42.7548 62.3505 32.1478 43.7045 32.0918C38.8705 32.0778 37.5015 32.4828 35.4545 34.5298ZM179.455 34.5298C177.408 36.5768 177.003 37.9458 177.017 42.7798C177.058 56.4198 183.92 74.5588 193.342 85.9338C206.147 101.395 227.649 112.002 246.295 112.058C251.129 112.072 252.498 111.667 254.545 109.62C256.592 107.573 256.997 106.204 256.983 101.37C256.942 87.7298 250.08 69.5908 240.658 58.2158C227.853 42.7548 206.351 32.1478 187.705 32.0918C182.871 32.0778 181.502 32.4828 179.455 34.5298ZM323.454 34.5298C321.407 36.5768 321.003 37.9458 321.017 42.7798C321.058 56.4198 327.92 74.5588 337.342 85.9338C350.147 101.395 371.649 112.002 390.295 112.058C395.129 112.072 396.498 111.667 398.545 109.62C400.592 107.573 400.997 106.204 400.983 101.37C400.942 87.7298 394.08 69.5908 384.658 58.2158C371.853 42.7548 350.35 32.1478 331.704 32.0918C326.87 32.0778 325.501 32.4828 323.454 34.5298ZM58.2815 51.1578C75.1725 56.8158 88.4615 70.2548 94.0765 87.3598C95.2955 91.0748 96.0115 94.3968 95.6665 94.7418C95.3215 95.0868 91.9995 94.3708 88.2845 93.1518C71.1795 87.5368 57.7405 74.2478 52.0825 57.3568C48.8845 47.8078 48.7325 47.9598 58.2815 51.1578ZM202.282 51.1578C219.173 56.8158 232.462 70.2548 238.077 87.3598C239.296 91.0748 240.012 94.3968 239.667 94.7418C239.322 95.0868 236 94.3708 232.285 93.1518C215.18 87.5368 201.741 74.2478 196.083 57.3568C192.885 47.8078 192.733 47.9598 202.282 51.1578ZM346.282 51.1578C363.173 56.8158 376.462 70.2548 382.077 87.3598C383.296 91.0748 384.012 94.3968 383.667 94.7418C383.322 95.0868 380 94.3708 376.285 93.1518C359.18 87.5368 345.741 74.2478 340.083 57.3568C336.885 47.8078 336.733 47.9598 346.282 51.1578ZM153 97.6258C144.761 99.3898 130.099 106.653 123.141 112.417C107.68 125.222 97.0725 146.724 97.0165 165.37C97.0025 170.204 97.4075 171.573 99.4545 173.62C101.502 175.667 102.871 176.072 107.705 176.058C121.345 176.017 139.484 169.155 150.859 159.733C166.32 146.928 176.927 125.426 176.983 106.78C176.997 101.946 176.592 100.577 174.545 98.5298C172.436 96.4198 171.205 96.0858 165.795 96.1538C162.333 96.1978 156.575 96.8598 153 97.6258ZM297 97.6258C288.761 99.3898 274.099 106.653 267.141 112.417C251.68 125.222 241.073 146.724 241.017 165.37C241.003 170.204 241.408 171.573 243.455 173.62C245.502 175.667 246.87 176.072 251.704 176.058C265.344 176.017 283.484 169.155 294.859 159.733C310.32 146.928 320.927 125.426 320.983 106.78C320.997 101.946 320.592 100.577 318.545 98.5298C316.436 96.4198 315.205 96.0858 309.795 96.1538C306.333 96.1978 300.575 96.8598 297 97.6258ZM441 97.6258C432.761 99.3898 418.099 106.653 411.141 112.417C395.68 125.222 385.073 146.724 385.017 165.37C385.003 170.204 385.407 171.573 387.454 173.62C389.501 175.667 390.87 176.072 395.704 176.058C409.344 176.017 427.484 169.155 438.859 159.733C454.32 146.928 464.927 125.426 464.983 106.78C464.997 101.946 464.592 100.577 462.545 98.5298C460.436 96.4198 459.205 96.0858 453.795 96.1538C450.333 96.1978 444.575 96.8598 441 97.6258ZM159.329 116.325C156.82 129.466 146.363 144.006 133.985 151.566C128.131 155.141 115.386 159.795 114.333 158.742C113.988 158.397 114.704 155.075 115.923 151.36C121.477 134.44 134.257 121.345 151 115.418C159.675 112.347 160.081 112.391 159.329 116.325ZM303.329 116.325C300.82 129.466 290.362 144.006 277.984 151.566C272.13 155.141 259.386 159.795 258.333 158.742C257.988 158.397 258.704 155.075 259.923 151.36C265.477 134.44 278.257 121.345 295 115.418C303.675 112.347 304.081 112.391 303.329 116.325ZM447.329 116.325C444.82 129.466 434.362 144.006 421.984 151.566C416.13 155.141 403.386 159.795 402.333 158.742C401.988 158.397 402.704 155.075 403.923 151.36C409.477 134.44 422.257 121.345 439 115.418C447.675 112.347 448.081 112.391 447.329 116.325ZM35.4545 178.53C33.4075 180.577 33.0025 181.946 33.0165 186.78C33.0575 200.42 39.9195 218.559 49.3415 229.934C62.1465 245.395 83.6485 256.002 102.295 256.058C107.129 256.072 108.498 255.667 110.545 253.62C112.592 251.573 112.997 250.204 112.983 245.37C112.942 231.73 106.08 213.591 96.6575 202.216C83.8525 186.755 62.3505 176.148 43.7045 176.092C38.8705 176.078 37.5015 176.483 35.4545 178.53ZM179.455 178.53C177.408 180.577 177.003 181.946 177.017 186.78C177.058 200.42 183.92 218.559 193.342 229.934C206.147 245.395 227.649 256.002 246.295 256.058C251.129 256.072 252.498 255.667 254.545 253.62C256.592 251.573 256.997 250.204 256.983 245.37C256.942 231.73 250.08 213.591 240.658 202.216C227.853 186.755 206.351 176.148 187.705 176.092C182.871 176.078 181.502 176.483 179.455 178.53ZM323.454 178.53C321.407 180.577 321.003 181.946 321.017 186.78C321.058 200.42 327.92 218.559 337.342 229.934C350.147 245.395 371.649 256.002 390.295 256.058C395.129 256.072 396.498 255.667 398.545 253.62C400.592 251.573 400.997 250.204 400.983 245.37C400.942 231.73 394.08 213.591 384.658 202.216C371.853 186.755 350.35 176.148 331.704 176.092C326.87 176.078 325.501 176.483 323.454 178.53ZM58.2815 195.158C75.1725 200.816 88.4615 214.255 94.0765 231.36C95.2955 235.075 96.0115 238.397 95.6665 238.742C94.6135 239.795 81.8685 235.141 76.0145 231.566C69.3345 227.486 61.2665 219.351 57.1805 212.575C54.4325 208.018 49.9995 196.617 49.9995 194.107C49.9995 192.643 51.2445 192.801 58.2815 195.158ZM202.282 195.158C219.173 200.816 232.462 214.255 238.077 231.36C239.296 235.075 240.012 238.397 239.667 238.742C238.614 239.795 225.869 235.141 220.015 231.566C213.335 227.486 205.267 219.351 201.181 212.575C198.433 208.018 194 196.617 194 194.107C194 192.643 195.245 192.801 202.282 195.158ZM346.282 195.158C363.173 200.816 376.462 214.255 382.077 231.36C383.296 235.075 384.012 238.397 383.667 238.742C383.322 239.087 380 238.371 376.285 237.152C359.18 231.537 345.741 218.248 340.083 201.357C336.885 191.808 336.733 191.96 346.282 195.158ZM153 241.626C144.761 243.39 130.099 250.653 123.141 256.417C107.68 269.222 97.0725 290.724 97.0165 309.37C97.0025 314.204 97.4075 315.573 99.4545 317.62C101.502 319.667 102.871 320.072 107.705 320.058C121.345 320.017 139.484 313.155 150.859 303.733C166.32 290.928 176.927 269.426 176.983 250.78C176.997 245.946 176.592 244.577 174.545 242.53C172.436 240.42 171.205 240.086 165.795 240.154C162.333 240.198 156.575 240.86 153 241.626ZM297 241.626C288.761 243.39 274.099 250.653 267.141 256.417C251.68 269.222 241.073 290.724 241.017 309.37C241.003 314.204 241.408 315.573 243.455 317.62C245.502 319.667 246.87 320.072 251.704 320.058C265.344 320.017 283.484 313.155 294.859 303.733C310.32 290.928 320.927 269.426 320.983 250.78C320.997 245.946 320.592 244.577 318.545 242.53C316.436 240.42 315.205 240.086 309.795 240.154C306.333 240.198 300.575 240.86 297 241.626ZM441 241.626C432.761 243.39 418.099 250.653 411.141 256.417C395.68 269.222 385.073 290.724 385.017 309.37C385.003 314.204 385.407 315.573 387.454 317.62C389.501 319.667 390.87 320.072 395.704 320.058C409.344 320.017 427.484 313.155 438.859 303.733C454.32 290.928 464.927 269.426 464.983 250.78C464.997 245.946 464.592 244.577 462.545 242.53C460.436 240.42 459.205 240.086 453.795 240.154C450.333 240.198 444.575 240.86 441 241.626ZM159.329 260.325C156.82 273.466 146.363 288.006 133.985 295.566C128.131 299.141 115.386 303.795 114.333 302.742C113.988 302.397 114.704 299.075 115.923 295.36C121.477 278.44 134.257 265.345 151 259.418C159.675 256.347 160.081 256.391 159.329 260.325ZM303.329 260.325C300.82 273.466 290.362 288.006 277.984 295.566C272.13 299.141 259.386 303.795 258.333 302.742C257.988 302.397 258.704 299.075 259.923 295.36C265.477 278.44 278.257 265.345 295 259.418C303.675 256.347 304.081 256.391 303.329 260.325ZM447.329 260.325C444.82 273.466 434.362 288.006 421.984 295.566C416.13 299.141 403.386 303.795 402.333 302.742C401.988 302.397 402.704 299.075 403.923 295.36C409.477 278.44 422.257 265.345 439 259.418C447.675 256.347 448.081 256.391 447.329 260.325ZM35.4545 322.53C33.4075 324.577 33.0025 325.946 33.0165 330.78C33.0575 344.42 39.9195 362.559 49.3415 373.934C62.1465 389.395 83.6485 400.002 102.295 400.058C107.129 400.072 108.498 399.667 110.545 397.62C112.592 395.573 112.997 394.204 112.983 389.37C112.942 375.73 106.08 357.591 96.6575 346.216C83.8525 330.755 62.3505 320.148 43.7045 320.092C38.8705 320.078 37.5015 320.483 35.4545 322.53ZM179.455 322.53C177.408 324.577 177.003 325.946 177.017 330.78C177.058 344.42 183.92 362.559 193.342 373.934C206.147 389.395 227.649 400.002 246.295 400.058C251.129 400.072 252.498 399.667 254.545 397.62C256.592 395.573 256.997 394.204 256.983 389.37C256.942 375.73 250.08 357.591 240.658 346.216C227.853 330.755 206.351 320.148 187.705 320.092C182.871 320.078 181.502 320.483 179.455 322.53ZM323.454 322.53C321.407 324.577 321.003 325.946 321.017 330.78C321.058 344.42 327.92 362.559 337.342 373.934C350.147 389.395 371.649 400.002 390.295 400.058C395.129 400.072 396.498 399.667 398.545 397.62C400.592 395.573 400.997 394.204 400.983 389.37C400.942 375.73 394.08 357.591 384.658 346.216C371.853 330.755 350.35 320.148 331.704 320.092C326.87 320.078 325.501 320.483 323.454 322.53ZM58.2815 339.158C75.1725 344.816 88.4615 358.255 94.0765 375.36C95.2955 379.075 96.0115 382.397 95.6665 382.742C95.3215 383.087 91.9995 382.371 88.2845 381.152C71.1795 375.537 57.7405 362.248 52.0825 345.357C48.8845 335.808 48.7325 335.96 58.2815 339.158ZM202.282 339.158C219.173 344.816 232.462 358.255 238.077 375.36C239.296 379.075 240.012 382.397 239.667 382.742C239.322 383.087 236 382.371 232.285 381.152C215.18 375.537 201.741 362.248 196.083 345.357C192.885 335.808 192.733 335.96 202.282 339.158ZM346.282 339.158C363.173 344.816 376.462 358.255 382.077 375.36C383.296 379.075 384.012 382.397 383.667 382.742C382.614 383.795 369.869 379.141 364.015 375.566C357.335 371.486 349.267 363.351 345.181 356.575C342.433 352.018 338 340.617 338 338.107C338 336.643 339.245 336.801 346.282 339.158ZM153 385.626C144.761 387.39 130.099 394.653 123.141 400.417C107.68 413.222 97.0725 434.724 97.0165 453.37C97.0025 458.204 97.4075 459.573 99.4545 461.62C101.502 463.667 102.871 464.072 107.705 464.058C121.345 464.017 139.484 457.155 150.859 447.733C166.32 434.928 176.927 413.426 176.983 394.78C176.997 389.946 176.592 388.577 174.545 386.53C172.436 384.42 171.205 384.086 165.795 384.154C162.333 384.198 156.575 384.86 153 385.626ZM297 385.626C288.761 387.39 274.099 394.653 267.141 400.417C251.68 413.222 241.073 434.724 241.017 453.37C241.003 458.204 241.408 459.573 243.455 461.62C245.502 463.667 246.87 464.072 251.704 464.058C265.344 464.017 283.484 457.155 294.859 447.733C310.32 434.928 320.927 413.426 320.983 394.78C320.997 389.946 320.592 388.577 318.545 386.53C316.436 384.42 315.205 384.086 309.795 384.154C306.333 384.198 300.575 384.86 297 385.626ZM441 385.626C432.761 387.39 418.099 394.653 411.141 400.417C395.68 413.222 385.073 434.724 385.017 453.37C385.003 458.204 385.407 459.573 387.454 461.62C389.501 463.667 390.87 464.072 395.704 464.058C409.344 464.017 427.484 457.155 438.859 447.733C454.32 434.928 464.927 413.426 464.983 394.78C464.997 389.946 464.592 388.577 462.545 386.53C460.436 384.42 459.205 384.086 453.795 384.154C450.333 384.198 444.575 384.86 441 385.626ZM159.329 404.325C156.82 417.466 146.363 432.006 133.985 439.566C128.131 443.141 115.386 447.795 114.333 446.742C113.988 446.397 114.704 443.075 115.923 439.36C121.477 422.44 134.257 409.345 151 403.418C159.675 400.347 160.081 400.391 159.329 404.325ZM303.329 404.325C300.82 417.466 290.362 432.006 277.984 439.566C272.13 443.141 259.386 447.795 258.333 446.742C257.988 446.397 258.704 443.075 259.923 439.36C265.477 422.44 278.257 409.345 295 403.418C303.675 400.347 304.081 400.391 303.329 404.325ZM447.329 404.325C444.82 417.466 434.362 432.006 421.984 439.566C416.13 443.141 403.386 447.795 402.333 446.742C401.988 446.397 402.704 443.075 403.923 439.36C409.477 422.44 422.257 409.345 439 403.418C447.675 400.347 448.081 400.391 447.329 404.325Z" fill="black"/>
</svg>
