<svg width="513" height="428" viewBox="0 0 513 428" fill="none" xmlns="http://www.w3.org/2000/svg">
<path fill-rule="evenodd" clip-rule="evenodd" d="M484.001 1.28678C480.976 1.97078 451.276 12.9998 418.001 25.7948C384.726 38.5898 339.501 55.9398 317.501 64.3508C166.915 121.921 27.4231 175.452 21.5011 177.942C-1.22486 187.5 -5.74586 201.858 11.2561 210.473C15.0081 212.374 95.1791 237.93 131.991 248.959L135.781 250.095L272.141 164.766C347.139 117.836 410.076 78.8738 412.001 78.1848C418.899 75.7148 423.417 76.8688 422.838 80.9528C422.596 82.6618 391.386 111.265 312.501 182.072C220.289 264.841 202.381 281.336 201.762 284.076C201.355 285.873 199.434 310.744 197.493 339.344C195.551 367.944 193.695 393.55 193.367 396.247L192.771 401.15L197.818 400.552C200.593 400.223 204.582 399.064 206.683 397.976C208.783 396.888 224.676 382.46 242.001 365.914C259.326 349.368 274.001 336.021 274.613 336.253C275.225 336.485 302 355.931 334.113 379.466C374.238 408.872 394.351 423.008 398.416 424.657C413.912 430.944 425.881 425.472 431.916 409.341C433.062 406.279 451.65 321.327 473.223 220.559C510.547 46.2148 512.448 36.8358 512.474 26.8438C512.497 17.8968 512.175 15.7338 510.295 12.2198C505.105 2.51677 495.751 -1.37222 484.001 1.28678Z" fill="#B2B2B2"/>
</svg>
