<svg width="450" height="337" viewBox="0 0 450 337" fill="none" xmlns="http://www.w3.org/2000/svg">
<path fill-rule="evenodd" clip-rule="evenodd" d="M173.786 1.13722C171.48 2.48122 156.911 21.9992 148.114 35.5292C134.289 56.7942 127 73.8002 127 84.7932C127 106.459 142.251 126.843 163.227 133.214C169.015 134.972 171.954 135.252 180.595 134.868C190.377 134.433 191.507 134.153 199.552 130.166C220.739 119.668 232.24 97.7382 227.57 76.7452C224.071 61.0192 205.463 29.4322 184.5 3.63422C181.892 0.425223 176.974 -0.721779 173.786 1.13722ZM273.773 3.32022C264.082 13.6942 249.529 37.7632 246.453 48.5022C239.537 72.6512 264.056 96.6002 288.569 89.6402C307.278 84.3282 318.544 65.7802 313.533 48.5432C312.596 45.3192 310.566 40.1832 309.022 37.1292C305.863 30.8822 293.955 12.6612 289.055 6.57722C283.125 -0.785777 278.525 -1.76678 273.773 3.32022ZM186.496 33.7342C196.097 47.2872 206.221 64.7582 209.452 73.3502C214.566 86.9452 211.994 98.3902 201.494 108.763C196.094 114.098 194.237 115.251 188.006 117.144C167.759 123.294 147.996 111.149 144.005 90.1042C142.702 83.2352 144.364 76.2862 149.982 65.1122C157.576 50.0102 176.433 21.6092 178.159 22.6752C178.651 22.9792 182.403 27.9562 186.496 33.7342ZM287.024 32.2092C299.451 51.5822 300.914 60.1852 293.186 68.4502C285.034 77.1692 269.993 75.5262 264.239 65.2892C259.725 57.2572 262.084 48.7752 273.8 30.9062C278 24.5002 279.804 22.4992 280.705 23.2472C281.375 23.8032 284.219 27.8372 287.024 32.2092ZM336.455 64.5322C333.662 67.3242 333.251 71.5632 335.468 74.7272C336.275 75.8802 355.39 86.6672 377.945 98.7002C400.5 110.732 418.965 120.802 418.977 121.077C418.989 121.352 375.329 135.457 321.955 152.422L224.91 183.268L219.617 180.678C210.649 176.291 200.214 166.241 190.525 152.664C183.691 143.087 180.502 142.605 172.69 149.97C164.533 157.659 148.523 165.268 129.284 170.599L123.068 172.322L77.0771 147.456C51.7821 133.78 31.4051 122.29 31.7931 121.923C32.1821 121.556 49.8251 115.791 71.0001 109.112C92.1751 102.433 110.533 96.2942 111.795 95.4702C114.999 93.3792 116.158 89.8282 114.856 86.0932C113.656 82.6502 111.359 81.0772 107.534 81.0772C105.031 81.0772 8.29112 111.317 4.77312 113.199C0.583125 115.44 -0.229874 121.951 3.25013 125.393C4.48813 126.618 17.1071 133.853 31.2931 141.472C45.4791 149.091 56.9471 155.464 56.7771 155.634C56.5331 155.878 28.6551 164.829 8.20213 171.232C6.38813 171.799 4.02513 173.207 2.95213 174.359C0.506126 176.984 0.406128 182.483 2.76113 184.838C3.73013 185.807 16.1071 192.829 30.2661 200.442C44.4251 208.054 56.2011 214.594 56.4361 214.974C56.6711 215.354 45.3081 219.245 31.1841 223.621C13.8021 229.006 4.77812 232.289 3.25312 233.782C0.229125 236.74 0.228126 242.027 3.25013 244.773C6.19413 247.449 170.476 336.077 172.492 336.077C173.341 336.077 234.89 316.7 309.266 293.018C402.493 263.334 445.196 249.302 446.748 247.844C449.795 244.982 449.77 239.723 446.697 236.782C445.43 235.569 432.844 228.502 418.728 221.077C404.612 213.652 393.055 207.352 393.046 207.077C393.037 206.802 404.604 202.977 418.752 198.577C436.087 193.186 445.213 189.858 446.738 188.372C450.056 185.139 449.806 179.925 446.187 176.916C444.64 175.63 432.021 168.531 418.144 161.141C402.663 152.896 393.414 147.43 394.207 146.995C394.918 146.604 406.525 142.824 420 138.593C446.165 130.379 449 128.868 449 123.132C449 121.574 448.212 119.369 447.25 118.233C444.615 115.124 344.834 62.0772 341.62 62.0772C340.075 62.0772 337.853 63.1332 336.455 64.5322ZM398.803 169.541C409.969 175.461 418.856 180.555 418.551 180.859C418.004 181.406 411.394 183.568 371 196.411C359.725 199.996 310.785 215.57 262.246 231.021L173.991 259.113L169.746 256.95C165.49 254.783 30.6531 182.029 30.3261 181.724C30.0141 181.434 76.4651 167.039 77.6521 167.058C78.2851 167.069 86.3851 171.178 95.6521 176.191C130.168 194.863 140.321 199.178 159.312 203.248C172.745 206.127 199.132 206.398 212 203.79C216.675 202.843 254.25 191.308 295.5 178.157L370.5 154.246L374.5 156.511C376.7 157.757 387.636 163.62 398.803 169.541ZM194.296 182.327L201.243 189.077H188.563C174.518 189.077 165.455 187.983 153.579 184.853L145.657 182.765L152.579 180.091C161.208 176.756 170.655 172.069 175.669 168.636L179.5 166.012L183.424 170.794C185.583 173.425 190.475 178.615 194.296 182.327ZM343.5 174.232C340.385 175.935 339 178.187 339 181.546C339 185.633 341.324 188.77 344.943 189.564C353.391 191.42 358.517 181.214 351.923 175.666C348.594 172.865 346.615 172.528 343.5 174.232ZM87.2091 184.123C84.0401 185.395 81.9511 190.637 83.1921 194.199C84.4051 197.678 85.8811 198.903 89.8051 199.688C92.3921 200.205 93.4351 199.795 95.9601 197.271C99.8731 193.357 99.9101 189.833 96.0771 186C93.0451 182.968 91.1081 182.558 87.2091 184.123ZM297 190.347C291.566 193.148 290.915 200.292 295.747 204.093C299.289 206.879 302.658 206.573 306.077 203.154C309.598 199.633 309.824 196.111 306.75 192.67C303.953 189.54 300.269 188.662 297 190.347ZM128.357 207.068C122.916 209.266 121.361 216.528 125.455 220.622C130.529 225.697 139 222.062 139 214.811C139 211.631 136.081 207.077 134.043 207.077C133.559 207.077 132.564 206.88 131.832 206.64C131.099 206.399 129.536 206.592 128.357 207.068ZM237 206.793C230.923 208.974 229.063 216.231 233.455 220.622C238.535 225.703 247 222.062 247 214.797C247 209.838 241.277 205.258 237 206.793ZM395.88 227.549C415.784 238.176 419.752 240.638 417.837 241.172C416.552 241.53 361.596 259.01 295.712 280.015C229.829 301.021 175.154 318.24 174.212 318.28C172.238 318.365 31.3991 242.39 31.6981 241.401C31.8061 241.041 42.2471 237.477 54.9001 233.481L77.9051 226.217L124.11 251.147C151.441 265.893 171.374 276.063 172.907 276.043C174.333 276.024 218.925 262.111 272 245.125C325.075 228.14 369.194 214.318 370.043 214.41C370.891 214.502 382.518 220.414 395.88 227.549ZM182.5 219.232C179.385 220.935 178 223.187 178 226.546C178 230.633 180.324 233.77 183.943 234.564C192.391 236.42 197.517 226.214 190.923 220.666C187.594 217.865 185.615 217.528 182.5 219.232Z" fill="black"/>
</svg>
