<svg width="424" height="513" viewBox="0 0 424 513" fill="none" xmlns="http://www.w3.org/2000/svg">
<path fill-rule="evenodd" clip-rule="evenodd" d="M71.9442 1.52053C60.9522 5.58753 52.8652 12.7875 48.2992 22.5755L45.4992 28.5755L45.2412 260.326L44.9822 492.076H26.2132C5.31915 492.076 4.00416 492.427 1.38016 498.707C0.170156 501.604 0.170156 502.548 1.38016 505.445C2.15416 507.298 3.83516 509.548 5.11616 510.445C7.25016 511.94 24.5052 512.076 211.999 512.076C399.493 512.076 416.748 511.94 418.882 510.445C420.163 509.548 421.844 507.298 422.618 505.445C423.828 502.548 423.828 501.604 422.618 498.707C419.994 492.427 418.679 492.076 397.785 492.076H379.016L378.757 260.326L378.499 28.5755L375.678 22.4705C372.109 14.7485 364.374 7.04653 356.499 3.37353L350.499 0.575528L212.999 0.390528C101.485 0.240528 74.8272 0.453529 71.9442 1.52053ZM346.282 21.2785C351.293 22.7795 356.312 27.8405 357.837 32.9275C358.557 35.3315 358.999 44.6555 358.999 57.4415V78.0755H211.999H64.9992V57.4415C64.9992 44.1735 65.4322 35.3635 66.2112 32.7635C67.6792 27.8615 72.4732 22.8415 77.0932 21.3675C82.2192 19.7305 340.832 19.6455 346.282 21.2785ZM358.999 242.076V386.076H309.999H260.999V377.786C260.999 357.192 250.756 339.953 233.51 331.522C219.314 324.581 204.672 324.581 190.499 331.521C173.277 339.955 162.999 357.246 162.999 377.786V386.076H113.999H64.9992V242.076V98.0755H211.999H358.999V242.076ZM234.313 137.362C231.532 138.909 140.338 255.415 138.337 259.979C136.193 264.868 138.193 269.916 143.262 272.406C150.931 276.172 149.388 277.776 197.805 215.757C221.928 184.858 243.315 157.404 245.332 154.749C248.139 151.054 248.999 148.985 248.999 145.922C248.999 138.353 240.959 133.667 234.313 137.362ZM271.387 182.056C265.169 184.568 263.177 192.757 267.526 197.926C273.605 205.151 284.999 201.19 284.999 191.852C284.999 187.025 282.765 183.539 278.784 182.151C275.21 180.905 274.266 180.893 271.387 182.056ZM245.256 214.608C243.017 216.177 195.268 276.812 193.163 280.76C189.661 287.331 194.391 295.076 201.906 295.076C204.956 295.076 206.701 294.391 208.913 292.326C213.113 288.405 259.028 229.13 260.149 226.182C263.274 217.962 252.463 209.561 245.256 214.608ZM224.956 350.212C229.373 352.42 232.161 354.661 234.366 357.778C238.89 364.175 239.838 367.507 239.923 377.326L239.999 386.076H211.999H183.999L184.075 377.326C184.117 372.514 184.679 367.143 185.325 365.392C189.4 354.34 199.978 347.076 211.999 347.076C217.486 347.076 219.801 347.637 224.956 350.212ZM358.999 423.076V439.076H238.899H118.799L115.399 442.476C113.243 444.632 111.999 446.846 111.999 448.526C111.999 451.943 114.486 456.731 116.944 458.046C118.232 458.736 158.497 459.076 238.933 459.076H358.999V475.576V492.076H211.999H64.9992V449.576V407.076H211.999H358.999V423.076Z" fill="black"/>
</svg>
