<svg width="511" height="417" viewBox="0 0 511 417" fill="none" xmlns="http://www.w3.org/2000/svg">
<path fill-rule="evenodd" clip-rule="evenodd" d="M332.035 2.97175C279.87 13.9178 243.947 62.8137 249.013 115.977C249.55 121.621 250.235 127.009 250.534 127.951C251.137 129.852 252.584 129.866 232.5 127.778C161.324 120.376 92.04 84.6628 44.46 30.8498L34.606 19.7048L32.143 24.5238C23.955 40.5468 20.768 53.8207 20.66 72.3438C20.558 90.0728 22.436 99.4817 29.245 115.344C35.32 129.496 49.208 147.244 62 157.203L65.5 159.928L59.5 159.301C49.222 158.227 39.904 155.918 31.036 152.25C17.505 146.651 18.692 146.322 19.506 155.452C21.896 182.285 31.185 202.875 49.342 221.587C61.968 234.598 76.074 243.443 92.896 248.895C102.299 251.943 102.092 252.205 89.026 253.806C79.076 255.025 68.503 255.058 61.5 253.892C58.75 253.435 56.356 253.193 56.181 253.355C56.005 253.517 57.252 256.99 58.951 261.072C72.75 294.219 104.582 319.722 138.549 324.845C154.9 327.311 154.528 326.339 142.262 334.54C121.838 348.196 100.145 358.005 77.393 363.872C57.161 369.088 46.839 370.295 22.25 370.321C10.012 370.334 0 370.401 0 370.471C0 370.942 20.015 382.362 26.775 385.747C58.181 401.477 90.888 410.929 129.5 415.433C146.367 417.401 185.013 416.851 202.5 414.395C237.569 409.468 264.965 401.118 295 386.202C314.282 376.626 321.819 371.98 339.5 358.771C412.555 304.193 458.972 210.408 458.997 117.331L459 104.318L464.75 99.8707C479.311 88.6117 494.442 73.0418 505.591 57.8438C511.657 49.5768 511.655 49.6088 505.816 51.9748C495.41 56.1898 479.318 60.9558 467.141 63.4288C454.414 66.0128 450.645 66.1508 455.003 63.8738C463.53 59.4158 479.341 43.0658 486.159 31.6548C490.029 25.1768 497.21 9.72075 496.623 9.13275C496.463 8.97375 490.746 11.6648 483.917 15.1118C471.421 21.4208 453.222 28.1018 438.617 31.7428L430.733 33.7078L424.017 27.9268C408.237 14.3458 393.073 6.73075 374.116 2.86775C361.134 0.221752 344.949 0.261752 332.035 2.97175Z" fill="#B2B2B2"/>
</svg>
