<svg width="512" height="513" viewBox="0 0 512 513" fill="none" xmlns="http://www.w3.org/2000/svg">
<path fill-rule="evenodd" clip-rule="evenodd" d="M2.636 2.71412L0 5.35112V25.7601C0 46.0951 0.00899982 46.1781 2.455 48.6231C4.735 50.9041 5.622 51.0781 14.955 51.0781H25V256.078V461.078H14.955C5.622 461.078 4.735 461.252 2.455 463.533C0.00899982 465.978 0 466.061 0 486.396V506.805L2.636 509.442L5.273 512.078H256H506.727L509.364 509.442L512 506.805V486.396C512 466.061 511.991 465.978 509.545 463.533C507.265 461.252 506.378 461.078 497.045 461.078H487V256.078V51.0781H497.045C506.378 51.0781 507.265 50.9041 509.545 48.6231C511.991 46.1781 512 46.0951 512 25.7601V5.35112L509.364 2.71412L506.727 0.078125H256H5.273L2.636 2.71412ZM495 25.5781V34.0781H256H17V25.5781V17.0781H256H495V25.5781ZM469 256.078V461.078H256H43V256.078V51.0781H256H469V256.078ZM63.795 69.6271C62.066 70.5651 60.714 72.4461 60.05 74.8371C58.602 80.0531 58.603 432.11 60.052 437.326C62.03 444.448 56.912 444.078 153.5 444.078C248.825 444.078 244.663 444.351 246.892 437.959C248.466 433.442 248.466 78.7141 246.892 74.1971C244.662 67.8021 248.857 68.0741 153.3 68.1181C78.92 68.1521 66.113 68.3681 63.795 69.6271ZM268.856 69.5941C267.402 70.3841 265.714 72.4591 265.106 74.2041C263.534 78.7141 263.536 433.448 265.108 437.959C267.337 444.351 263.175 444.078 358.5 444.078C455.088 444.078 449.97 444.448 451.948 437.326C453.398 432.104 453.398 80.0521 451.948 74.8301C449.969 67.7041 455.12 68.0731 358.3 68.1181C284.803 68.1521 271.095 68.3781 268.856 69.5941ZM145 136.578V187.078H111H77V136.578V86.0781H111H145V136.578ZM230 136.578V187.078H196H162V136.578V86.0781H196H230V136.578ZM350 136.578V187.078H316H282V136.578V86.0781H316H350V136.578ZM435 136.578V187.078H401H367V136.578V86.0781H401H435V136.578ZM145 256.078V307.078H111H77V256.078V205.078H111H145V256.078ZM230 256.078V307.078H196H162V256.078V205.078H196H230V256.078ZM350 256.078V307.078H316H282V256.078V205.078H316H350V256.078ZM435 256.078V307.078H401H367V256.078V205.078H401H435V256.078ZM145 375.578V426.078H111H77V375.578V325.078H111H145V375.578ZM230 375.578V426.078H196H162V375.578V325.078H196H230V375.578ZM350 375.578V426.078H316H282V375.578V325.078H316H350V375.578ZM435 375.578V426.078H401H367V375.578V325.078H401H435V375.578ZM495 486.578V495.078H256H17V486.578V478.078H256H495V486.578Z" fill="black"/>
</svg>
