<svg width="336" height="481" viewBox="0 0 336 481" fill="none" xmlns="http://www.w3.org/2000/svg">
<path fill-rule="evenodd" clip-rule="evenodd" d="M160 24.0781V48.0781H154.455C149.9 48.0781 148.47 48.5171 146.455 50.5331L144 52.9871V101.167V149.348L141.837 146.463C131.785 133.057 115.482 121.566 99 116.269C88.838 113.003 81.724 112.078 66.771 112.078C53.387 112.078 52.825 112.163 50.455 114.533C48.439 116.548 48 117.978 48 122.533V128.078H24H0V136.078V144.078H24H48V149.467C48 153.281 48.558 155.546 49.91 157.217C51.705 159.436 52.685 159.617 66.16 160.225C75.416 160.643 82.095 161.45 85 162.503C95.735 166.392 104.991 175.49 109.27 186.359C110.951 190.628 111.408 194.537 111.78 207.828L112.235 224.078H106.572C101.893 224.078 100.483 224.504 98.455 226.533L96 228.987V352.078V475.169L98.455 477.623L100.909 480.078H168H235.091L237.545 477.623L240 475.169V352.078V228.987L237.545 226.533C235.517 224.504 234.107 224.078 229.428 224.078H223.765L224.226 207.828C224.611 194.226 225.04 190.682 226.857 186.078C231.23 175.002 239.186 167.136 250.406 162.797C254.214 161.325 259.121 160.67 269.84 160.203C283.329 159.615 284.293 159.438 286.09 157.217C287.442 155.546 288 153.281 288 149.467V144.078H312H336V136.078V128.078H312H288V122.533C288 117.978 287.561 116.548 285.545 114.533C283.175 112.163 282.613 112.078 269.229 112.078C254.275 112.078 247.16 113.003 237 116.27C220.684 121.515 206.416 131.282 195.881 144.418L192 149.258V101.122V52.9871L189.545 50.5331C187.53 48.5171 186.1 48.0781 181.545 48.0781H176V24.0781V0.078125H168H160V24.0781ZM176 144.078V224.078H168H160V144.078V64.0781H168H176V144.078ZM89.5 130.549C109.159 135.596 126.793 149.684 135.394 167.213C142.021 180.721 143.099 185.782 143.727 206.328L144.269 224.078H136.135H128V208.288C128 184.197 124.224 173.27 111.512 160.576C100.414 149.493 87.376 144.078 71.79 144.078H64V135.927V127.776L73.75 128.392C79.113 128.732 86.2 129.702 89.5 130.549ZM272 136.078V144.078H264.21C238.328 144.078 215.897 161.492 209.518 186.538C208.476 190.628 208 197.454 208 208.288V224.078H199.876H191.752L192.265 206.328C192.858 185.804 193.914 180.853 200.606 167.213C212.171 143.643 237.169 128.544 265.25 128.168L272 128.078V136.078ZM224 248.078V256.078H212H200V264.078V272.078H212H224V368.078V464.078H168H112V368.078V272.078H140H168V264.078V256.078H140H112V248.078V240.078H168H224V248.078ZM128 440.078V448.078H136H144V440.078V432.078H136H128V440.078ZM160 440.078V448.078H168H176V440.078V432.078H168H160V440.078Z" fill="black"/>
</svg>
