<svg width="332" height="447" viewBox="0 0 332 447" fill="none" xmlns="http://www.w3.org/2000/svg">
<path fill-rule="evenodd" clip-rule="evenodd" d="M42.2633 30.1221C-2.2541 69.2777 -12.7799 132.012 16.6231 182.94C43.0216 228.663 95.3811 252.139 146.313 241.086L158.49 238.442L165.228 250.141L171.966 261.839L169.281 265.637C165.416 271.107 163.137 281.304 164.158 288.561L165.025 294.714L205.525 364.862C243.515 430.662 246.287 435.235 250.244 438.65C255.857 443.492 266.687 446.866 274.851 446.318L281.176 445.893L301.544 434.133L321.912 422.374L326.059 416.178C330.567 409.443 332.369 402.631 331.85 394.276L331.53 389.108L289.78 316.795C248.048 244.514 248.028 244.481 243.82 241.513C238.152 237.515 228.682 234.7 222.107 235.06L216.712 235.355L210.413 223.887L204.115 212.419L209.928 206.378C232.074 183.371 244.802 149.049 243.186 116.699C239.069 34.256 156.743 -20.1291 79.0945 8.2976C68.0459 12.3429 50.9808 22.4552 42.2633 30.1221ZM83.0867 29.7403C93.891 25.1779 111.215 21.8052 123.313 21.9079C130.302 21.9673 137.601 23.1031 147.122 25.6127C167.102 30.8778 181.266 39.1099 195.191 53.5466C204.023 62.7035 214.923 81.5237 218.382 93.59C223.74 112.281 223.95 129.721 219.038 148.151C208.881 186.258 179.758 213.353 140.619 221.111C126.11 223.988 113.227 223.609 97.697 219.85C80.3049 215.64 65.405 207.525 51.6754 194.782C45.3819 188.942 44.3312 187.478 35.6892 172.509C27.0332 157.517 26.3027 155.899 24.313 147.323C12.8376 97.8532 37.1988 49.1161 83.0867 29.7403ZM101.262 100.472C100.068 104.928 100.17 105.381 103.764 111.607L107.511 118.097L100.775 122.405C94.6006 126.353 93.9517 127.051 92.9923 130.773C91.4015 136.948 94.1717 141.876 100.134 143.474C103.888 144.48 104.546 144.302 111.122 140.505L118.117 136.467L122.006 143.202C124.792 148.027 126.625 150.278 128.471 151.138C131.576 152.586 137.683 151.962 139.444 150.018C144.436 144.507 144.474 140.118 139.603 131.682L136.304 125.967L142.325 122.49C149.36 118.429 151.748 115.512 151.55 111.224C151.364 107.224 149.996 104.93 146.436 102.648C142.73 100.273 137.581 100.981 131.028 104.764L125.804 107.78L122.529 102.108C118.708 95.4904 115.121 92.8061 110.395 93.0249C105.144 93.2688 102.646 95.3058 101.262 100.472ZM192.48 235.273L198.107 245.014L193.777 247.514L189.447 250.014L183.819 240.265L178.19 230.516L182.521 228.024L186.852 225.532L192.48 235.273ZM224.117 255.998C231.169 255.671 229.136 252.633 272.308 327.997L311.574 396.544L310.379 401.009L309.184 405.473L292.994 415.177C275.069 425.922 271.659 427.092 266.234 424.356C263.414 422.934 261.178 419.255 223.896 354.681C184.714 286.816 184.537 286.49 184.938 283.013C185.643 276.921 187.006 275.708 204.545 265.564C217.416 258.118 221.507 256.119 224.117 255.998Z" fill="white"/>
</svg>
